<?xml version="1.0" standalone="no"?>
<!DOCTYPE svg PUBLIC "-//W3C//DTD SVG 20010904//EN"
 "http://www.w3.org/TR/2001/REC-SVG-20010904/DTD/svg10.dtd">
<svg version="1.0" xmlns="http://www.w3.org/2000/svg"
 width="300.000000pt" height="300.000000pt" viewBox="0 0 300.000000 300.000000"
 preserveAspectRatio="xMidYMid meet">
<metadata>
Created by potrace 1.10, written by Peter Selinger 2001-2011
</metadata>
<g transform="translate(0.000000,300.000000) scale(0.100000,-0.100000)"
fill="#000000" stroke="none">
<path d="M426 2985 c-3 -8 -2 -14 2 -13 4 1 14 -2 22 -5 55 -24 99 -33 133
-27 43 8 51 -9 15 -34 -18 -13 -21 -24 -19 -73 2 -50 6 -61 32 -83 29 -24 30
-26 15 -55 -8 -16 -17 -51 -20 -77 -3 -25 -6 -50 -7 -55 -5 -27 2 -53 13 -47
7 5 8 3 4 -5 -5 -7 0 -18 10 -26 11 -8 17 -15 14 -15 -3 0 -58 -1 -123 -1 -66
-1 -115 -5 -110 -10 12 -11 273 -16 273 -5 0 6 -12 23 -27 39 -25 26 -28 34
-25 92 1 35 9 83 18 106 14 42 14 44 -8 61 -13 10 -26 18 -29 18 -4 0 -9 24
-12 53 -5 54 5 87 26 87 7 0 22 7 33 15 16 13 16 14 2 9 -14 -5 -18 -1 -18 16
0 11 -4 19 -9 15 -5 -3 -16 2 -24 10 -20 19 -27 19 -27 0 0 -8 -5 -15 -11 -15
-21 0 -104 23 -113 31 -14 13 -23 11 -30 -6z"/>
<path d="M640 2982 c13 -11 28 -18 32 -16 5 3 11 -1 13 -9 3 -7 15 -13 27 -12
15 1 22 9 24 28 3 27 -9 36 -22 16 -6 -10 -36 -8 -79 6 -16 6 -16 3 5 -13z"/>
<path d="M900 2989 c0 -14 103 -76 139 -84 31 -7 33 -9 27 -38 -4 -17 -12 -35
-19 -39 -8 -5 -7 -8 5 -8 9 0 21 13 27 30 5 17 7 30 4 30 -3 0 0 7 7 15 9 11
16 13 24 5 5 -5 25 -10 43 -10 26 0 33 4 33 19 0 11 5 23 10 26 6 3 10 -1 10
-9 0 -9 7 -16 15 -16 8 0 15 -5 15 -11 0 -6 -8 -8 -18 -5 -16 5 -19 0 -20 -31
l-1 -38 14 30 c7 17 14 26 15 20 1 -5 3 -20 6 -32 3 -16 -1 -23 -13 -23 -9 0
-14 -3 -10 -6 3 -4 54 -6 112 -5 74 1 105 -1 100 -9 -3 -6 -18 -9 -32 -7 -15
2 -48 0 -75 -4 -26 -4 -61 -4 -78 1 -26 7 -30 6 -30 -10 0 -18 8 -19 115 -14
63 3 115 2 115 -1 0 -9 -27 -35 -31 -30 -2 2 -44 5 -93 6 -81 3 -90 2 -106
-19 -15 -17 -19 -19 -24 -7 -3 8 -10 15 -16 15 -17 0 -11 -14 11 -28 18 -11
23 -11 32 2 9 11 38 16 119 18 66 2 109 -1 112 -7 6 -18 -6 -75 -15 -69 -5 3
-14 2 -19 -1 -6 -4 -40 -8 -76 -10 -103 -5 -89 -16 16 -13 l94 3 12 42 c8 26
9 45 3 48 -13 9 -11 93 3 101 6 4 14 2 16 -4 2 -7 8 -10 13 -6 15 9 10 -8 -8
-28 -10 -12 -12 -18 -4 -18 12 0 9 -55 -3 -67 -3 -4 2 -12 11 -18 15 -11 15
-13 -5 -19 -27 -9 -29 -22 -2 -22 11 0 20 4 20 8 0 4 7 5 15 2 8 -4 12 -10 9
-15 -3 -6 13 -7 41 -3 26 3 65 7 86 8 41 2 67 16 30 16 -13 0 -19 4 -16 11 4
5 -10 3 -31 -6 -25 -10 -40 -12 -42 -5 -2 5 -9 7 -15 3 -20 -12 -47 -14 -47
-2 0 5 -4 8 -9 5 -11 -7 -21 38 -17 74 2 14 -1 30 -6 37 -7 9 2 11 37 8 25 -2
43 0 40 5 -3 4 2 10 10 14 8 3 15 1 15 -5 0 -12 59 -9 78 4 7 6 12 6 12 -1 0
-17 49 -11 55 8 8 26 -5 52 -23 45 -17 -6 -328 -24 -413 -24 l-56 0 -1 63 c-1
34 -6 75 -11 89 -9 24 -16 27 -57 27 -26 0 -44 -3 -40 -7 4 -4 23 -6 42 -5 21
2 33 -1 30 -7 -3 -5 -2 -11 3 -13 13 -5 24 -48 12 -48 -6 0 -11 5 -11 10 0 6
-9 20 -19 32 -16 17 -22 18 -34 7 -8 -7 -12 -21 -10 -30 4 -13 -4 -16 -41 -15
-25 1 -46 4 -46 7 0 3 -14 6 -31 6 -18 0 -37 7 -44 16 -13 18 -95 49 -95 36z
m286 -56 c-10 -10 -19 5 -10 18 6 11 8 11 12 0 2 -7 1 -15 -2 -18z m551 -115
c-2 -9 -28 -13 -83 -13 -48 0 -88 -5 -103 -14 -20 -11 -25 -11 -32 0 -15 24
-11 25 68 28 43 1 78 3 79 4 2 1 19 3 39 5 26 1 35 -2 32 -10z"/>
<path d="M1090 2990 c0 -5 7 -7 15 -4 8 4 15 8 15 10 0 2 -7 4 -15 4 -8 0 -15
-4 -15 -10z"/>
<path d="M1323 2968 c0 -16 -5 -33 -11 -37 -9 -5 -8 -12 3 -27 15 -19 16 -19
14 1 -3 41 0 47 24 39 32 -10 33 -11 10 -42 -14 -19 -18 -33 -12 -43 7 -11 9
-9 9 9 0 12 5 22 10 22 6 0 10 6 10 14 0 25 41 26 65 2 l23 -24 22 25 c12 14
19 28 15 31 -4 4 -11 -1 -16 -10 -5 -10 -17 -14 -29 -11 -26 7 -25 17 3 36 21
15 21 16 2 16 -12 1 -27 7 -34 14 -11 10 -12 7 -7 -15 5 -21 3 -28 -8 -28 -8
0 -18 5 -21 11 -4 6 -13 8 -21 5 -7 -3 -22 6 -32 19 l-19 23 0 -30z"/>
<path d="M1508 2993 c-10 -2 -18 -9 -18 -15 0 -5 7 -7 16 -4 9 3 22 6 30 6 9
0 12 5 9 10 -6 10 -9 11 -37 3z"/>
<path d="M1576 2982 c5 -17 46 -42 70 -42 15 0 25 -25 18 -44 -3 -8 -1 -16 4
-20 5 -3 8 11 7 30 -1 33 -16 54 -41 54 -6 0 -23 9 -37 20 -22 18 -25 18 -21
2z"/>
<path d="M1690 2959 c0 -24 4 -38 10 -34 6 3 13 -2 17 -11 4 -10 2 -19 -5 -22
-7 -2 -12 -13 -12 -25 0 -21 1 -21 20 3 25 32 25 43 -1 66 -13 12 -19 27 -16
41 2 13 0 23 -4 23 -5 0 -9 -18 -9 -41z"/>
<path d="M1770 2989 c0 -5 5 -7 10 -4 6 3 10 8 10 11 0 2 -4 4 -10 4 -5 0 -10
-5 -10 -11z"/>
<path d="M1941 2984 c0 -11 3 -14 6 -6 3 7 2 16 -1 19 -3 4 -6 -2 -5 -13z"/>
<path d="M1962 2977 c-18 -42 -15 -68 3 -33 9 17 14 37 12 45 -3 11 -7 7 -15
-12z"/>
<path d="M2274 2991 c3 -5 -1 -14 -9 -21 -7 -6 -12 -17 -9 -25 5 -12 -30 -45
-48 -45 -5 0 -13 11 -18 25 -11 28 -25 32 -34 10 -3 -8 -1 -15 4 -15 14 0 12
-26 -3 -38 -19 -16 -57 -3 -57 18 0 13 5 17 20 13 18 -5 19 -3 11 19 -5 14 -5
31 0 39 7 13 0 16 -44 15 -29 0 -58 -6 -65 -13 -7 -7 -20 -13 -28 -13 -8 0
-14 -6 -14 -13 0 -9 10 -12 30 -9 17 2 30 8 30 13 0 11 41 11 58 0 10 -6 10
-10 -3 -21 -18 -15 -20 -44 -2 -57 20 -17 62 -20 75 -6 11 11 52 18 100 16 8
-1 10 6 7 18 -11 33 4 21 19 -16 8 -19 21 -35 29 -35 9 0 14 -12 15 -35 1 -20
-3 -33 -8 -30 -4 3 -4 -11 1 -30 19 -68 14 -176 -9 -225 -12 -25 -22 -41 -22
-36 0 5 -12 -4 -27 -20 -24 -26 -25 -29 -8 -33 10 -2 24 4 30 13 15 20 25 21
25 1 0 -13 28 -15 192 -15 105 0 189 2 187 5 -6 5 -194 16 -289 16 -76 0 -97
9 -85 35 5 11 9 21 10 24 1 3 8 28 17 56 13 40 14 61 6 102 -6 29 -9 54 -7 57
3 2 22 0 44 -5 23 -5 44 -5 49 0 10 10 55 -7 72 -27 15 -18 94 -25 94 -8 0 7
9 15 19 18 13 3 22 17 26 41 7 34 35 53 35 23 0 -8 11 -13 28 -12 28 1 72 -14
72 -25 0 -3 -5 -11 -12 -18 -7 -7 -8 -12 -4 -12 5 0 14 7 20 16 13 18 47 9 40
-11 -3 -7 -1 -16 5 -20 6 -3 9 0 5 8 -4 10 2 15 21 15 21 0 26 -4 22 -19 -3
-13 5 -28 25 -45 28 -23 32 -24 47 -10 14 15 16 14 28 -6 11 -22 12 -21 8 10
-4 34 -20 62 -36 62 -5 0 -7 -11 -3 -25 8 -33 -18 -34 -41 -2 -14 20 -14 22 0
25 13 3 11 9 -10 28 -30 28 -40 30 -31 9 3 -8 1 -15 -4 -15 -6 0 -10 6 -10 14
0 17 -27 30 -56 27 -12 -1 -24 5 -28 14 -5 13 -10 14 -28 4 -17 -9 -24 -9 -33
5 -7 9 -17 16 -23 16 -13 0 -23 26 -16 44 6 15 -33 43 -44 32 -3 -3 0 -6 6 -6
20 0 14 -25 -11 -49 -15 -13 -30 -19 -41 -15 -12 4 -23 -1 -34 -17 -19 -27
-22 -44 -7 -44 6 0 16 -4 23 -9 13 -8 42 9 42 26 0 20 35 47 50 38 12 -8 12
-10 -2 -15 -8 -3 -23 -24 -33 -46 -10 -21 -24 -39 -31 -39 -7 0 -14 -6 -16
-12 -3 -8 -14 -3 -30 15 -14 15 -35 27 -47 27 -14 0 -21 6 -21 20 0 11 6 20
14 20 25 0 28 18 7 37 -11 10 -27 36 -36 57 -18 43 -39 43 -43 0 -2 -16 -11
-35 -20 -42 -13 -10 -14 -14 -4 -21 7 -4 12 -14 10 -21 -2 -7 3 -15 11 -18 10
-3 12 1 8 17 -3 12 0 32 7 45 l12 24 17 -29 c15 -27 15 -31 -1 -59 -15 -28
-20 -30 -52 -24 -19 4 -43 7 -52 8 -22 0 -23 10 -4 29 12 12 13 22 2 63 -7 27
-15 43 -17 35 -3 -9 -10 -11 -18 -7 -7 5 -10 14 -7 21 2 7 -2 16 -10 19 -14 6
-20 36 -6 36 4 0 15 -9 25 -20 18 -21 52 -27 62 -10 4 6 -7 13 -24 16 -17 4
-31 10 -31 15 0 5 -11 9 -25 9 -27 0 -32 9 -13 28 9 9 8 12 -6 12 -9 0 -15 -4
-12 -9z m316 -211 c0 -5 -7 -10 -16 -10 -8 0 -12 5 -9 10 3 6 10 10 16 10 5 0
9 -4 9 -10z"/>
<path d="M365 2980 c3 -5 8 -10 11 -10 2 0 4 5 4 10 0 6 -5 10 -11 10 -5 0 -7
-4 -4 -10z"/>
<path d="M762 2970 c0 -14 2 -19 5 -12 2 6 2 18 0 25 -3 6 -5 1 -5 -13z"/>
<path d="M782 2952 c4 -25 2 -42 -5 -45 -5 -1 -8 -9 -6 -16 4 -11 9 -10 22 3
13 13 14 22 7 36 -5 10 -7 25 -4 33 3 8 0 18 -7 23 -9 5 -11 -3 -7 -34z"/>
<path d="M830 2970 c13 -23 20 -26 20 -6 0 8 -7 16 -15 20 -13 4 -14 2 -5 -14z"/>
<path d="M247 2973 c-4 -3 1 -12 9 -21 9 -9 19 -11 24 -6 6 6 2 14 -9 21 -10
7 -21 9 -24 6z"/>
<path d="M1275 2970 c-19 -8 -19 -9 2 -9 12 -1 25 4 28 9 7 12 -2 12 -30 0z"/>
<path d="M1793 2955 c0 -14 3 -22 8 -19 5 3 9 11 9 19 0 8 -4 16 -9 19 -5 3
-8 -5 -8 -19z"/>
<path d="M2377 2974 c-14 -14 -6 -20 28 -22 19 -2 35 2 35 8 0 5 -6 10 -14 10
-8 0 -21 2 -28 5 -8 3 -17 2 -21 -1z"/>
<path d="M1880 2960 c0 -5 5 -10 11 -10 5 0 7 5 4 10 -3 6 -8 10 -11 10 -2 0
-4 -4 -4 -10z"/>
<path d="M2464 2954 c3 -9 6 -18 6 -20 0 -3 4 -3 10 1 11 7 2 35 -12 35 -6 0
-7 -7 -4 -16z"/>
<path d="M317 2949 c7 -7 15 -10 18 -7 3 3 -2 9 -12 12 -14 6 -15 5 -6 -5z"/>
<path d="M365 2950 c-3 -5 -1 -10 4 -10 6 0 11 5 11 10 0 6 -2 10 -4 10 -3 0
-8 -4 -11 -10z"/>
<path d="M1745 2939 c13 -43 23 -56 22 -27 -1 14 -8 31 -16 38 -11 11 -12 9
-6 -11z"/>
<path d="M1568 2920 c38 -34 42 -36 42 -15 0 8 -13 21 -30 30 -44 23 -48 18
-12 -15z"/>
<path d="M825 2930 c-3 -5 -2 -10 4 -10 5 0 13 5 16 10 3 6 2 10 -4 10 -5 0
-13 -4 -16 -10z"/>
<path d="M2520 2920 c0 -11 5 -20 10 -20 6 0 10 9 10 20 0 11 -4 20 -10 20 -5
0 -10 -9 -10 -20z"/>
<path d="M170 2919 c0 -5 5 -7 10 -4 6 3 10 8 10 11 0 2 -4 4 -10 4 -5 0 -10
-5 -10 -11z"/>
<path d="M676 2921 c-11 -17 0 -27 26 -26 27 1 37 20 11 20 -10 0 -21 4 -24 9
-4 4 -10 3 -13 -3z"/>
<path d="M220 2881 c0 -25 -12 -27 -30 -6 -14 17 -30 20 -30 5 0 -15 40 -32
58 -24 9 4 20 6 25 6 12 -3 8 15 -8 28 -13 10 -15 9 -15 -9z"/>
<path d="M1270 2890 c0 -5 7 -10 16 -10 8 0 12 5 9 10 -3 6 -10 10 -16 10 -5
0 -9 -4 -9 -10z"/>
<path d="M1627 2893 c-12 -12 -7 -22 8 -17 8 4 15 10 15 15 0 11 -14 12 -23 2z"/>
<path d="M616 2883 c-13 -14 -5 -31 22 -42 22 -9 34 -9 61 5 24 12 35 13 40 5
4 -6 15 -9 24 -5 20 7 22 20 5 22 -7 0 -23 4 -35 7 -15 5 -28 0 -42 -14 -22
-22 -47 -29 -35 -9 4 7 3 8 -4 4 -7 -4 -12 -1 -12 8 0 17 -14 29 -24 19z"/>
<path d="M658 2878 c-9 -5 -6 -8 9 -8 12 0 24 4 27 8 7 11 -19 11 -36 0z"/>
<path d="M1395 2880 c3 -5 11 -10 16 -10 6 0 7 5 4 10 -3 6 -11 10 -16 10 -6
0 -7 -4 -4 -10z"/>
<path d="M1770 2870 c0 -5 5 -10 11 -10 5 0 7 5 4 10 -3 6 -8 10 -11 10 -2 0
-4 -4 -4 -10z"/>
<path d="M1870 2865 c0 -8 4 -15 10 -15 5 0 7 7 4 15 -4 8 -8 15 -10 15 -2 0
-4 -7 -4 -15z"/>
<path d="M2505 2869 c-4 -6 -4 -13 -1 -16 8 -8 36 5 36 17 0 13 -27 13 -35 -1z"/>
<path d="M1145 2860 c3 -5 8 -10 11 -10 2 0 4 5 4 10 0 6 -5 10 -11 10 -5 0
-7 -4 -4 -10z"/>
<path d="M2265 2860 c-3 -5 1 -10 10 -10 9 0 13 5 10 10 -3 6 -8 10 -10 10 -2
0 -7 -4 -10 -10z"/>
<path d="M791 2842 c-1 -8 -6 -10 -13 -6 -9 5 -10 4 -3 -4 6 -7 26 -15 45 -19
33 -6 34 -6 18 11 -10 9 -22 15 -27 12 -5 -4 -12 0 -14 6 -4 10 -6 10 -6 0z"/>
<path d="M2180 2839 c0 -5 5 -7 10 -4 6 3 10 8 10 11 0 2 -4 4 -10 4 -5 0 -10
-5 -10 -11z"/>
<path d="M696 2824 c-9 -8 -17 -25 -17 -37 -2 -40 -9 -86 -18 -128 -11 -50 -9
-57 31 -89 l31 -24 -8 69 c-9 67 -8 205 0 213 2 3 11 -3 20 -12 9 -9 12 -16 6
-16 -6 0 -11 -5 -11 -11 0 -5 4 -8 8 -5 5 3 8 -4 8 -16 -1 -12 4 -23 10 -25 7
-2 10 10 8 34 -2 21 -3 42 -3 46 -1 5 -5 6 -10 2 -5 -3 -12 -1 -16 5 -9 14
-21 12 -39 -6z m3 -211 c0 -25 -1 -25 -8 -8 -5 11 -7 23 -4 28 8 14 13 7 12
-20z"/>
<path d="M1947 2830 c13 -13 56 -23 49 -12 -3 5 -17 12 -32 15 -14 2 -22 1
-17 -3z"/>
<path d="M2311 2824 c0 -11 3 -14 6 -6 3 7 2 16 -1 19 -3 4 -6 -2 -5 -13z"/>
<path d="M860 2815 c0 -14 -22 -20 -62 -17 -13 1 -17 -5 -16 -23 1 -15 9 -25
17 -25 12 0 12 3 3 12 -17 17 -15 33 3 18 10 -9 15 -9 15 -1 0 6 11 11 25 11
18 0 25 5 25 20 0 11 -2 20 -5 20 -3 0 -5 -7 -5 -15z"/>
<path d="M1150 2820 c0 -5 7 -7 15 -4 8 4 15 8 15 10 0 2 -7 4 -15 4 -8 0 -15
-4 -15 -10z"/>
<path d="M1816 2819 c3 -5 -8 -9 -24 -9 -25 0 -29 -3 -25 -20 5 -17 7 -17 20
-5 8 8 28 15 44 15 33 0 32 14 -1 23 -11 3 -18 1 -14 -4z"/>
<path d="M1877 2815 c3 -8 9 -12 14 -9 12 7 11 11 -5 17 -10 4 -13 1 -9 -8z"/>
<path d="M642 2790 c0 -19 2 -27 5 -17 2 9 2 25 0 35 -3 9 -5 1 -5 -18z"/>
<path d="M2163 2810 c-28 -11 -29 -15 -4 -17 11 -1 22 5 25 13 3 8 4 14 3 13
-1 0 -12 -4 -24 -9z"/>
<path d="M2244 2808 c3 -9 0 -18 -6 -20 -6 -2 -9 -9 -7 -16 3 -7 9 -8 18 -2
12 7 12 13 3 32 -7 13 -10 15 -8 6z"/>
<path d="M2940 2810 c0 -5 5 -10 11 -10 5 0 7 5 4 10 -3 6 -8 10 -11 10 -2 0
-4 -4 -4 -10z"/>
<path d="M155 2800 c-3 -5 -2 -10 4 -10 5 0 13 5 16 10 3 6 2 10 -4 10 -5 0
-13 -4 -16 -10z"/>
<path d="M1053 2785 c0 -8 4 -15 9 -15 4 0 8 7 8 15 0 8 -4 15 -8 15 -5 0 -9
-7 -9 -15z"/>
<path d="M1103 2785 c-10 -10 -9 -16 2 -25 12 -10 15 -9 15 3 0 9 5 19 10 22
6 4 9 1 8 -7 -2 -8 5 -12 20 -10 13 2 22 -2 23 -10 0 -7 4 -4 8 7 8 20 -2 35
-24 35 -5 0 -3 -5 5 -10 9 -6 10 -10 3 -10 -6 0 -15 5 -18 10 -9 14 -38 12
-52 -5z"/>
<path d="M1872 2775 c-7 -8 -22 -15 -32 -15 -12 0 -20 -7 -20 -16 0 -11 6 -14
23 -8 27 8 55 23 43 24 -5 0 -3 7 4 15 16 19 -1 19 -18 0z"/>
<path d="M1953 2776 c15 -11 24 -12 43 -4 13 6 22 13 20 16 -3 2 -13 -1 -22
-6 -12 -7 -26 -7 -39 -1 -19 10 -19 9 -2 -5z"/>
<path d="M2083 2783 c-7 -2 -13 -11 -13 -18 0 -7 -6 -16 -12 -18 -8 -3 -7 -6
4 -6 9 -1 19 8 23 18 3 11 16 22 28 24 19 4 19 4 2 5 -11 0 -26 -2 -32 -5z"/>
<path d="M2277 2783 c-12 -11 -8 -23 8 -23 8 0 15 7 15 15 0 16 -12 20 -23 8z"/>
<path d="M2976 2783 c5 -5 12 -12 16 -18 4 -6 8 -2 8 8 0 9 -7 17 -17 17 -9 0
-12 -3 -7 -7z"/>
<path d="M2176 2765 c4 -8 12 -15 20 -15 8 0 11 6 8 15 -4 8 -12 15 -20 15 -8
0 -11 -6 -8 -15z"/>
<path d="M1700 2759 c0 -5 -9 -9 -21 -9 -11 0 -18 -4 -15 -9 3 -4 17 -6 31 -3
14 2 32 -1 40 -8 12 -10 15 -10 15 1 0 8 -11 19 -25 26 -14 6 -25 7 -25 2z"/>
<path d="M2022 2761 c-11 -7 -11 -9 2 -14 10 -4 16 -1 16 8 0 17 -1 17 -18 6z"/>
<path d="M61 2743 c7 -10 15 -20 16 -22 2 -2 3 3 3 11 0 9 -7 19 -16 22 -15 6
-15 4 -3 -11z"/>
<path d="M820 2748 c0 -4 14 -8 30 -8 17 0 30 2 30 4 0 2 -13 6 -30 8 -16 3
-30 1 -30 -4z"/>
<path d="M1985 2750 c-3 -5 -1 -10 4 -10 6 0 11 5 11 10 0 6 -2 10 -4 10 -3 0
-8 -4 -11 -10z"/>
<path d="M1535 2740 c-3 -5 -1 -10 4 -10 6 0 11 5 11 10 0 6 -2 10 -4 10 -3 0
-8 -4 -11 -10z"/>
<path d="M1565 2739 c4 -5 22 -9 42 -9 45 0 40 5 -10 13 -22 3 -35 2 -32 -4z"/>
<path d="M1959 2746 c-2 -2 -20 -7 -39 -10 -20 -3 -52 -12 -71 -20 -27 -11
-39 -12 -47 -4 -7 7 -14 9 -18 6 -3 -4 3 -11 13 -17 20 -10 103 4 103 18 0 3
12 7 26 8 21 1 61 23 43 23 -3 0 -8 -2 -10 -4z"/>
<path d="M2241 2710 l1 -45 8 35 c5 20 5 39 -1 45 -5 5 -9 -8 -8 -35z"/>
<path d="M2301 2743 c-1 -7 -8 -10 -18 -6 -13 5 -15 2 -10 -18 4 -13 7 -40 7
-59 1 -31 2 -33 12 -15 6 11 16 23 21 26 6 4 6 21 -1 45 -5 22 -10 34 -11 27z
m9 -53 c0 -5 -2 -10 -4 -10 -3 0 -8 5 -11 10 -3 6 -1 10 4 10 6 0 11 -4 11
-10z"/>
<path d="M785 2730 c3 -6 13 -10 21 -10 8 0 12 -4 9 -10 -4 -6 -17 -4 -36 6
-35 18 -59 13 -59 -13 0 -15 2 -15 16 3 14 17 15 17 10 1 -3 -10 -2 -15 4 -12
10 6 59 -21 72 -40 5 -6 11 -6 19 2 10 10 9 14 -4 18 -9 4 -13 13 -10 21 4 10
9 11 17 5 8 -7 27 -6 56 1 33 9 45 9 48 0 2 -7 8 -12 13 -12 5 0 4 9 -3 20 -7
10 -14 17 -16 15 -3 -2 -13 0 -23 6 -15 8 -17 6 -13 -6 5 -13 0 -15 -37 -9
-24 4 -54 11 -67 15 -15 6 -21 5 -17 -1z"/>
<path d="M1080 2730 c0 -5 5 -10 12 -10 27 0 -9 -19 -42 -22 -33 -3 -32 -4 18
-14 46 -10 51 -9 40 4 -11 13 -9 14 14 9 23 -6 25 -4 21 13 -3 11 -9 17 -14
14 -5 -3 -18 0 -29 6 -13 7 -20 7 -20 0z"/>
<path d="M2110 2730 c0 -5 5 -10 11 -10 5 0 7 5 4 10 -3 6 -8 10 -11 10 -2 0
-4 -4 -4 -10z"/>
<path d="M2202 2729 c-13 -5 -20 -14 -16 -20 4 -8 9 -7 15 2 4 7 11 10 14 7 4
-4 4 -12 0 -18 -7 -11 -13 -52 -18 -122 -1 -14 -6 -24 -11 -21 -4 3 -5 -4 -2
-15 4 -12 2 -23 -5 -28 -7 -4 -10 -3 -7 2 3 5 2 18 -3 29 -6 17 -8 15 -8 -11
-1 -17 -4 -46 -7 -63 -6 -27 -4 -31 14 -31 21 0 24 10 52 197 14 92 12 103
-18 92z"/>
<path d="M2080 2709 c0 -5 5 -7 10 -4 6 3 10 8 10 11 0 2 -4 4 -10 4 -5 0 -10
-5 -10 -11z"/>
<path d="M1575 2690 c-44 -4 -55 -8 -42 -14 11 -5 48 -4 88 3 39 6 74 9 78 7
4 -3 13 -1 21 5 17 10 -45 10 -145 -1z"/>
<path d="M1765 2680 c-3 -5 -2 -10 4 -10 5 0 13 5 16 10 3 6 2 10 -4 10 -5 0
-13 -4 -16 -10z"/>
<path d="M2736 2677 c3 -10 9 -15 12 -12 3 3 0 11 -7 18 -10 9 -11 8 -5 -6z"/>
<path d="M752 2601 c10 -42 18 -90 18 -108 0 -33 12 -46 42 -48 22 -2 22 -4
-2 97 -23 98 -24 112 -7 102 8 -5 9 -4 2 3 -5 6 -24 15 -41 21 l-31 10 19 -77z
m32 4 c3 -8 1 -15 -4 -15 -6 0 -10 7 -10 15 0 8 2 15 4 15 2 0 6 -7 10 -15z"/>
<path d="M875 2670 c-6 -9 -1 -12 38 -24 6 -2 18 3 25 11 12 12 10 13 -12 7
-16 -4 -26 -2 -26 5 0 14 -17 14 -25 1z"/>
<path d="M1255 2671 c61 -3 126 -3 145 0 19 4 -30 6 -110 6 l-145 -1 110 -5z"/>
<path d="M1875 2670 c3 -5 11 -10 16 -10 6 0 7 5 4 10 -3 6 -11 10 -16 10 -6
0 -7 -4 -4 -10z"/>
<path d="M1725 2659 c-4 -6 -5 -12 -2 -15 2 -3 7 2 10 11 7 17 1 20 -8 4z"/>
<path d="M1790 2660 c0 -6 7 -10 15 -10 8 0 15 2 15 4 0 2 -7 6 -15 10 -8 3
-15 1 -15 -4z"/>
<path d="M1060 2650 c11 -7 7 -10 -20 -11 -31 -2 -32 -3 -7 -6 15 -2 25 -9 22
-14 -9 -14 0 -11 23 10 24 20 20 31 -12 31 -17 0 -18 -2 -6 -10z"/>
<path d="M1150 2640 c-9 -6 -10 -10 -3 -10 6 0 15 5 18 10 8 12 4 12 -15 0z"/>
<path d="M1181 2629 c-33 -20 -69 -19 -56 1 9 15 -11 12 -24 -4 -10 -12 -7
-15 16 -19 15 -3 39 -5 53 -5 19 -1 21 1 10 8 -11 7 -5 10 21 10 23 0 39 6 43
15 8 22 -22 19 -63 -6z"/>
<path d="M2232 2620 c0 -19 2 -27 5 -17 2 9 2 25 0 35 -3 9 -5 1 -5 -18z"/>
<path d="M2266 2590 c-27 -34 -46 -63 -43 -67 4 -3 9 2 13 11 3 9 11 13 17 9
5 -3 7 -1 4 4 -9 14 29 47 46 40 9 -3 14 5 15 29 2 19 1 34 0 34 -2 0 -25 -27
-52 -60z"/>
<path d="M2880 2606 c0 -2 7 -6 15 -10 8 -3 15 -1 15 4 0 6 -7 10 -15 10 -8 0
-15 -2 -15 -4z"/>
<path d="M650 2556 c0 -14 5 -28 12 -32 8 -5 9 -2 5 9 -8 22 1 22 25 0 10 -9
20 -14 23 -11 3 3 -10 17 -30 32 l-35 27 0 -25z"/>
<path d="M821 2564 c0 -11 3 -14 6 -6 3 7 2 16 -1 19 -3 4 -6 -2 -5 -13z"/>
<path d="M1790 2553 c0 -5 13 -8 30 -9 16 -1 27 3 24 7 -6 11 -54 12 -54 2z"/>
<path d="M1115 2540 c-4 -6 -11 -7 -17 -4 -6 4 -9 1 -6 -6 2 -7 14 -15 27 -17
17 -2 22 1 17 12 -4 11 1 15 18 15 14 0 26 -4 28 -9 2 -5 9 -3 16 5 11 12 6
14 -32 14 -25 0 -48 -5 -51 -10z"/>
<path d="M1735 2539 c-4 -6 -5 -12 -2 -15 2 -3 7 2 10 11 7 17 1 20 -8 4z"/>
<path d="M1765 2539 c-4 -6 -5 -12 -2 -15 2 -3 7 2 10 11 7 17 1 20 -8 4z"/>
<path d="M1205 2520 c-8 -13 -1 -24 14 -19 6 3 7 10 2 18 -6 10 -10 10 -16 1z"/>
<path d="M841 2494 c0 -11 3 -14 6 -6 3 7 2 16 -1 19 -3 4 -6 -2 -5 -13z"/>
<path d="M984 2474 c1 -16 7 -24 19 -24 22 0 22 5 -2 29 -18 18 -19 18 -17 -5z"/>
<path d="M1255 2461 c-3 -2 -33 -4 -67 -4 -58 0 -59 0 -18 -6 67 -9 230 -7
230 3 0 8 -138 15 -145 7z"/>
<path d="M1510 2454 c0 -8 69 -12 245 -12 211 -1 245 1 245 14 0 8 -5 12 -10
9 -6 -4 -41 -6 -78 -6 -347 6 -402 5 -402 -5z"/>
<path d="M410 2415 c14 -15 66 -69 116 -121 50 -52 89 -96 86 -99 -3 -3 2 -5
11 -5 10 0 17 -3 17 -7 0 -5 27 -37 60 -72 33 -35 60 -68 60 -73 0 -5 11 -13
25 -18 29 -11 31 -26 10 -56 -8 -12 -12 -24 -9 -26 3 -3 -4 -21 -15 -39 -11
-19 -51 -96 -89 -171 -38 -76 -72 -136 -75 -133 -4 3 -5 2 -3 -1 3 -3 -4 -23
-15 -42 -10 -20 -19 -41 -19 -47 -1 -13 -51 -113 -73 -145 -9 -13 -17 -28 -17
-33 0 -19 28 23 66 98 22 44 95 188 162 319 67 132 122 245 122 251 0 14 -40
52 -40 39 -1 -5 -6 1 -13 14 -18 31 -345 370 -371 384 -19 9 -18 8 4 -17z"/>
<path d="M700 2436 c-7 -6 -66 -14 -133 -17 -40 -2 -48 -6 -53 -26 -6 -23 28
-62 264 -298 45 -46 82 -89 82 -97 0 -7 -7 -24 -16 -36 -8 -12 -13 -22 -10
-22 2 0 -34 -75 -81 -167 -47 -93 -113 -222 -146 -288 -34 -66 -71 -137 -84
-157 -13 -21 -23 -44 -23 -51 0 -7 -6 -22 -14 -33 -14 -19 -15 -18 -24 5 -5
16 -18 25 -35 27 -15 1 -58 18 -96 38 -38 19 -71 33 -74 30 -7 -8 -89 17 -108
33 -8 7 -23 13 -32 13 -9 0 -22 9 -29 19 -20 28 -88 33 -88 6 0 -8 6 -12 14
-9 11 4 13 -1 10 -18 l-5 -23 17 23 17 23 11 -23 c6 -13 20 -24 31 -26 20 -3
50 -16 121 -49 31 -15 37 -15 45 -2 8 11 12 11 16 2 2 -7 10 -13 16 -13 6 0
18 -6 26 -14 9 -7 42 -21 74 -30 35 -10 57 -22 57 -31 0 -21 -16 -27 -42 -15
-17 8 -32 8 -53 -1 -17 -7 -34 -11 -40 -9 -5 1 -22 2 -37 2 -15 0 -30 3 -33 8
-3 5 -25 12 -50 15 -24 4 -52 16 -61 26 -9 10 -21 19 -26 19 -4 0 -31 16 -58
35 -41 29 -50 32 -50 18 0 -17 64 -70 102 -85 10 -4 18 -12 18 -17 0 -9 48
-26 64 -22 5 1 6 -6 2 -15 -5 -13 -2 -15 16 -10 44 14 53 12 52 -11 0 -12 3
-20 7 -17 4 2 10 -2 13 -8 4 -7 5 -4 3 8 -4 17 1 21 37 23 22 1 46 7 53 12 18
15 32 3 27 -24 l-5 -22 12 22 c6 12 19 23 29 26 16 4 17 1 10 -17 -15 -39 -75
-151 -83 -154 -4 -2 -5 -8 -1 -13 3 -5 0 -9 -5 -9 -6 0 -10 -3 -9 -8 2 -12
-28 -73 -34 -67 -6 6 -23 -44 -20 -57 1 -5 -3 -8 -8 -8 -6 0 -10 -6 -10 -12 0
-7 -10 -29 -22 -48 -12 -19 -23 -42 -24 -50 -2 -8 -8 -16 -13 -18 -6 -2 -11
-11 -11 -20 0 -9 -9 -28 -20 -42 -11 -14 -20 -33 -20 -43 0 -10 -4 -15 -10
-12 -5 3 -10 -3 -10 -15 0 -11 -7 -23 -15 -26 -8 -4 -12 -11 -8 -17 3 -6 1 -7
-5 -3 -13 8 -102 -162 -107 -206 -5 -33 6 -35 103 -14 50 10 64 10 73 0 14
-17 -8 -29 -46 -25 -25 3 -27 1 -16 -13 7 -9 17 -13 22 -11 13 9 49 -28 49
-51 0 -30 -10 -35 -34 -19 -29 21 -36 19 -36 -10 0 -14 -8 -29 -19 -35 -19
-10 -19 -11 -3 -42 9 -18 25 -39 34 -46 10 -7 18 -24 18 -36 0 -20 6 -25 35
-28 22 -2 34 0 32 6 -2 6 -9 12 -15 12 -7 1 -16 2 -22 3 -5 0 -10 6 -10 13 0
7 -11 28 -25 49 -23 32 -24 40 -14 63 12 26 39 36 39 15 0 -14 34 29 43 54 4
10 1 27 -5 37 -10 15 -10 27 -1 50 6 17 7 28 2 24 -5 -3 -9 -1 -9 5 0 15 10
18 70 26 75 8 158 23 197 34 20 6 35 6 38 0 4 -5 -4 -9 -17 -9 -13 -1 -34 -7
-48 -16 -25 -14 -25 -14 11 -8 34 5 38 3 47 -23 l10 -28 1 32 c2 54 25 62 246
89 33 4 69 9 80 10 153 25 161 27 188 53 16 14 49 68 73 120 41 87 44 96 32
127 -7 19 -15 34 -19 34 -4 0 -55 -12 -113 -26 -116 -27 -227 -34 -291 -16
-50 14 -91 53 -151 143 -48 72 -61 86 -72 74 -4 -4 -2 -10 5 -12 7 -2 22 -21
35 -41 84 -138 151 -188 253 -193 52 -2 203 21 238 36 9 4 24 4 33 1 10 -4 13
-2 8 6 -4 7 -3 8 4 4 17 -10 15 -26 -3 -26 -8 0 -14 -3 -13 -7 4 -12 -41 -100
-57 -113 -8 -7 -12 -16 -9 -21 7 -11 -45 -32 -62 -25 -8 3 -16 1 -18 -3 -7
-11 -55 -11 -61 0 -3 4 15 11 40 15 25 3 56 15 68 26 12 11 16 17 10 13 -44
-22 -275 -64 -518 -95 -106 -13 -158 -19 -167 -20 -5 0 -8 -4 -8 -10 0 -5 6
-7 12 -5 7 3 38 7 68 9 30 3 92 10 138 16 74 11 105 9 91 -5 -3 -2 -32 -7 -64
-10 -53 -4 -126 -16 -277 -43 -39 -7 -46 -6 -43 7 7 35 25 71 35 71 6 0 8 4 5
10 -8 14 26 70 38 63 6 -3 7 -1 3 5 -5 9 77 187 93 202 3 3 7 12 9 20 2 8 8
16 13 18 5 2 9 12 9 22 0 9 7 23 14 30 8 6 20 27 26 46 6 19 16 34 21 34 5 0
9 8 9 18 0 24 25 58 33 45 3 -5 -1 -22 -9 -38 -18 -35 -11 -45 9 -13 16 25 23
38 134 254 39 76 99 191 132 254 34 63 109 212 168 330 100 200 112 220 175
281 38 36 68 71 68 77 0 7 2 12 4 12 2 0 19 6 37 14 l34 14 2 -80 c2 -73 -1
-84 -24 -115 -24 -31 -25 -36 -11 -49 14 -14 19 -14 49 1 18 10 39 23 46 31
18 18 110 51 165 59 50 8 81 -4 133 -50 64 -57 196 -104 288 -105 22 0 54 -7
73 -16 49 -24 59 -67 45 -211 -7 -67 -8 -120 -2 -130 4 -10 18 -38 29 -63 30
-68 88 -130 120 -130 l27 1 -31 13 c-17 8 -44 31 -60 52 -16 22 -32 41 -35 44
-15 13 -39 109 -39 157 0 40 4 53 15 53 8 0 15 -8 15 -19 0 -22 38 -73 50 -66
5 3 11 1 14 -4 8 -12 106 -13 106 -1 0 6 9 10 20 10 11 0 20 4 20 9 0 5 19 22
43 38 24 15 44 32 45 36 3 14 29 36 36 30 3 -4 6 0 6 9 0 8 8 23 19 32 17 15
19 15 25 1 15 -41 -8 -181 -35 -210 -5 -5 -9 -20 -8 -35 l0 -25 11 25 c6 14
18 40 26 57 24 55 35 233 14 233 -9 0 -45 -34 -100 -94 -86 -94 -159 -123
-238 -94 -32 11 -32 12 -39 97 -7 103 -28 182 -52 203 -12 10 -47 17 -108 21
-49 3 -113 12 -142 20 -50 13 -67 23 -178 103 -47 34 -53 36 -105 30 -70 -8
-132 -31 -195 -73 -53 -35 -73 -28 -35 12 20 22 22 32 18 90 -5 55 -3 69 14
91 11 14 18 28 15 31 -4 3 -38 -2 -76 -12 -78 -19 -171 -70 -212 -116 -27 -30
-44 -79 -28 -79 5 0 9 7 9 15 0 8 5 15 10 15 6 0 9 4 8 10 -5 17 101 107 116
97 1 -1 10 4 19 12 10 7 17 10 17 6 0 -4 -31 -38 -69 -75 -58 -57 -78 -87
-131 -194 -34 -69 -66 -129 -71 -132 -5 -3 -9 -14 -9 -25 0 -11 -11 -31 -25
-44 -13 -14 -20 -25 -14 -25 6 0 7 -5 4 -10 -4 -6 -11 -8 -16 -5 -5 3 -6 -2
-2 -11 4 -12 3 -15 -5 -10 -8 5 -10 2 -6 -8 3 -9 1 -16 -5 -16 -6 0 -11 -6
-11 -13 0 -7 -11 -37 -25 -65 -14 -29 -25 -56 -25 -62 0 -5 -4 -10 -10 -10 -5
0 -10 -7 -10 -15 0 -8 -4 -15 -9 -15 -5 0 -12 -12 -16 -27 -3 -15 -10 -30 -14
-33 -4 -3 -22 -38 -41 -77 -23 -50 -37 -69 -43 -60 -6 8 -7 7 -4 -4 6 -20 -36
-109 -60 -127 -9 -6 -14 -12 -10 -12 4 0 2 -10 -5 -22 -13 -24 -15 -29 -17
-50 -1 -9 -4 -9 -12 -1 -7 7 -3 26 17 64 14 30 29 56 33 59 3 3 6 10 6 15 0
19 48 104 56 99 5 -3 6 1 3 9 -3 8 -1 18 5 22 6 3 11 15 11 26 0 10 5 19 10
19 6 0 10 7 10 15 0 8 5 15 10 15 6 0 10 6 10 13 0 16 61 136 89 176 12 17 19
35 16 41 -3 5 -3 10 2 10 4 0 21 27 37 60 16 32 34 56 39 53 6 -3 7 -1 3 5 -8
14 20 72 35 72 6 0 8 4 5 9 -3 5 10 43 30 85 51 108 49 135 -17 202 -29 29
-57 50 -62 47 -6 -3 -7 -1 -3 5 7 12 -120 143 -136 139 -6 -1 -13 4 -15 11 -3
8 5 12 22 12 14 0 24 -3 22 -7 -3 -5 407 -8 911 -8 505 0 933 -3 952 -6 60 -9
129 -48 147 -83 22 -40 33 -132 22 -171 -78 -271 -188 -463 -306 -535 -29 -18
-53 -34 -53 -36 0 -7 54 9 67 20 47 39 93 86 93 96 0 6 5 8 10 5 6 -3 10 0 10
8 0 8 9 22 20 32 11 10 20 24 20 32 0 7 5 13 10 13 6 0 10 6 10 13 0 15 42
101 53 105 4 2 7 13 7 23 0 11 4 18 9 15 5 -3 9 0 8 7 -1 35 4 58 12 53 5 -3
9 0 8 7 -1 30 4 48 11 43 5 -3 9 7 9 22 0 30 21 112 29 112 2 0 2 -12 -2 -27
-4 -22 -3 -25 5 -13 9 12 11 9 12 -15 1 -16 4 -59 7 -95 9 -106 7 -293 -2
-315 -5 -11 -11 -31 -13 -45 -2 -14 -11 -30 -20 -37 -9 -7 -13 -19 -9 -28 3
-9 2 -13 -4 -10 -6 3 -10 -2 -10 -13 0 -24 -67 -119 -150 -213 -77 -87 -161
-169 -173 -169 -4 0 -5 -4 -2 -10 3 -5 -1 -10 -10 -10 -9 0 -13 -4 -10 -10 3
-5 2 -10 -3 -10 -17 0 -187 -175 -184 -190 2 -8 25 -61 53 -117 27 -56 55
-126 63 -155 7 -28 15 -45 18 -37 3 7 9 11 13 6 14 -13 -12 -32 -27 -20 -12
10 -271 21 -570 24 -65 1 -105 5 -102 11 8 13 -16 68 -30 68 -6 0 -20 11 -30
25 -10 13 -22 22 -27 19 -5 -3 -9 1 -9 8 0 9 -3 9 -10 -2 -5 -8 -10 -11 -10
-6 0 5 -9 -1 -20 -14 -22 -25 -26 -35 -10 -25 6 3 10 0 10 -7 0 -13 73 -174
83 -185 8 -8 773 -15 825 -8 32 5 45 12 51 28 5 12 5 24 1 27 -4 3 -11 16 -15
30 -4 14 -31 75 -60 135 -83 171 -85 182 -53 228 22 32 28 38 107 105 44 37
104 98 204 204 66 71 158 206 186 273 30 74 53 172 57 242 3 72 8 85 30 76 13
-5 13 -8 2 -15 -9 -7 -8 -8 5 -4 10 3 23 6 28 6 21 0 7 22 -20 31 -28 10 -29
13 -36 100 -6 72 -10 89 -23 89 -10 0 -13 3 -6 10 12 12 5 92 -7 84 -5 -3 -9
-1 -9 5 0 5 5 11 11 13 5 2 7 11 4 21 -4 9 -10 15 -14 13 -3 -2 -7 14 -7 36
-1 26 -9 46 -23 59 -11 11 -21 29 -21 40 0 11 -15 34 -32 51 -63 58 -78 61
-373 65 -329 4 -327 4 -344 17 -11 8 -13 8 -7 -1 5 -10 -113 -12 -571 -8 -318
2 -600 5 -628 7 -27 1 -61 1 -75 0 -14 -1 -43 1 -65 4 -22 3 -42 3 -45 0z
m1994 -57 c26 -5 61 -18 76 -29 57 -40 100 -198 120 -439 22 -250 -11 -386
-132 -557 -61 -88 -208 -244 -311 -331 -143 -122 -146 -139 -47 -343 38 -80
72 -156 75 -170 l6 -25 -421 3 -422 2 -44 96 c-25 53 -44 98 -42 100 2 2 13 1
23 -2 12 -3 36 -35 59 -80 l40 -74 372 0 373 0 -20 58 c-11 31 -46 113 -78
182 l-58 125 207 205 c234 232 302 322 354 468 28 81 30 97 30 222 0 202 -39
392 -99 482 -47 71 -24 68 -653 79 -312 5 -774 9 -1026 7 l-459 -3 162 -168
c88 -92 161 -172 161 -178 0 -13 -125 -263 -255 -509 -187 -356 -557 -1081
-553 -1085 2 -2 85 9 183 25 99 15 288 45 420 65 181 27 243 41 253 53 8 9 31
52 53 95 29 57 44 77 59 77 11 0 20 -2 20 -4 0 -12 -100 -203 -111 -213 -17
-14 -62 -22 -409 -73 -453 -67 -535 -80 -538 -90 -2 -6 -12 -10 -23 -10 -13 0
-17 5 -12 16 4 11 8 12 13 4 10 -17 18 -4 130 220 56 113 126 250 155 305 241
458 566 1105 563 1120 -2 7 -85 97 -185 199 -101 103 -183 188 -183 191 0 9
2127 -7 2174 -16z m179 -149 c3 -11 1 -18 -4 -14 -5 3 -9 12 -9 20 0 20 7 17
13 -6z m-823 -450 c0 -5 -4 -10 -10 -10 -5 0 -10 5 -10 10 0 6 5 10 10 10 6 0
10 -4 10 -10z m-4 -78 c-12 -11 -17 7 -9 34 l8 29 3 -28 c2 -16 1 -31 -2 -35z
m-1226 -1146 c0 -15 -68 -28 -76 -14 -3 4 5 8 18 8 13 0 30 5 38 10 19 13 20
12 20 -4z m-90 -15 c0 -5 -14 -11 -31 -15 -43 -8 -59 -8 -59 3 0 5 14 9 30 9
17 -1 33 2 37 5 9 10 23 9 23 -2z m-105 -22 c-4 -6 -13 -8 -21 -5 -8 3 -14 0
-14 -6 0 -6 -3 -9 -6 -5 -10 10 6 27 27 27 12 0 17 -4 14 -11z"/>
<path d="M58 2363 c7 -3 16 -2 19 1 4 3 -2 6 -13 5 -11 0 -14 -3 -6 -6z"/>
<path d="M2965 2350 c4 -6 11 -8 16 -5 14 9 11 15 -7 15 -8 0 -12 -5 -9 -10z"/>
<path d="M53 2310 c14 -11 28 -20 32 -20 4 0 -4 9 -18 20 -14 11 -28 20 -32
20 -4 0 4 -9 18 -20z"/>
<path d="M2850 2301 c0 -6 4 -13 10 -16 6 -3 7 1 4 9 -7 18 -14 21 -14 7z"/>
<path d="M1951 2258 c-6 -10 -11 -29 -11 -43 0 -14 -4 -33 -9 -43 -5 -9 -16
-43 -25 -74 -14 -47 -15 -61 -4 -78 12 -18 20 -20 78 -16 43 4 60 2 50 -4 -9
-6 -10 -10 -3 -10 6 0 14 3 17 8 2 4 69 7 148 6 79 0 149 4 156 9 7 6 17 6 25
0 19 -14 64 -16 86 -3 15 8 27 8 42 -1 12 -6 36 -8 55 -4 28 5 38 14 54 48 22
49 27 77 18 93 -4 6 3 26 17 43 24 34 25 68 3 83 -21 13 -96 9 -101 -4 -3 -10
-7 -10 -18 -1 -18 14 -436 16 -445 2 -4 -6 -11 -6 -19 1 -21 18 -101 9 -114
-12z m114 -7 c3 -6 -3 -36 -14 -68 -10 -32 -25 -82 -32 -110 -9 -40 -17 -53
-31 -53 -22 0 -22 6 -3 59 11 32 11 41 1 41 -7 0 -18 -22 -25 -50 -10 -38 -17
-50 -32 -50 -10 0 -19 1 -19 3 0 1 14 45 29 97 16 52 25 96 20 98 -5 2 -4 12
1 23 8 14 22 19 55 19 24 0 46 -4 50 -9z m60 -32 c-19 -53 -19 -58 4 -56 11 0
17 5 14 9 -2 5 -2 27 2 48 5 31 11 40 27 40 17 0 19 -4 14 -26 -4 -15 -10 -39
-13 -55 -3 -16 -10 -29 -15 -29 -6 0 -8 -6 -6 -12 9 -23 -28 -113 -47 -116
-15 -3 -17 1 -11 25 4 15 15 40 26 54 18 26 18 26 -2 25 -17 -1 -25 -12 -36
-53 -11 -41 -19 -53 -34 -53 -12 0 -18 5 -15 13 2 6 16 55 31 107 15 52 29
101 31 108 3 6 13 12 24 12 19 0 19 -2 6 -41z m158 22 c-4 -14 -13 -18 -44
-17 -21 0 -39 1 -39 3 0 21 18 33 50 33 32 0 37 -3 33 -19z m113 5 c3 -8 -8
-61 -24 -118 -24 -84 -33 -104 -50 -106 -20 -3 -19 0 9 90 37 121 37 122 -6
115 -32 -5 -34 -4 -25 14 13 23 87 28 96 5z m128 6 c8 -13 -54 -206 -70 -219
-21 -16 -68 -9 -72 10 -2 9 7 49 19 89 12 40 22 80 21 88 -1 33 8 40 52 40 25
0 47 -4 50 -8z m122 -8 c-3 -9 -6 -19 -6 -24 0 -12 -29 -40 -41 -40 -5 0 -7
11 -3 25 4 15 2 25 -4 25 -6 0 -14 -16 -18 -34 -3 -19 -11 -37 -18 -39 -6 -3
1 -3 16 -1 37 5 42 -8 27 -67 -10 -39 -19 -53 -38 -61 -34 -13 -75 -2 -67 18
3 9 6 22 6 30 0 8 9 14 21 14 14 0 19 -5 16 -15 -6 -15 8 -31 16 -18 3 5 8 23
12 42 7 33 6 33 -19 27 -31 -8 -31 -6 -10 65 21 72 19 69 71 69 37 0 44 -3 39
-16z m-396 -36 c0 -7 -9 -42 -20 -78 -12 -41 -16 -66 -9 -70 22 -14 -3 -37
-41 -37 -31 0 -37 3 -32 16 3 9 11 21 17 26 7 6 20 39 30 75 10 36 20 68 22
73 7 12 33 8 33 -5z m86 -5 c-3 -10 -15 -53 -27 -97 -20 -70 -39 -99 -55 -83
-6 6 32 148 48 180 5 9 16 17 24 17 10 0 14 -6 10 -17z"/>
<path d="M1989 2221 c9 -6 11 -18 6 -40 -9 -42 12 -41 23 2 11 39 7 47 -21 47
-16 0 -18 -3 -8 -9z"/>
<path d="M2449 2221 c11 -7 10 -20 -8 -79 -24 -79 -24 -82 -12 -82 8 0 51 132
51 158 0 6 -10 12 -22 12 -17 0 -19 -3 -9 -9z"/>
<path d="M2950 2231 c0 -6 4 -13 10 -16 6 -3 7 1 4 9 -7 18 -14 21 -14 7z"/>
<path d="M86 2198 c3 -5 10 -6 15 -3 13 9 11 12 -6 12 -8 0 -12 -4 -9 -9z"/>
<path d="M231 2194 c0 -11 3 -14 6 -6 3 7 2 16 -1 19 -3 4 -6 -2 -5 -13z"/>
<path d="M1175 2125 c-16 -13 -42 -27 -57 -31 -16 -3 -28 -9 -28 -14 0 -11 57
5 76 21 20 16 28 5 19 -28 -6 -26 -8 -26 -19 -10 -17 23 -25 22 -19 -3 3 -11
0 -27 -7 -35 -23 -28 8 -16 39 16 24 24 31 39 31 70 0 21 -1 39 -2 39 -2 -1
-16 -12 -33 -25z"/>
<path d="M260 1999 c0 -5 5 -7 10 -4 6 3 10 8 10 11 0 2 -4 4 -10 4 -5 0 -10
-5 -10 -11z"/>
<path d="M2969 1947 c-5 -9 -7 -57 -2 -57 7 0 32 32 33 41 0 6 -29 21 -31 16z"/>
<path d="M2760 1903 c-5 -24 -6 -28 -48 -136 -41 -107 -108 -202 -182 -259
-46 -35 -144 -86 -172 -90 -13 -2 -26 -7 -29 -12 -4 -5 -19 -8 -34 -8 -15 0
-36 -9 -46 -19 -56 -56 -48 -287 13 -353 11 -12 19 -10 54 9 23 13 52 34 66
46 61 57 82 74 90 74 4 0 8 5 8 10 1 18 73 84 84 78 6 -3 8 -3 4 2 -6 6 40 76
63 95 3 3 17 22 31 42 13 21 28 36 31 33 4 -3 5 -2 2 2 -3 3 4 20 14 37 71
116 102 229 99 366 -1 48 -3 63 -5 35 -12 -201 -43 -302 -134 -436 -37 -55
-159 -200 -209 -249 -71 -69 -176 -144 -190 -135 -4 3 -16 28 -26 57 -13 39
-15 73 -12 147 3 54 9 105 15 116 6 11 33 24 64 32 142 36 291 143 363 262 43
70 98 217 93 245 -2 12 -5 15 -7 9z"/>
<path d="M1340 1850 c0 -5 -23 -10 -50 -10 -48 0 -170 -29 -170 -40 1 -3 20
-17 43 -32 l41 -26 42 24 c22 13 56 24 75 24 26 0 30 3 19 10 -19 13 -63 4
-105 -21 -30 -18 -34 -18 -48 -4 -9 8 -22 15 -29 15 -7 1 0 8 15 16 16 9 35
13 43 10 7 -3 16 -1 19 4 10 16 143 6 161 -12 20 -19 11 -38 -14 -31 -11 3
-31 -7 -50 -25 -41 -38 -44 -88 -8 -124 23 -23 29 -24 93 -17 37 5 75 8 83 9
13 0 13 1 0 10 -8 5 -44 8 -80 6 -72 -4 -100 10 -100 49 0 27 46 75 71 75 10
0 33 -9 51 -20 18 -11 39 -20 47 -20 18 0 81 -48 81 -61 0 -5 -12 -15 -27 -21
-23 -9 -25 -12 -10 -15 10 -3 24 3 32 13 12 17 13 17 30 1 27 -27 132 -97 170
-113 41 -17 63 -10 76 23 12 32 12 83 -1 83 -5 0 -10 -17 -10 -37 0 -51 -12
-67 -43 -59 -26 6 -138 87 -298 216 -110 88 -149 114 -149 100z m105 -80 c3
-5 1 -10 -4 -10 -6 0 -11 5 -11 10 0 6 2 10 4 10 3 0 8 -4 11 -10z"/>
<path d="M365 1840 c-3 -5 -1 -10 4 -10 6 0 11 5 11 10 0 6 -2 10 -4 10 -3 0
-8 -4 -11 -10z"/>
<path d="M21 1714 c0 -11 3 -14 6 -6 3 7 2 16 -1 19 -3 4 -6 -2 -5 -13z"/>
<path d="M1480 1695 c-7 -8 -10 -22 -6 -30 9 -25 21 -17 22 15 1 35 1 35 -16
15z"/>
<path d="M2945 1670 c-3 -5 -1 -10 4 -10 6 0 11 5 11 10 0 6 -2 10 -4 10 -3 0
-8 -4 -11 -10z"/>
<path d="M2350 1645 c-12 -13 -26 -22 -30 -20 -4 3 -13 -1 -19 -8 -20 -25 -85
-39 -159 -35 -77 3 -96 -7 -34 -18 48 -9 167 11 206 36 37 22 84 70 69 70 -5
0 -20 -11 -33 -25z"/>
<path d="M2940 1635 c-1 -11 -2 -24 -1 -29 1 -4 -2 -13 -7 -20 -5 -6 -15 -29
-22 -51 -17 -54 -74 -159 -121 -222 -21 -29 -39 -54 -39 -57 0 -3 10 -11 23
-17 17 -9 20 -9 10 1 -13 14 0 48 25 63 6 4 12 12 12 18 0 5 11 22 25 37 14
15 25 30 25 34 0 4 11 31 24 60 36 81 58 155 53 180 -4 21 -5 21 -7 3z"/>
<path d="M2378 1603 c-13 -32 -52 -88 -110 -158 -5 -5 -15 -19 -22 -29 -13
-19 -16 -18 -64 23 -28 23 -62 55 -74 70 -31 36 -45 44 -54 30 -4 -8 -3 -9 4
-5 7 4 12 2 12 -3 0 -13 89 -101 102 -101 5 0 6 -5 2 -12 -4 -6 -3 -8 3 -5 6
4 16 0 23 -8 25 -30 50 -15 100 55 13 19 30 41 37 48 25 26 65 102 61 117 -2
10 -10 1 -20 -22z"/>
<path d="M68 1613 c7 -3 16 -2 19 1 4 3 -2 6 -13 5 -11 0 -14 -3 -6 -6z"/>
<path d="M1395 1585 c-77 -13 -225 -36 -330 -50 -235 -34 -262 -44 -125 -44
77 0 135 6 215 24 196 45 307 67 310 63 2 -2 -71 -31 -163 -63 -129 -46 -160
-61 -136 -63 18 -2 56 8 90 23 32 15 86 37 119 50 33 12 85 34 115 48 30 13
62 27 70 30 30 11 -26 5 -165 -18z"/>
<path d="M100 1589 c0 -5 5 -7 10 -4 6 3 10 8 10 11 0 2 -4 4 -10 4 -5 0 -10
-5 -10 -11z"/>
<path d="M50 1506 c0 -2 7 -9 15 -16 9 -7 15 -8 15 -2 0 5 -7 12 -15 16 -8 3
-15 4 -15 2z"/>
<path d="M140 1429 c0 -5 5 -7 10 -4 6 3 10 8 10 11 0 2 -4 4 -10 4 -5 0 -10
-5 -10 -11z"/>
<path d="M336 1411 c-15 -6 -16 -10 -7 -15 8 -5 20 -2 29 8 17 17 9 19 -22 7z"/>
<path d="M280 1369 c0 -5 5 -7 10 -4 6 3 10 8 10 11 0 2 -4 4 -10 4 -5 0 -10
-5 -10 -11z"/>
<path d="M2185 1347 c-18 -28 -39 -168 -30 -205 3 -15 8 -40 11 -56 6 -34 53
-130 60 -123 3 3 -2 19 -10 36 -19 36 -20 45 -4 35 7 -4 8 -3 4 5 -4 6 -11 9
-16 6 -34 -21 -33 270 1 311 6 8 9 14 5 14 -3 0 -12 -10 -21 -23z"/>
<path d="M848 1347 c29 -13 28 -43 -4 -92 -42 -64 -74 -94 -108 -101 -46 -10
-49 -14 -24 -33 54 -42 132 -71 276 -102 105 -23 180 -21 282 6 64 17 203 20
281 5 106 -20 185 -75 210 -145 18 -48 29 -44 18 6 -27 119 -73 149 -270 175
-136 17 -174 31 -183 68 -3 14 -14 27 -24 30 -9 3 -40 29 -67 57 -82 84 -216
137 -345 137 -53 0 -61 -2 -42 -11z m147 -33 c14 -15 25 -31 25 -35 0 -5 19
-6 43 -3 36 5 46 2 70 -20 15 -14 36 -26 45 -26 22 0 36 -10 48 -33 6 -10 26
-25 45 -35 42 -21 48 -51 16 -87 -32 -37 -57 -29 -57 20 0 40 -12 45 -34 14
-8 -11 -24 -28 -35 -36 -22 -15 -22 -14 -15 51 5 45 3 66 -4 66 -6 0 -34 -22
-61 -50 -65 -65 -86 -66 -78 -5 4 25 9 56 13 70 10 40 -9 30 -65 -35 -50 -57
-81 -75 -81 -47 0 18 29 189 32 192 40 31 64 30 93 -1z m43 -9 c-3 -3 -9 2
-12 12 -6 14 -5 15 5 6 7 -7 10 -15 7 -18z m-175 -92 c-5 -16 -7 -56 -7 -89
l1 -62 -60 28 c-69 31 -79 45 -43 54 13 3 42 26 63 51 44 51 57 56 46 18z
m127 -47 c-15 -40 -12 -83 6 -90 21 -8 51 9 102 57 45 44 51 40 27 -16 -22
-52 -19 -67 11 -67 15 0 38 12 56 31 l31 30 -6 -30 c-4 -19 -2 -31 6 -34 27
-10 -5 -18 -85 -23 -75 -4 -88 -2 -112 17 -20 16 -35 20 -60 15 -36 -7 -86 7
-86 23 0 6 13 17 28 25 16 8 41 33 57 55 31 46 41 48 25 7z m365 -86 c3 -5 16
-10 28 -11 21 0 21 -1 2 -9 -26 -11 -75 -12 -75 -2 0 10 22 32 31 32 4 0 11
-4 14 -10z m350 -80 c8 -13 -5 -13 -25 0 -13 8 -13 10 2 10 9 0 20 -4 23 -10z"/>
<path d="M907 1247 c-4 -29 -10 -69 -13 -88 l-7 -34 21 19 c17 15 19 22 11 33
-9 10 -5 25 20 64 17 28 31 52 31 55 0 2 -13 4 -29 4 -27 0 -29 -3 -34 -53z"/>
<path d="M1028 1183 c-8 -38 -14 -70 -12 -71 8 -10 29 16 31 38 1 14 4 42 8
63 10 64 -11 40 -27 -30z"/>
<path d="M1155 1210 c-4 -6 -1 -17 5 -25 8 -9 10 -28 6 -47 -6 -30 -6 -31 13
-14 18 16 18 20 4 54 -18 45 -19 46 -28 32z"/>
<path d="M1245 1129 c-10 -30 0 -33 13 -4 6 14 7 25 2 25 -5 0 -12 -9 -15 -21z"/>
<path d="M930 1100 c-24 -19 -24 -20 -4 -20 13 0 24 8 27 20 3 11 4 20 4 20
-1 0 -13 -9 -27 -20z"/>
<path d="M1051 1079 c-21 -17 -22 -22 -10 -30 19 -12 32 -11 24 2 -4 5 1 19
11 30 23 25 6 24 -25 -2z"/>
<path d="M466 1293 c-6 -14 -5 -15 5 -6 7 7 10 15 7 18 -3 3 -9 -2 -12 -12z"/>
<path d="M2933 1285 c-17 -7 -35 -10 -39 -7 -4 4 -4 1 0 -5 5 -9 0 -13 -13
-13 -14 0 -21 -6 -21 -19 0 -15 -6 -19 -30 -17 l-31 2 21 -20 20 -21 23 27
c26 32 85 68 110 68 9 0 17 5 17 10 0 13 -19 12 -57 -5z"/>
<path d="M1913 1257 c-18 -7 -40 -19 -48 -28 -15 -14 -15 -20 -1 -50 14 -33
14 -33 15 -7 1 15 6 30 11 33 6 4 8 10 5 15 -3 5 0 12 6 16 8 5 9 3 4 -5 -5
-9 0 -12 20 -9 25 3 32 -4 62 -57 35 -60 35 -60 29 -22 -8 62 -37 127 -55 126
-9 0 -30 -6 -48 -12z m70 -38 l6 -21 -20 21 c-11 11 -27 21 -37 21 -14 0 -15
2 -3 9 20 13 47 -3 54 -30z"/>
<path d="M2600 1101 c-58 -58 -131 -129 -163 -156 -45 -40 -57 -57 -57 -80 0
-17 29 -90 65 -164 55 -112 105 -237 105 -260 0 -3 -80 -5 -177 -3 -128 2
-173 -1 -161 -8 22 -13 328 -14 341 -1 17 17 -33 173 -84 264 -87 156 -91 182
-35 230 21 17 61 53 88 80 28 26 55 47 61 47 6 0 8 2 5 5 -3 3 19 29 49 58 54
53 90 98 76 96 -5 -1 -55 -49 -113 -108z"/>
<path d="M50 1136 c7 -7 13 -7 20 0 6 6 3 10 -10 10 -13 0 -16 -4 -10 -10z"/>
<path d="M2975 1133 c-34 -7 -75 -25 -75 -34 0 -4 16 -1 35 7 20 8 40 12 45 9
5 -3 12 0 15 6 9 14 5 16 -20 12z"/>
<path d="M360 1101 c0 -5 -3 -18 -6 -28 -5 -16 -4 -16 10 1 18 23 20 36 6 36
-5 0 -10 -4 -10 -9z"/>
<path d="M2822 1020 c0 -14 2 -19 5 -12 2 6 2 18 0 25 -3 6 -5 1 -5 -13z"/>
<path d="M2144 1018 c-10 -16 -5 -69 7 -84 7 -8 -2 -31 -24 -68 -28 -47 -50
-67 -128 -117 -101 -66 -155 -93 -168 -85 -5 3 -11 23 -15 45 -3 22 -11 43
-16 46 -13 8 -109 -23 -131 -41 -20 -18 -36 -18 -46 -1 -22 37 -159 88 -298
112 -138 23 -161 21 -180 -16 -9 -17 -14 -36 -11 -42 3 -8 5 -6 6 3 1 23 37
61 52 56 7 -3 45 -7 83 -10 85 -7 115 -13 163 -30 21 -8 61 -23 90 -34 30 -10
68 -33 86 -49 31 -30 31 -30 56 -11 14 10 47 25 72 33 l47 14 11 -55 c11 -50
14 -54 33 -48 80 24 270 150 298 197 13 22 40 50 59 63 19 13 31 24 26 24 -5
0 -3 7 4 15 11 13 10 14 -2 10 -10 -4 -20 7 -33 35 -21 47 -30 55 -41 38z m21
-39 c-3 -3 4 -15 14 -26 11 -12 16 -25 11 -33 -11 -18 -40 28 -40 65 0 22 3
26 9 15 6 -8 8 -17 6 -21z"/>
<path d="M2915 920 l-25 -26 30 -33 c17 -18 30 -38 30 -45 0 -7 12 -18 26 -25
14 -6 24 -8 22 -4 -2 5 -10 25 -18 46 -8 21 -19 36 -25 33 -14 -5 -38 31 -30
44 3 5 15 7 27 5 21 -5 48 10 48 26 0 18 -62 3 -85 -21z"/>
<path d="M436 912 c-4 -12 -12 -19 -18 -16 -6 4 -8 3 -5 -3 3 -5 -32 -87 -78
-181 -47 -94 -85 -176 -85 -182 0 -5 -4 -10 -8 -10 -5 0 -9 -7 -9 -15 0 -9 4
-12 8 -8 17 18 210 416 206 427 -2 6 -7 1 -11 -12z"/>
<path d="M470 912 c0 -42 35 -115 77 -162 52 -58 120 -94 208 -109 72 -13 218
-10 204 3 -5 6 -46 9 -92 7 -138 -4 -245 34 -312 111 -37 42 -67 106 -67 140
1 10 -3 20 -9 23 -5 4 -9 -2 -9 -13z"/>
<path d="M225 829 c-4 -6 -5 -12 -2 -15 2 -3 7 2 10 11 7 17 1 20 -8 4z"/>
<path d="M2980 750 c-7 -13 -8 -33 -4 -53 8 -31 8 -31 15 18 7 58 5 65 -11 35z"/>
<path d="M177 743 c-4 -3 -7 -11 -7 -17 0 -6 5 -5 12 2 6 6 9 14 7 17 -3 3 -9
2 -12 -2z"/>
<path d="M1180 721 c-14 -27 -13 -34 3 -19 8 7 14 18 14 25 0 18 -5 16 -17 -6z"/>
<path d="M1425 720 c3 -5 8 -10 11 -10 2 0 4 5 4 10 0 6 -5 10 -11 10 -5 0 -7
-4 -4 -10z"/>
<path d="M1470 701 c0 -6 5 -11 10 -11 6 0 10 -9 10 -19 0 -11 5 -23 11 -27 6
-3 9 -17 6 -30 -2 -13 -1 -25 3 -26 4 -2 23 -35 43 -74 39 -77 59 -99 82 -90
8 3 26 0 40 -6 18 -8 48 -8 112 -1 59 8 90 8 94 1 4 -7 9 -6 13 1 10 15 71 14
96 -1 17 -11 22 -10 29 0 5 8 23 11 52 9 24 -2 62 0 84 3 22 4 -92 8 -253 9
l-293 1 -55 114 c-30 63 -54 119 -54 124 0 5 -7 15 -15 22 -10 9 -15 9 -15 1z"/>
<path d="M2975 642 c-11 -10 -22 -33 -24 -52 -2 -20 -15 -48 -32 -68 -28 -32
-33 -52 -29 -120 1 -30 -1 -33 -19 -27 -12 4 -21 2 -21 -4 0 -6 6 -11 13 -11
8 0 9 -3 1 -8 -6 -4 -10 -14 -9 -22 2 -14 -25 -49 -34 -42 -2 2 -12 -9 -22
-25 -10 -15 -19 -24 -19 -19 0 5 -7 2 -17 -5 -9 -8 -32 -15 -52 -16 -110 -4
-173 -13 -186 -23 -20 -17 -19 -70 4 -127 10 -26 16 -54 14 -60 -3 -8 4 -13
19 -12 13 0 17 3 10 6 -9 3 -5 12 14 30 27 25 27 46 -1 23 -13 -10 -18 -5 -35
36 -36 82 -32 85 94 90 116 5 171 21 181 55 4 11 17 27 31 35 13 9 24 24 24
34 0 9 9 25 20 35 18 16 20 26 14 72 -6 52 -5 55 30 89 30 29 36 42 36 77 0
24 5 48 12 55 19 19 5 22 -17 4z"/>
<path d="M1110 584 c-46 -107 -86 -136 -205 -149 -63 -6 -68 -8 -50 -21 10 -8
21 -10 24 -6 7 10 131 31 125 21 -2 -4 3 -10 12 -13 28 -11 35 -7 25 12 -7 14
-5 21 10 30 10 7 19 18 19 26 0 17 29 42 55 49 16 4 17 5 3 6 -22 1 -23 13 -2
52 8 17 13 33 10 36 -3 3 -15 -16 -26 -43z"/>
<path d="M2 596 c4 -24 65 -59 87 -51 12 5 4 12 -29 27 -25 11 -49 26 -53 32
-5 7 -7 4 -5 -8z"/>
<path d="M96 587 c3 -10 9 -15 12 -12 3 3 0 11 -7 18 -10 9 -11 8 -5 -6z"/>
<path d="M1325 560 c-3 -6 1 -7 9 -4 18 7 21 14 7 14 -6 0 -13 -4 -16 -10z"/>
<path d="M1430 560 c0 -5 7 -7 15 -4 8 4 15 8 15 10 0 2 -7 4 -15 4 -8 0 -15
-4 -15 -10z"/>
<path d="M1205 410 c-16 -18 -17 -23 -5 -30 8 -6 20 -10 25 -10 6 0 4 4 -4 9
-7 5 -10 14 -7 20 10 15 43 14 49 -1 4 -10 6 -10 6 0 1 6 8 12 17 12 30 0 5
16 -29 18 -23 2 -39 -4 -52 -18z"/>
<path d="M1466 417 c-16 -12 -13 -13 24 -13 36 0 39 2 24 13 -22 16 -26 16
-48 0z"/>
<path d="M724 394 c3 -9 6 -20 6 -25 0 -20 18 -7 22 16 4 20 1 25 -14 25 -14
0 -18 -5 -14 -16z"/>
<path d="M2107 403 c-12 -12 -7 -22 8 -17 8 4 15 10 15 15 0 11 -14 12 -23 2z"/>
<path d="M1874 386 c-4 -10 -2 -22 5 -29 6 -6 11 -24 11 -39 0 -22 -5 -28 -22
-28 -20 0 -61 -4 -98 -9 -5 0 -10 -4 -10 -8 0 -5 35 -7 77 -7 60 2 77 5 74 15
-2 8 -8 37 -13 64 -11 58 -15 64 -24 41z"/>
<path d="M1326 350 c8 -56 14 -64 14 -19 0 19 -5 41 -10 49 -7 10 -8 1 -4 -30z"/>
<path d="M1783 355 c0 -22 2 -30 4 -17 2 12 2 30 0 40 -3 9 -5 -1 -4 -23z"/>
<path d="M625 370 c-6 -10 11 -50 22 -50 3 0 4 3 0 6 -3 4 0 13 8 21 8 8 15
19 15 24 0 12 -37 12 -45 -1z"/>
<path d="M957 373 c-3 -5 -1 -17 4 -28 7 -17 8 -17 8 8 1 27 -4 34 -12 20z"/>
<path d="M1430 380 c-1 -3 -3 -20 -5 -38 -2 -22 1 -30 7 -24 5 5 8 22 5 38 -2
16 -5 27 -7 24z"/>
<path d="M1554 318 c1 -46 4 -52 24 -53 31 -2 37 11 9 19 -20 5 -22 11 -19 40
2 18 0 36 -5 39 -6 4 -9 -16 -9 -45z"/>
<path d="M1651 333 c0 -23 -4 -50 -8 -60 -3 -10 -3 -15 2 -11 4 4 14 3 22 -4
11 -9 13 -5 11 25 -1 21 -5 37 -9 37 -4 0 -10 12 -12 28 -3 19 -4 15 -6 -15z"/>
<path d="M850 350 c0 -5 5 -10 11 -10 5 0 7 5 4 10 -3 6 -8 10 -11 10 -2 0 -4
-4 -4 -10z"/>
<path d="M571 333 c-1 -12 -7 -23 -13 -26 -10 -3 -10 -7 -1 -17 9 -10 13 -8
18 13 4 14 5 32 2 39 -3 7 -6 3 -6 -9z"/>
<path d="M735 340 c3 -5 8 -10 11 -10 2 0 4 5 4 10 0 6 -5 10 -11 10 -5 0 -7
-4 -4 -10z"/>
<path d="M1093 328 c-2 -16 1 -18 10 -9 7 7 8 14 1 21 -6 6 -10 2 -11 -12z"/>
<path d="M1195 340 c-3 -5 -1 -10 4 -10 6 0 11 5 11 10 0 6 -2 10 -4 10 -3 0
-8 -4 -11 -10z"/>
<path d="M2091 336 c-7 -8 -8 -17 -3 -20 6 -3 12 3 15 14 6 24 4 25 -12 6z"/>
<path d="M723 310 c7 -29 -17 -36 -49 -15 -14 9 -31 14 -37 12 -19 -6 49 -37
81 -37 16 0 31 3 34 6 10 9 -3 42 -19 48 -12 5 -14 1 -10 -14z"/>
<path d="M847 301 c-9 -45 -9 -59 2 -43 10 16 38 18 105 7 39 -6 48 -5 44 6
-3 8 -10 13 -16 12 -6 -2 -23 2 -37 7 -14 5 -25 6 -25 1 0 -17 -52 2 -59 22
-7 18 -9 16 -14 -12z"/>
<path d="M260 316 c0 -2 7 -7 16 -10 8 -3 12 -2 9 4 -6 10 -25 14 -25 6z"/>
<path d="M492 301 c-8 -4 -14 -12 -15 -17 -2 -10 -21 -10 -57 0 -20 5 -21 5
-9 -3 9 -6 26 -12 36 -14 11 -1 33 -11 48 -21 27 -18 28 -18 20 0 -5 11 -8 29
-8 42 1 12 0 22 -1 22 0 0 -7 -4 -14 -9z"/>
<path d="M2005 300 c-8 -13 3 -30 21 -30 18 0 18 14 0 29 -10 8 -16 9 -21 1z"/>
<path d="M2076 285 c-19 -15 -19 -15 2 -15 13 0 22 6 22 15 0 18 0 18 -24 0z"/>
<path d="M1330 258 c0 -27 1 -28 16 -14 8 9 21 16 27 16 16 0 -9 23 -28 26
-10 2 -15 -7 -15 -28z"/>
<path d="M1427 283 c-4 -3 -7 -10 -7 -14 0 -11 29 -19 35 -10 6 11 -20 33 -28
24z"/>
<path d="M1084 269 c-7 -12 17 -22 27 -12 5 5 29 7 54 3 51 -8 84 4 39 14 -37
8 -113 5 -120 -5z"/>
<path d="M2186 265 c4 -8 8 -15 10 -15 2 0 4 7 4 15 0 8 -4 15 -10 15 -5 0 -7
-7 -4 -15z"/>
<path d="M2405 270 c3 -5 8 -10 11 -10 2 0 4 5 4 10 0 6 -5 10 -11 10 -5 0 -7
-4 -4 -10z"/>
<path d="M2260 235 c0 -14 5 -25 12 -25 6 0 8 3 5 6 -3 4 -2 15 4 25 7 15 6
19 -6 19 -9 0 -15 -9 -15 -25z"/>
<path d="M1750 228 c0 -27 16 -55 25 -46 9 9 -5 68 -16 68 -5 0 -9 -10 -9 -22z"/>
<path d="M840 223 c0 -15 8 -19 40 -20 22 -1 40 2 40 8 0 9 -2 10 -36 14 -12
1 -26 5 -33 9 -7 4 -11 0 -11 -11z"/>
<path d="M992 219 c-7 -11 -18 -17 -25 -14 -7 4 -3 -1 7 -9 26 -21 33 -20 41
5 10 29 -8 43 -23 18z"/>
<path d="M1243 214 c-16 -17 -16 -21 1 -27 8 -3 16 2 19 14 6 24 -4 31 -20 13z"/>
<path d="M1457 210 c-14 -13 -15 -19 -5 -23 16 -6 38 16 30 30 -4 6 -14 3 -25
-7z"/>
<path d="M1877 221 c-10 -4 -18 -11 -18 -16 0 -11 33 -24 44 -18 4 2 7 13 7
24 0 20 -4 22 -33 10z"/>
<path d="M2010 214 c0 -8 9 -14 21 -14 11 0 19 5 17 12 -6 17 -38 19 -38 2z"/>
<path d="M1085 185 c0 -31 1 -33 13 -18 7 10 26 18 42 18 35 0 41 20 8 21 -13
1 -32 4 -43 7 -17 6 -20 2 -20 -28z"/>
<path d="M1333 205 c0 -8 4 -12 9 -9 4 3 8 9 8 15 0 5 -4 9 -8 9 -5 0 -9 -7
-9 -15z"/>
<path d="M1559 209 c-11 -7 -11 -9 -1 -9 7 0 10 -5 6 -11 -4 -8 0 -8 15 0 11
7 21 13 21 15 0 10 -28 13 -41 5z"/>
<path d="M1666 213 c-11 -11 -6 -23 9 -23 8 0 15 4 15 9 0 13 -16 22 -24 14z"/>
<path d="M693 180 c-1 -10 4 -21 11 -23 6 -3 13 3 13 13 1 10 -4 21 -11 23 -6
3 -13 -3 -13 -13z"/>
<path d="M1330 154 c0 -14 4 -23 9 -20 5 3 7 15 4 26 -7 28 -13 25 -13 -6z"/>
<path d="M1250 134 c0 -19 4 -33 8 -30 8 5 4 66 -4 66 -2 0 -4 -16 -4 -36z"/>
<path d="M1753 155 c-9 -10 -9 -16 -2 -20 14 -9 22 0 17 18 -2 13 -5 13 -15 2z"/>
<path d="M1000 139 c0 -5 5 -7 10 -4 6 3 10 8 10 11 0 2 -4 4 -10 4 -5 0 -10
-5 -10 -11z"/>
<path d="M1990 111 c0 -6 4 -13 10 -16 6 -3 7 1 4 9 -7 18 -14 21 -14 7z"/>
<path d="M840 96 c0 -9 7 -16 16 -16 17 0 14 22 -4 28 -7 2 -12 -3 -12 -12z"/>
<path d="M2160 96 c0 -9 5 -16 10 -16 6 0 10 4 10 9 0 6 -4 13 -10 16 -5 3
-10 -1 -10 -9z"/>
<path d="M668 93 c7 -3 16 -2 19 1 4 3 -2 6 -13 5 -11 0 -14 -3 -6 -6z"/>
<path d="M720 92 c0 -5 9 -12 21 -15 13 -3 19 -1 16 6 -5 15 -37 22 -37 9z"/>
<path d="M1556 91 c-4 -7 -5 -15 -2 -18 9 -9 19 4 14 18 -4 11 -6 11 -12 0z"/>
<path d="M1850 94 c0 -2 8 -8 18 -13 11 -6 25 -5 41 3 22 12 21 13 -18 13 -22
0 -41 -1 -41 -3z"/>
<path d="M2085 90 c-3 -5 -1 -10 4 -10 6 0 11 5 11 10 0 6 -2 10 -4 10 -3 0
-8 -4 -11 -10z"/>
<path d="M1140 81 c0 -6 9 -9 20 -8 11 1 20 5 20 9 0 4 -9 8 -20 8 -11 0 -20
-4 -20 -9z"/>
<path d="M1195 80 c3 -5 10 -10 16 -10 5 0 9 5 9 10 0 6 -7 10 -16 10 -8 0
-12 -4 -9 -10z"/>
<path d="M1330 76 c0 -9 5 -16 10 -16 6 0 10 4 10 9 0 6 -4 13 -10 16 -5 3
-10 -1 -10 -9z"/>
<path d="M1416 79 c7 -12 31 -12 38 0 3 5 -5 9 -19 9 -14 0 -22 -4 -19 -9z"/>
<path d="M1660 80 c0 -5 5 -10 10 -10 6 0 10 5 10 10 0 6 -4 10 -10 10 -5 0
-10 -4 -10 -10z"/>
<path d="M580 61 c0 -5 5 -13 10 -16 6 -3 10 -2 10 4 0 5 -4 13 -10 16 -5 3
-10 2 -10 -4z"/>
</g>
</svg>
