<?xml version="1.0" standalone="no"?>
<!DOCTYPE svg PUBLIC "-//W3C//DTD SVG 20010904//EN"
 "http://www.w3.org/TR/2001/REC-SVG-20010904/DTD/svg10.dtd">
<svg version="1.0" xmlns="http://www.w3.org/2000/svg"
 width="450.000000pt" height="450.000000pt" viewBox="0 0 450.000000 450.000000"
 preserveAspectRatio="xMidYMid meet">
<metadata>
Created by potrace 1.10, written by Peter Selinger 2001-2011
</metadata>
<g transform="translate(0.000000,450.000000) scale(0.050000,-0.050000)"
fill="#f04f3d" stroke="none">
<path d="M321 8971 c5 -62 30 -86 74 -69 72 27 60 100 -15 94 -33 -2 -59 -14
-59 -25z"/>
<path d="M513 8987 c-28 -29 -12 -63 26 -53 52 13 71 66 24 66 -20 0 -42 -6
-50 -13z"/>
<path d="M655 8950 c5 -27 19 -50 30 -50 11 0 15 17 10 37 -6 22 1 36 18 36
17 0 23 -13 17 -35 -7 -19 7 -65 29 -101 23 -37 41 -56 41 -42 0 13 22 30 50
37 l50 12 -64 43 c-91 62 -92 89 -2 98 49 5 29 9 -56 12 -131 3 -132 3 -123
-47z"/>
<path d="M1220 8975 c0 -35 5 -45 21 -40 9 2 22 -12 28 -33 7 -20 30 -53 52
-72 21 -20 39 -53 39 -73 0 -31 10 -35 53 -24 48 12 52 8 43 -38 -9 -49 -6
-51 59 -40 47 7 74 2 86 -17 15 -23 25 -23 58 -3 36 22 41 20 41 -15 0 -22
-13 -40 -30 -40 -34 0 -38 -27 -11 -78 44 -81 -32 -166 -77 -87 -12 19 -21 26
-22 15 0 -11 -9 -6 -20 10 -15 24 -19 20 -20 -19 0 -44 -2 -46 -26 -14 -24 33
-26 33 -28 -6 -3 -39 22 -51 89 -42 14 1 25 -7 25 -19 0 -15 11 -15 40 0 24
13 40 14 40 2 0 -10 -11 -23 -25 -29 -15 -6 -12 -10 9 -11 18 -1 39 -20 46
-42 7 -22 30 -40 51 -40 22 0 39 -14 39 -31 0 -19 -10 -26 -25 -19 -14 7 -4
-5 22 -28 49 -43 43 -82 -12 -82 -24 0 -27 -6 -11 -22 15 -15 14 -36 -5 -75
-36 -71 -53 -178 -32 -191 24 -15 11 -119 -15 -128 -13 -4 -9 -26 11 -55 47
-72 22 -109 -72 -109 -47 0 -81 10 -81 22 0 16 -8 17 -25 3 -14 -11 -41 -17
-60 -14 -19 3 -40 -3 -46 -13 -18 -29 -94 -22 -77 7 8 14 -4 9 -26 -11 -23
-20 -65 -43 -93 -50 -40 -11 -47 -21 -33 -44 15 -24 90 -32 394 -40 385 -11
440 -28 156 -48 -139 -10 -166 -18 -205 -63 -47 -53 -60 -109 -25 -109 11 0
18 -8 15 -17 -6 -20 100 -138 497 -553 429 -448 451 -473 437 -487 -7 -7 -26
5 -43 27 -23 30 -33 33 -41 13 -6 -17 -27 3 -55 53 -51 89 -97 140 -662 715
-222 225 -413 409 -425 409 -13 0 -23 9 -23 20 0 11 -22 18 -50 15 -27 -2 -50
-13 -50 -24 1 -29 35 -81 54 -81 38 0 108 -66 82 -76 -19 -8 -20 -11 -1 -12
14 -1 25 -20 25 -42 0 -22 9 -40 20 -40 11 0 20 -13 20 -30 0 -16 13 -30 28
-30 31 0 212 -201 212 -235 0 -11 27 -31 60 -45 33 -14 60 -37 60 -52 0 -16
10 -28 21 -28 12 0 16 -9 9 -20 -7 -11 -3 -36 8 -55 19 -31 21 -30 21 10 1 26
13 45 31 45 17 0 30 -18 30 -41 0 -26 8 -36 23 -27 14 9 18 5 9 -8 -7 -12 -24
-20 -38 -16 -13 3 -17 2 -9 -3 19 -11 19 -59 0 -70 -8 -5 -1 -4 15 1 107 33
160 6 164 -83 2 -56 11 -74 39 -75 20 -2 47 -4 60 -5 13 -2 29 -20 36 -40 7
-21 35 -50 62 -64 36 -20 40 -28 15 -28 -18 -1 -39 -10 -45 -20 -7 -10 5 -16
27 -11 51 9 73 -68 27 -101 -29 -22 -28 -25 11 -38 53 -16 92 -82 75 -125 -6
-17 -2 -43 10 -57 29 -35 -13 -116 -53 -101 -16 6 -28 -1 -28 -17 0 -15 11
-32 25 -38 14 -5 6 -11 -18 -11 -43 -2 -77 -50 -69 -97 2 -14 -8 -25 -22 -25
-19 -1 -17 -6 4 -20 20 -13 22 -19 5 -20 -14 0 -26 -16 -27 -35 -1 -21 -5 -25
-11 -10 -12 30 -67 33 -67 4 0 -12 -9 -16 -20 -9 -11 7 -21 -4 -22 -24 -2 -20
-5 -45 -7 -56 -3 -11 -6 -31 -8 -45 -4 -30 -63 -34 -63 -5 0 11 -34 19 -75 18
-41 -2 -60 -7 -41 -12 19 -4 29 -20 24 -34 -7 -17 13 -26 64 -28 119 -5 155
-134 43 -157 -14 -3 -45 -11 -70 -18 -28 -9 -45 -5 -45 10 0 12 -11 21 -25 18
-36 -6 -256 41 -315 67 -27 13 -63 25 -79 28 -16 3 -49 11 -75 17 -30 8 -46 3
-46 -14 -1 -17 -5 -18 -15 -3 -8 12 -42 27 -75 33 -92 17 -148 31 -170 45 -11
7 -20 5 -20 -5 0 -25 173 -105 226 -105 25 0 65 -14 88 -30 24 -17 51 -29 60
-26 9 2 46 -12 82 -31 69 -37 165 -57 284 -61 63 -2 70 -7 66 -57 -2 -36 6
-55 25 -55 42 0 26 -48 -20 -61 -22 -6 -45 -33 -51 -60 -6 -27 -35 -60 -63
-74 -68 -32 -121 -92 -65 -73 28 10 32 8 17 -9 -16 -18 -38 -18 -87 -1 -72 25
-120 -7 -81 -54 30 -35 -26 -74 -60 -43 -22 20 -25 18 -15 -9 15 -42 -38 -87
-95 -80 -23 3 -76 -17 -117 -45 -41 -27 -75 -43 -75 -35 -1 8 -10 -6 -20 -31
-10 -26 -35 -45 -58 -45 -27 0 -36 9 -28 30 13 35 -1 38 -54 9 -22 -11 -39
-35 -39 -52 0 -25 -13 -29 -60 -20 -33 7 -60 5 -60 -4 0 -8 -14 -33 -31 -54
-18 -22 -26 -28 -19 -14 7 14 2 25 -10 25 -12 0 -16 11 -8 25 8 14 7 18 -2 10
-9 -8 -28 -5 -41 6 -18 15 -29 15 -38 0 -8 -12 -4 -21 8 -21 11 0 21 -9 21
-20 0 -32 -60 -23 -73 11 -7 18 -26 26 -48 19 -19 -6 -42 -2 -49 10 -7 11 -20
16 -29 11 -9 -6 -28 3 -41 19 -14 17 -43 30 -65 30 -33 0 -35 5 -16 29 13 16
18 48 11 70 -16 53 -50 54 -36 1 9 -33 1 -40 -43 -40 -29 0 -49 8 -43 17 6 10
-9 16 -34 15 -24 -2 -50 5 -57 15 -18 27 -82 -2 -66 -29 10 -15 0 -18 -28 -9
-39 12 -43 6 -43 -66 0 -71 4 -78 42 -68 36 9 40 4 29 -30 -19 -62 25 -75 52
-16 28 62 61 57 77 -10 9 -37 32 -54 91 -69 44 -11 109 -41 144 -66 36 -26 73
-42 82 -36 10 6 62 -11 115 -38 113 -57 148 -62 148 -20 0 43 46 37 75 -10 14
-22 37 -40 52 -40 15 0 43 -18 63 -40 20 -22 58 -40 84 -40 26 0 79 -13 119
-30 39 -16 78 -25 87 -20 42 26 106 -61 78 -106 -33 -52 -42 -53 -118 -14 -66
34 -177 20 -212 -26 -18 -24 -34 -25 -94 -5 -40 13 -81 19 -91 13 -17 -11
-102 13 -216 61 -35 15 -84 27 -109 27 -25 0 -66 19 -91 43 -47 44 -67 57
-205 133 -46 25 -103 68 -126 95 -67 76 -78 61 -74 -104 3 -130 9 -154 41
-162 20 -5 37 -17 37 -27 0 -9 13 -12 29 -5 39 14 140 -31 168 -76 18 -29 15
-33 -18 -27 -28 6 -39 -3 -39 -32 0 -21 -16 -44 -35 -50 -19 -7 -55 -21 -79
-32 -24 -12 -57 -16 -75 -9 -17 6 -31 4 -31 -6 0 -28 123 -60 204 -53 77 7
235 91 171 92 -19 0 -35 10 -35 22 0 15 16 12 45 -7 39 -25 63 -25 183 -1 164
34 198 16 123 -65 -28 -30 -57 -50 -64 -43 -6 7 -25 -1 -42 -18 -17 -17 -41
-26 -53 -21 -14 5 -23 -12 -23 -42 1 -42 -9 -52 -59 -56 -108 -9 -410 -92
-410 -112 0 -11 -9 -14 -20 -7 -11 7 -20 3 -20 -9 0 -12 25 -20 55 -18 66 5
149 -20 172 -51 10 -13 12 -7 5 15 -9 28 -5 34 18 26 16 -7 30 -2 30 10 0 12
18 17 40 11 22 -6 44 -3 50 6 8 12 68 30 170 49 6 1 20 8 33 16 13 9 28 4 34
-10 7 -14 6 0 0 30 -10 50 -2 60 46 53 7 -1 18 8 25 19 7 12 13 -18 12 -66 0
-48 -5 -84 -11 -80 -6 4 -36 -14 -66 -40 -38 -32 -47 -50 -29 -57 16 -7 11
-11 -12 -12 -20 -1 -58 -26 -83 -55 -27 -31 -57 -48 -75 -41 -17 6 -46 -6 -65
-27 -19 -21 -40 -34 -47 -30 -8 4 -13 -9 -13 -29 0 -20 8 -32 18 -26 9 6 24 0
33 -13 11 -19 21 -18 41 4 15 15 45 25 68 21 28 -5 75 26 151 102 154 153 170
173 202 247 15 36 36 65 45 65 10 0 12 13 6 29 -6 17 2 43 18 59 16 16 29 42
29 58 0 18 20 29 52 29 29 0 60 12 69 26 32 53 78 -15 58 -86 -25 -85 -99
-132 -99 -62 0 43 -17 27 -26 -24 -3 -22 -17 -58 -30 -82 -20 -36 -17 -44 16
-53 63 -16 52 -81 -11 -69 -39 7 -49 2 -45 -23 6 -38 -71 -122 -112 -122 -37
0 -56 -55 -34 -97 19 -35 -20 -114 -45 -89 -7 7 -8 -30 -2 -83 12 -95 -30
-186 -74 -159 -9 6 -17 -8 -17 -31 0 -22 -9 -41 -20 -41 -11 0 -20 9 -20 20 0
11 -8 20 -19 20 -10 0 -12 -23 -2 -55 11 -39 7 -64 -12 -81 -15 -14 -27 -48
-27 -75 0 -27 -17 -66 -38 -87 -20 -20 -48 -69 -61 -108 -12 -39 -36 -75 -52
-81 -17 -7 -24 -26 -17 -47 9 -27 7 -29 -8 -9 -14 20 -29 22 -58 6 -31 -16
-46 -13 -72 18 -19 22 -27 39 -19 40 8 0 -1 13 -21 28 -37 28 -114 20 -114
-12 0 -10 23 -27 51 -37 27 -11 56 -35 62 -55 7 -19 29 -48 49 -65 77 -63 12
-95 -91 -44 -113 54 -111 54 -111 -5 0 -51 90 -131 147 -131 17 0 36 -9 43
-20 7 -11 31 -20 53 -20 22 0 37 -7 34 -15 -37 -83 -242 -481 -257 -499 -11
-13 -20 -61 -20 -107 l0 -83 85 13 c47 7 159 27 250 44 181 34 225 28 225 -31
0 -47 -42 -62 -145 -52 -41 4 -75 0 -75 -9 0 -30 55 -62 86 -50 58 22 154 -86
140 -158 -17 -93 -36 -103 -105 -54 -77 55 -127 42 -110 -28 10 -38 0 -61 -43
-101 -55 -51 -55 -53 -22 -109 19 -31 34 -76 34 -99 0 -23 13 -42 29 -42 48 0
112 -99 99 -152 -11 -42 -5 -48 47 -48 32 0 87 -10 121 -22 50 -17 71 -15 108
10 34 25 37 32 12 32 -18 0 -37 -11 -43 -25 -5 -14 -11 14 -11 62 -2 70 4 85
28 76 20 -8 30 0 30 24 0 54 -21 65 -56 29 -26 -26 -34 -26 -41 -4 -5 16 -26
45 -47 65 -22 21 -35 54 -30 74 5 21 3 40 -6 43 -29 11 48 156 84 156 18 0 39
9 46 20 7 11 21 20 32 20 11 0 15 -9 8 -20 -7 -11 2 -20 19 -20 41 0 39 19 -4
52 -23 18 -26 27 -9 27 16 1 20 11 11 26 -9 14 -13 45 -10 69 3 25 -12 59 -36
80 -105 90 -33 154 108 95 41 -17 92 -25 115 -18 36 12 70 2 178 -51 17 -9 85
-23 150 -31 117 -15 195 -49 243 -107 40 -48 65 -2 46 83 -33 145 6 342 72
373 67 30 106 28 120 -8 6 -16 19 -25 28 -19 39 23 106 -78 115 -174 8 -83 15
-97 52 -97 24 0 62 -13 84 -29 43 -29 199 -53 243 -36 29 11 32 102 7 207 -9
40 -9 86 0 103 9 16 19 57 22 90 l4 61 117 -5 c160 -6 164 -14 135 -223 -14
-96 -27 -243 -29 -327 -2 -83 -11 -167 -20 -186 -9 -20 -9 -60 -2 -90 8 -30
19 -84 25 -120 6 -36 22 -65 37 -65 14 0 30 -11 36 -25 8 -19 14 -19 29 2 14
20 23 21 33 4 8 -12 32 -17 53 -10 29 9 38 2 38 -29 0 -27 10 -37 28 -30 15 6
40 -2 54 -17 33 -36 130 7 148 66 7 22 39 53 71 70 80 41 78 109 -6 188 -64
61 -64 62 -20 74 50 13 76 81 55 146 -13 41 -70 58 -70 21 0 -11 -25 -36 -56
-55 -59 -37 -66 -105 -10 -105 19 0 26 -11 18 -31 -6 -17 3 -53 21 -81 60 -91
-49 -163 -179 -118 -40 14 -95 20 -122 15 -72 -14 -109 33 -104 131 5 100 11
107 107 122 107 18 107 86 -1 104 -90 14 -120 39 -103 85 15 37 133 42 324 15
l105 -15 0 62 c0 34 -15 84 -34 110 -36 52 -39 200 -5 263 19 36 242 42 276 7
7 -7 10 -116 7 -243 l-5 -231 55 18 c31 9 126 15 211 12 180 -7 214 21 133
107 -40 42 -42 53 -17 69 20 12 31 9 35 -9 7 -32 75 -54 116 -38 42 16 34 40
-20 54 -114 28 -160 274 -53 289 30 4 59 -7 76 -30 21 -29 30 -31 43 -11 30
49 116 8 133 -63 23 -101 29 -756 6 -799 -14 -26 -12 -55 10 -101 16 -34 33
-93 36 -130 l7 -67 -183 -3 c-101 -2 -179 4 -174 12 5 8 0 15 -12 15 -11 0
-21 -13 -21 -30 0 -25 35 -30 195 -30 l195 0 34 60 c19 34 29 74 23 90 -17 44
96 39 155 -7 86 -66 104 -62 152 35 53 109 56 124 16 109 -16 -6 -30 -1 -30
12 0 16 -11 17 -39 2 -143 -77 -359 -4 -288 98 16 22 25 48 21 56 -16 26 25
108 46 95 11 -7 20 9 20 38 0 27 -9 55 -20 62 -99 61 11 139 168 119 111 -13
160 11 114 57 -12 12 -22 41 -22 65 0 23 -6 48 -13 55 -23 24 -39 228 -19 249
21 21 215 5 266 -22 53 -28 54 -30 49 -221 -6 -215 -14 -206 150 -174 57 11
108 7 160 -11 108 -37 113 -35 101 38 -43 268 -57 379 -47 389 26 26 249 25
271 -1 23 -28 45 -348 24 -357 -47 -23 -74 -150 -49 -233 22 -74 21 -96 -4
-144 -32 -63 -28 -143 8 -155 13 -4 23 -18 23 -31 0 -13 18 -35 40 -48 22 -14
40 -43 40 -65 0 -22 9 -40 20 -40 11 0 20 -20 21 -45 0 -43 1 -43 22 -7 16 27
16 48 1 73 -31 50 8 79 105 79 92 0 132 -41 122 -127 -4 -36 4 -53 24 -53 23
0 28 16 20 65 -11 67 36 155 83 155 31 0 27 25 -12 73 -33 41 -34 41 -139 4
-203 -71 -287 -39 -287 109 0 50 8 97 19 103 11 7 5 48 -14 101 -27 71 -28 95
-9 114 33 33 300 48 330 18 76 -76 100 26 52 217 -58 228 -47 260 89 258 168
-2 188 -35 182 -300 l-4 -154 173 1 c108 0 193 11 223 27 l49 28 -52 0 c-60 1
-64 203 -5 292 16 25 27 62 23 82 -7 43 166 75 229 44 51 -27 97 -128 92 -205
-3 -38 5 -80 17 -95 21 -25 42 -315 49 -671 3 -146 -56 -305 -92 -247 -11 17
-22 17 -44 -1 -35 -30 -260 -33 -289 -4 -41 41 -13 195 37 202 27 4 50 -6 57
-24 13 -33 148 38 147 78 -1 41 -58 123 -58 84 -1 -20 -9 -31 -19 -25 -10 6
-23 0 -29 -14 -8 -19 -14 -19 -29 3 -22 30 -153 16 -199 -22 -29 -24 -180 -5
-219 27 -86 72 -114 -62 -29 -143 53 -51 62 -53 129 -30 65 22 120 14 116 -17
-1 -7 -1 -20 0 -28 1 -8 4 -33 5 -55 2 -25 20 -42 48 -46 25 -4 45 -15 45 -25
0 -11 90 -19 200 -19 161 0 200 6 200 29 0 16 12 36 26 45 37 22 121 239 107
276 -7 16 -4 30 6 30 25 0 12 59 -34 155 -53 109 -5 185 115 185 43 0 84 10
91 21 7 12 27 16 44 10 30 -12 110 0 365 55 61 13 121 21 135 18 14 -3 25 4
25 15 0 12 32 21 70 21 39 0 70 9 70 20 0 11 45 20 100 20 68 0 100 8 100 26
0 39 95 39 118 -1 10 -19 22 -30 25 -25 4 6 30 36 57 68 l50 58 -57 -14 c-46
-11 -58 -6 -67 27 -13 49 -37 53 -54 9 -7 -18 -25 -27 -41 -21 -16 6 -32 1
-35 -10 -4 -12 -43 -24 -87 -27 -43 -4 -119 -17 -169 -31 -49 -13 -114 -24
-143 -24 -38 -1 -50 -9 -42 -30 7 -19 -1 -27 -27 -23 -21 3 -83 -1 -138 -8
-55 -7 -163 -18 -240 -24 -77 -6 -157 -14 -178 -17 -53 -9 -132 78 -132 145 0
68 39 107 80 82 18 -11 39 -9 55 4 22 18 22 25 1 39 -15 9 4 14 48 10 41 -3
69 2 64 11 -6 9 6 17 26 18 59 3 314 19 341 22 14 2 25 8 25 14 0 7 29 14 65
17 36 2 68 13 72 25 3 11 18 20 32 20 42 0 92 71 97 137 2 35 11 63 19 63 8 0
15 23 15 50 0 28 -10 50 -21 50 -13 0 -16 17 -9 40 8 25 -3 67 -30 110 -25 40
-36 80 -28 95 10 15 1 13 -21 -5 -36 -29 -37 -26 -25 63 13 95 -18 156 -65
128 -19 -12 -30 14 -23 54 1 8 -7 15 -18 15 -11 0 -20 22 -20 49 0 26 -15 63
-32 81 -18 17 -27 38 -20 44 7 7 -19 42 -58 77 -70 65 -92 138 -45 154 19 7
19 16 -3 43 -22 27 -32 28 -45 8 -12 -19 -16 -14 -17 15 0 23 10 51 22 63 15
15 15 25 0 35 -36 22 -24 57 49 140 66 75 71 76 97 40 16 -21 25 -45 20 -52
-5 -8 0 -19 10 -26 21 -13 18 27 -4 63 -17 27 101 146 146 146 24 1 25 4 4 17
-20 13 -10 30 40 70 36 29 80 66 97 82 18 17 49 25 75 18 26 -7 44 -3 44 11 0
12 -17 22 -39 22 -47 0 -70 32 -38 52 14 8 28 4 32 -8 5 -13 17 -24 28 -24 11
0 15 16 9 35 -9 27 1 36 38 38 56 3 134 83 120 123 -5 14 4 31 20 37 17 6 30
23 30 38 0 15 11 33 25 41 14 8 19 7 11 -1 -28 -31 24 -91 75 -86 46 3 73 55
29 55 -23 0 -27 66 -5 88 8 9 16 35 17 59 5 149 8 161 32 137 13 -13 38 -24
56 -24 17 0 65 -31 106 -70 92 -87 93 -87 172 10 69 87 246 200 313 200 23 0
52 11 65 24 30 30 32 96 2 96 -12 0 -18 11 -13 25 5 14 -5 35 -22 47 -36 27
-103 13 -92 -19 13 -37 -46 -99 -80 -86 -17 6 -31 3 -31 -8 0 -10 -13 -19 -29
-19 -16 0 -36 -11 -45 -25 -9 -14 -29 -27 -46 -29 -16 -2 -50 -9 -74 -17 -42
-13 -43 -10 -21 49 13 35 34 59 47 54 13 -5 20 11 17 40 -3 26 1 48 8 48 12 0
43 63 69 142 6 18 39 38 75 45 50 10 59 19 42 39 -20 24 -16 78 11 154 6 17
14 53 18 80 3 28 16 104 28 170 12 66 21 163 20 216 -2 90 0 95 37 75 41 -21
48 -141 13 -204 -9 -15 1 -12 21 7 52 49 48 172 -8 217 -60 49 -60 159 0 159
39 0 41 8 30 90 -10 72 -6 90 17 90 78 0 35 149 -55 191 -76 35 -86 47 -91
117 -12 145 39 236 68 121 l13 -51 47 44 c58 55 60 86 8 138 -33 33 -36 48
-17 88 33 73 6 134 -34 77 -16 -24 -29 -50 -27 -59 13 -79 -4 -149 -32 -126
-16 13 -25 32 -19 41 5 9 1 22 -11 29 -31 19 -24 162 10 190 39 32 39 68 0 53
-20 -8 -30 1 -30 26 0 21 -9 41 -21 45 -11 3 -26 83 -32 176 -6 94 -23 213
-38 266 -15 52 -19 90 -8 83 41 -25 16 25 -49 98 -77 86 -104 164 -71 204 24
29 8 109 -22 109 -19 0 -25 -33 -22 -110 2 -30 -5 -26 -24 17 -15 31 -39 65
-55 75 -23 15 -23 21 -1 35 20 13 10 24 -37 40 -47 17 -61 31 -52 55 10 25 3
30 -26 23 -52 -14 -72 39 -21 55 46 15 52 61 10 77 -31 12 -60 -16 -44 -42 5
-8 -42 -14 -104 -13 -96 2 -112 7 -107 37 5 26 -3 32 -32 22 -28 -8 -48 3 -72
38 -41 64 -58 64 -92 1 -31 -59 -67 -62 -173 -16 -91 40 -139 43 -132 10 3
-15 -19 -24 -56 -24 -34 0 -57 8 -51 17 6 10 -16 14 -50 11 -34 -4 -78 2 -99
13 -29 15 -36 14 -28 -7 6 -16 -3 -27 -21 -27 -21 0 -28 11 -20 31 10 26 7 27
-13 7 -14 -14 -57 -25 -96 -25 -48 1 -62 6 -44 18 23 14 23 19 0 28 -23 9 -23
14 1 30 15 11 21 30 13 42 -7 12 -5 22 4 22 10 0 18 14 18 30 0 17 -7 30 -16
30 -26 0 -20 44 15 110 45 84 36 330 -10 301 -8 -5 -15 3 -15 19 0 16 8 23 18
17 10 -6 23 8 29 31 14 55 60 53 107 -3 30 -35 42 -39 56 -18 14 21 20 20 30
-5 6 -18 23 -32 37 -32 20 1 19 5 -2 18 -31 20 -13 62 28 62 50 0 130 -46 130
-74 0 -15 14 -32 30 -39 17 -6 30 -23 30 -37 0 -14 14 -31 31 -38 17 -6 40
-39 52 -72 11 -33 34 -60 49 -60 35 0 37 38 3 51 -43 16 -35 124 10 136 55 15
89 -3 102 -53 6 -23 17 -36 25 -29 7 7 26 0 42 -16 16 -16 37 -24 48 -18 32
20 20 42 -37 68 -52 23 -53 26 -17 52 22 16 33 42 27 65 -13 52 25 96 99 113
34 7 68 27 74 43 14 37 52 18 52 -25 0 -19 -11 -27 -29 -20 -15 6 -39 -2 -52
-18 -23 -28 -19 -33 36 -37 13 -1 23 -11 20 -22 -6 -28 -62 -12 -82 24 -13 23
-21 25 -33 6 -8 -13 7 -63 35 -113 34 -62 49 -118 48 -180 -1 -78 3 -87 28
-66 22 18 29 18 29 0 0 -13 10 -17 23 -9 15 9 10 21 -15 36 -64 37 -38 164 29
143 87 -27 94 80 8 135 -14 9 -21 25 -14 35 17 29 83 23 116 -11 39 -39 45
-38 96 13 l42 42 30 -67 c16 -38 30 -102 32 -143 2 -59 9 -73 33 -63 80 32
174 32 187 0 9 -24 -3 -39 -39 -53 -55 -21 -56 -53 -3 -87 25 -16 44 -8 83 34
27 30 64 54 80 54 17 0 38 15 49 33 17 30 21 29 46 -10 40 -65 57 -52 57 44 0
65 -13 101 -50 141 -58 62 -89 55 -75 -17 15 -78 -49 -91 -108 -23 -49 56 -62
112 -27 112 11 0 20 14 20 30 0 17 -13 30 -29 30 -16 0 -39 18 -51 40 -12 22
-30 40 -41 40 -10 0 -19 -18 -19 -40 0 -22 -9 -40 -20 -40 -11 0 -20 13 -20
30 0 48 -86 92 -155 78 -50 -10 -66 -4 -85 31 -20 38 -34 42 -100 31 -65 -11
-80 -7 -99 29 -13 23 -32 36 -43 30 -37 -23 -79 57 -67 126 10 58 4 67 -55 92
-76 32 -103 22 -49 -18 36 -26 35 -30 -26 -108 -68 -85 -97 -97 -138 -56 -19
19 -40 5 -102 -65 -88 -102 -81 -128 42 -150 68 -13 77 -9 106 47 40 78 111
122 111 69 0 -59 -87 -226 -118 -226 -16 0 -44 -14 -63 -31 -32 -29 -40 -26
-102 38 -40 42 -92 72 -127 76 -77 9 -89 103 -15 113 58 9 62 94 5 124 -45 24
-120 159 -120 217 0 21 -16 45 -35 52 -50 19 -110 -61 -96 -127 12 -59 -3 -89
-54 -108 -43 -16 -46 -66 -4 -82 17 -6 26 -20 20 -30 -12 -20 41 -82 70 -82
11 0 19 18 19 40 0 37 39 54 64 29 19 -19 -29 -149 -54 -149 -13 0 -50 8 -82
18 -32 10 -83 24 -113 31 -61 13 -74 70 -25 111 20 16 23 35 12 57 -10 18 -24
76 -32 128 -12 80 -50 137 -50 75 0 -11 -18 -20 -40 -20 -39 0 -48 17 -41 83
1 17 -11 37 -28 44 -37 14 -43 100 -6 88 14 -4 35 -28 47 -51 12 -24 27 -38
34 -31 7 7 26 2 42 -11 29 -24 132 -11 132 18 0 28 -56 62 -109 66 -29 2 -60
17 -70 32 -10 16 -34 23 -58 17 -60 -16 -103 41 -57 74 45 33 43 51 -6 51 -22
0 -40 -12 -40 -28 0 -15 -14 -39 -31 -53 -19 -16 -27 -43 -21 -69 30 -120
-158 -188 -198 -71 -28 83 -60 98 -90 41 -17 -32 -17 -50 2 -72 34 -41 -8
-128 -62 -128 -22 0 -40 9 -40 20 0 11 -18 20 -40 20 -27 0 -40 13 -40 41 0
32 11 39 55 35 41 -5 53 2 46 24 -5 17 -10 64 -10 105 -1 78 -86 128 -136 78
-15 -15 -37 -12 -75 7 -51 26 -58 24 -111 -31 -75 -79 -129 -78 -129 1 0 46
-11 62 -49 72 -71 17 -97 -7 -83 -79 6 -35 15 -84 19 -109 12 -73 50 -101 82
-59 34 47 92 44 105 -5 6 -22 19 -40 28 -40 10 0 18 -16 18 -35 1 -26 5 -28
17 -9 9 14 30 20 48 13 21 -8 36 3 46 34 13 42 16 41 37 -24 22 -69 88 -116
177 -127 25 -3 72 -16 104 -30 33 -13 76 -20 95 -15 60 15 40 -27 -24 -54 -34
-14 -54 -33 -45 -43 8 -9 4 -10 -9 -2 -42 24 -305 -66 -292 -101 6 -16 -6 -43
-26 -59 -21 -17 -27 -26 -14 -19 27 13 126 -27 126 -52 0 -9 -13 -17 -30 -17
-16 0 -30 -10 -30 -22 0 -13 14 -16 35 -8 19 8 50 19 68 24 93 27 53 113 -45
96 -57 -10 -61 -8 -38 21 15 17 44 27 64 22 20 -5 43 4 52 19 9 16 43 34 75
40 33 5 80 32 105 59 25 27 55 49 68 49 20 0 116 91 116 111 0 5 -18 9 -40 9
-22 0 -40 9 -40 20 0 11 11 20 25 19 46 -1 95 -53 95 -100 0 -36 6 -41 23 -24
18 18 30 15 49 -11 22 -30 25 -28 20 20 -7 64 20 122 35 75 6 -16 15 -60 22
-99 6 -38 16 -95 21 -125 5 -31 23 -82 40 -115 87 -168 7 -757 -103 -759 -13
-1 -45 -26 -71 -56 -88 -103 -114 -116 -144 -74 -26 35 -28 35 -41 -7 -46
-144 -59 -18 -21 206 8 52 64 474 78 594 l11 93 -83 -47 c-75 -43 -84 -56 -89
-134 -13 -176 -49 -478 -73 -606 l-24 -132 -223 -4 c-177 -3 -219 1 -203 21
12 14 14 25 6 25 -8 0 -4 14 10 30 14 17 20 37 13 44 -7 7 2 30 21 51 30 32
30 40 5 56 -31 20 12 67 43 48 18 -11 11 45 -8 64 -8 7 -14 3 -14 -10 0 -12
-7 -23 -15 -23 -37 0 -22 190 18 233 26 28 32 47 19 56 -12 7 -22 -1 -22 -19
0 -19 -9 -27 -23 -18 -13 8 -18 5 -11 -6 7 -11 -4 -37 -26 -56 -22 -20 -36
-54 -32 -78 4 -23 -5 -71 -19 -105 -14 -35 -20 -70 -12 -79 7 -8 3 -9 -10 -1
-12 7 -27 -3 -32 -23 -7 -27 -28 -35 -82 -33 -40 1 -73 -5 -73 -14 0 -28 -61
-19 -72 11 -13 34 -156 21 -222 -20 -37 -23 -48 -23 -73 2 -27 26 -31 26 -39
-5 -9 -33 -9 -33 -12 0 -2 40 -54 48 -68 10 -5 -14 -15 -19 -23 -12 -8 8 -4
33 9 58 19 34 19 47 0 59 -17 11 -18 19 -2 29 12 7 22 3 22 -10 0 -18 8 -18
30 1 16 14 30 33 30 42 0 26 -108 22 -134 -4 -15 -15 -25 -15 -35 0 -7 12 -49
22 -93 22 -64 0 -79 7 -74 34 9 50 -109 81 -175 45 -36 -19 -43 -31 -24 -42
40 -26 91 -20 99 12 5 24 11 24 44 0 31 -23 34 -33 13 -58 -26 -31 -5 -44 49
-31 74 20 150 11 150 -15 0 -24 -6 -25 -30 -5 -22 18 -30 18 -30 2 0 -13 20
-31 45 -41 25 -10 38 -19 29 -20 -8 0 -5 -21 9 -46 20 -38 19 -42 -5 -21 -16
13 -71 21 -123 17 -61 -4 -95 2 -95 16 0 12 -23 -2 -51 -32 -70 -76 -154 -46
-94 34 19 26 42 43 50 38 8 -5 15 -1 15 9 0 11 -22 24 -50 29 -27 5 -50 1 -50
-9 0 -10 -9 -13 -20 -6 -12 7 -19 1 -15 -13 3 -14 -4 -26 -15 -26 -11 -1 -29
-7 -40 -13 -39 -21 -138 -18 -152 6 -11 18 -22 17 -46 -3 -17 -14 -45 -20 -62
-14 -16 7 -30 3 -30 -8 0 -10 10 -19 21 -19 12 0 16 -9 9 -19 -6 -11 7 -31 29
-45 23 -14 41 -33 41 -42 0 -9 -9 -11 -20 -4 -11 7 -20 4 -20 -6 0 -37 95 -43
650 -46 308 -1 532 -9 498 -17 -33 -8 -474 -13 -980 -11 -1151 5 -1233 6
-1220 26 5 9 202 14 436 11 396 -6 563 11 446 44 -22 7 -62 47 -89 90 -43 69
-78 95 -151 111 -11 2 -38 10 -60 18 -31 10 -27 2 15 -34 30 -26 55 -64 55
-85 0 -32 -7 -29 -49 16 -61 66 -100 67 -157 5 -60 -65 -114 -29 -114 75 0 82
4 81 -300 75 -172 -4 -199 -8 -187 -26 5 -9 2 -17 -7 -18 -9 0 -32 -4 -51 -8
-19 -3 -35 2 -35 12 0 10 -7 17 -15 16 -48 -8 -105 5 -105 23 0 12 10 15 23 7
15 -9 18 -5 8 10 -11 19 -24 16 -53 -10 -39 -35 -45 -29 -39 47 2 24 -13 74
-33 110 -20 36 -38 68 -40 72 -17 31 -224 22 -212 -9 9 -24 5 -30 -11 -20 -14
9 -36 6 -50 -5 -15 -13 -35 -14 -54 -2 -43 27 -59 23 -46 -12 7 -17 25 -27 40
-21 15 6 27 -2 27 -19 0 -48 71 -33 101 22 24 45 30 48 50 21 13 -17 29 -26
36 -18 7 7 13 -3 13 -22 0 -18 -11 -32 -25 -31 -52 7 -71 -2 -81 -41 -6 -22
-3 -35 6 -30 10 6 23 -9 31 -32 10 -33 17 -37 30 -17 9 15 12 34 7 43 -6 9 -1
16 11 16 11 0 21 -11 21 -25 0 -14 28 -48 63 -77 54 -44 63 -66 66 -151 2 -55
11 -110 19 -123 8 -13 5 -24 -6 -24 -11 0 -25 9 -32 20 -8 13 -88 18 -207 13
l-195 -8 -53 223 c-83 347 -85 367 -42 377 38 9 -33 49 -151 85 -56 17 -55 -2
17 -329 22 -103 41 -216 41 -251 0 -34 10 -72 21 -83 16 -16 -20 -19 -125 -12
-80 6 -150 20 -154 32 -5 12 -40 49 -78 83 -123 107 -153 419 -56 606 41 80
43 184 2 184 -16 0 -30 8 -30 17 0 9 -22 27 -50 39 -38 18 -50 38 -50 89 -1
36 -9 100 -19 144 -27 115 13 180 128 209 86 21 126 62 61 62 -18 0 -30 19
-31 45 -1 33 -24 56 -90 87 -94 45 -109 43 -109 -15 0 -39 -106 -55 -129 -19
-6 9 -59 23 -119 31 -60 7 -120 26 -132 41 -24 29 -140 32 -140 5z m409 -234
c7 -10 -6 -28 -27 -40 -42 -23 -75 2 -52 39 16 25 64 26 79 1z m1491 -1198 c0
-76 18 -89 75 -52 37 25 54 27 76 8 49 -40 35 -80 -27 -75 -30 2 -67 -3 -81
-12 -33 -21 -96 36 -112 103 -9 33 -4 57 13 68 44 28 56 19 56 -40z m443 24
c21 -18 37 -45 37 -60 0 -25 30 -35 95 -32 13 0 19 -9 12 -20 -7 -12 -55 -15
-118 -7 -72 8 -111 4 -121 -11 -8 -14 -5 -18 8 -10 11 8 27 5 34 -7 23 -37
-84 -21 -137 22 -59 46 -52 83 14 74 34 -5 42 3 38 39 -6 56 81 64 138 12z
m3397 -206 c0 -41 -12 -62 -42 -71 -62 -20 -67 1 -19 69 54 76 61 76 61 2z
m-1020 -61 c-40 -26 -234 -26 -250 0 -8 13 41 20 134 20 102 -1 137 -7 116
-20z m1660 1 c-81 -23 -635 -25 -600 -2 17 12 162 20 340 19 171 -1 288 -9
260 -17z m336 -141 c459 -43 571 -210 695 -1033 203 -1356 -75 -2005 -1325
-3091 -398 -346 -405 -397 -127 -943 129 -256 179 -366 275 -608 12 -29 -845
-34 -1919 -12 l-632 13 -93 202 c-52 111 -111 238 -131 281 -45 94 -43 97 45
81 64 -12 76 -28 177 -232 l108 -218 460 0 c254 0 760 -6 1126 -13 366 -7 665
-8 665 -2 0 32 -154 405 -298 721 -89 195 -162 368 -162 383 0 23 201 219 598
582 913 836 1240 1500 1162 2357 -73 804 -221 1218 -485 1354 -129 67 -6195
134 -6195 69 0 -12 149 -170 331 -351 339 -338 609 -638 609 -677 0 -40 -309
-666 -574 -1163 -144 -269 -376 -715 -516 -990 -140 -275 -491 -959 -780
-1520 -609 -1181 -582 -1121 -477 -1103 87 14 2248 349 2386 370 96 14 153 95
317 448 49 106 151 176 193 132 11 -11 -285 -600 -322 -640 -50 -55 -121 -71
-697 -156 -297 -44 -724 -108 -950 -142 -225 -33 -558 -83 -740 -109 -181 -27
-359 -55 -395 -62 -43 -8 -65 -5 -65 10 0 27 412 866 655 1332 611 1174 1159
2245 1518 2965 l311 625 -557 571 c-306 314 -560 579 -563 589 -8 23 6119 3
6372 -20z m-836 -224 c72 2 171 -4 220 -14 l90 -18 -70 -5 c-113 -8 -117 -9
-131 -23 -7 -7 -32 -6 -56 2 -47 17 -1180 9 -1289 -9 -51 -9 -72 -25 -87 -70
-12 -34 -30 -53 -42 -46 -14 9 -17 1 -9 -19 7 -18 3 -38 -8 -45 -13 -8 -12
-22 3 -41 15 -17 16 -28 4 -28 -11 0 -20 -11 -20 -25 3 -73 -7 -96 -40 -91
-29 5 -35 -9 -35 -79 -1 -47 6 -85 14 -85 8 0 5 -25 -7 -55 -43 -111 -55 -166
-33 -152 15 9 18 -2 11 -30 -9 -33 -2 -43 27 -43 27 0 38 -14 38 -48 0 -38 15
-51 80 -67 53 -14 80 -14 80 -1 0 11 39 17 90 13 50 -4 90 0 90 9 0 9 24 -2
53 -25 29 -22 70 -41 91 -41 23 0 33 -9 25 -22 -8 -12 8 -8 35 10 37 24 86 31
190 26 77 -4 156 -1 176 6 20 7 73 1 117 -15 62 -21 83 -22 95 -2 12 19 22 18
48 -3 27 -23 41 -23 74 -2 33 20 37 20 24 -2 -12 -21 -9 -20 18 1 18 15 47 22
64 16 16 -7 30 -3 30 8 0 14 12 14 37 1 25 -14 44 -13 60 3 17 17 23 16 23 -4
0 -15 5 -22 12 -16 6 6 37 4 70 -5 34 -10 58 -10 58 1 0 11 14 19 31 19 20 0
26 -9 16 -25 -16 -27 53 22 76 53 7 10 30 11 50 2 20 -9 48 -14 62 -12 14 2
25 -6 25 -18 0 -12 9 -17 20 -10 11 7 20 -1 20 -18 0 -26 8 -27 67 -2 38 16
75 22 84 14 8 -8 10 -4 3 8 -12 21 54 98 83 98 7 0 11 7 8 15 -3 8 6 13 20 10
14 -3 22 11 19 32 -4 21 11 57 32 80 54 59 72 129 44 163 -27 33 -8 77 24 57
15 -9 16 -4 5 15 -36 58 -31 115 11 128 86 27 48 224 -58 305 -92 70 -72 76
78 21 131 -48 260 -262 260 -432 0 -52 8 -106 18 -121 10 -17 7 -48 -10 -80
-15 -29 -28 -66 -28 -83 -4 -201 -339 -949 -551 -1230 -173 -230 -479 -468
-561 -437 -13 5 -28 -11 -34 -34 -6 -24 -21 -37 -33 -30 -11 7 -21 -1 -21 -18
0 -17 -16 -31 -35 -31 -27 -1 -29 -4 -8 -18 30 -19 11 -36 -37 -33 -43 3 -28
91 21 126 22 15 36 34 31 42 -5 8 19 17 54 20 81 6 76 0 163 218 81 205 110
397 92 605 -16 185 -19 183 -356 -167 -264 -274 -424 -343 -649 -280 -145 41
-130 4 -164 379 -49 530 -93 590 -443 601 -393 12 -650 97 -876 293 -285 245
-623 228 -1032 -54 -157 -107 -193 -87 -79 44 l63 71 -14 202 c-13 199 -12
203 38 250 250 235 -409 65 -722 -186 -101 -82 -167 -166 -188 -242 -16 -60
-47 -57 -87 11 -20 34 -178 205 -352 378 l-314 316 232 9 c128 5 443 11 701
13 258 2 474 9 480 15 6 7 767 5 1691 -5 924 -9 1739 -14 1810 -12z m650 -34
l80 -15 -80 -8 c-44 -5 -134 1 -200 14 l-120 23 120 1 c66 0 156 -6 200 -15z
m-1572 -140 c29 -18 -4 -182 -64 -322 -12 -27 -23 -59 -24 -70 -24 -190 -75
-310 -132 -310 -47 0 -49 45 -8 160 37 105 38 140 3 140 -17 0 -42 -55 -65
-145 -35 -132 -43 -146 -93 -151 -30 -4 -55 3 -55 15 0 29 156 544 169 557 6
5 -3 20 -20 32 -97 71 182 161 289 94z m222 -9 c0 -15 -18 -79 -40 -142 -22
-64 -34 -124 -28 -135 17 -27 88 43 88 88 0 150 99 286 146 201 16 -30 -72
-307 -95 -298 -15 6 -21 -10 -16 -45 22 -148 -112 -413 -176 -349 -22 22 44
224 82 248 25 15 24 22 -6 52 -45 46 -53 35 -106 -148 -40 -139 -50 -156 -97
-161 -67 -8 -66 -3 16 265 38 121 79 262 91 311 13 50 27 101 31 115 12 34
110 32 110 -2z m450 7 c18 -28 -26 -100 -55 -89 -17 6 -47 -70 -94 -235 -48
-172 -61 -246 -45 -251 88 -30 19 -100 -106 -108 -115 -7 -142 31 -70 99 31
29 177 434 180 499 0 3 -13 5 -30 5 -35 0 -37 10 -9 61 22 43 205 58 229 19z
m318 8 c71 -27 -114 -702 -190 -693 -66 8 -67 -2 22 286 86 281 88 319 18 319
-32 0 -38 -7 -23 -25 18 -23 -104 -509 -144 -574 -15 -24 -84 -28 -98 -5 -6 8
29 141 76 295 60 196 80 287 66 304 -56 71 150 140 273 93z m392 -18 c19 -22
19 -44 4 -85 -12 -30 -50 -158 -85 -285 -87 -314 -79 -303 -215 -296 -92 5
-115 13 -121 43 -8 41 111 469 141 506 12 16 8 30 -13 41 -28 16 -28 22 0 62
39 55 247 65 289 14z m380 3 c0 -45 -45 -162 -68 -178 -58 -38 -95 -16 -81 47
23 105 -33 59 -71 -58 l-34 -104 65 0 c90 0 98 -39 42 -220 l-46 -150 -93 -11
c-158 -18 -198 15 -154 130 24 65 131 77 111 13 -15 -46 16 -72 44 -37 11 14
25 49 32 78 7 29 18 68 25 85 10 26 -3 32 -72 32 -72 0 -82 5 -70 35 8 19 28
94 45 165 40 177 64 200 208 200 85 0 117 -7 117 -27z m-4199 -131 c-12 -23
-15 -112 -8 -227 l13 -190 -73 -95 c-77 -101 -80 -109 -61 -158 21 -54 114
-36 257 50 412 249 695 284 891 112 150 -132 180 -153 323 -221 160 -76 355
-122 612 -143 264 -22 378 -147 355 -390 -53 -545 -56 -640 -23 -677 18 -20
33 -49 33 -66 0 -29 96 -237 119 -257 6 -5 49 -61 96 -124 71 -96 97 -116 170
-131 96 -19 94 -6 44 -255 -60 -300 -33 -554 82 -786 53 -105 100 -181 105
-167 6 19 14 19 36 1 43 -35 34 -53 -32 -62 -73 -11 -97 14 -139 141 -26 78
-39 93 -81 93 -58 0 -70 -146 -21 -260 30 -70 -117 -343 -218 -406 -28 -18
-153 -99 -279 -180 -414 -270 -449 -277 -482 -104 -29 155 -51 171 -182 139
-132 -31 -265 -89 -298 -129 -35 -42 -41 -40 -137 49 -61 57 -129 94 -239 130
-85 28 -208 69 -274 93 -96 34 -703 138 -805 138 -14 0 -53 -43 -86 -95 -57
-89 -67 -96 -185 -118 -68 -12 -178 -37 -244 -55 -718 -193 -1013 -116 -1326
346 -85 126 -172 238 -194 250 -22 12 -43 24 -47 26 -4 2 24 56 62 120 38 64
83 143 99 176 16 33 83 164 150 290 66 127 195 374 286 550 265 513 457 884
582 1124 210 401 278 541 433 886 17 39 129 166 248 283 119 117 217 227 217
245 0 19 35 41 95 60 133 41 151 40 126 -6z m-1221 -678 c0 -9 -23 -65 -52
-125 -96 -203 -195 -409 -246 -509 -28 -55 -87 -172 -131 -260 -44 -88 -85
-164 -92 -170 -7 -5 -25 -46 -39 -89 -28 -86 -260 -491 -282 -491 -12 0 243
526 277 570 26 34 500 997 514 1045 13 42 51 64 51 29z m5860 -470 c0 -593
-127 -919 -577 -1484 -275 -346 -889 -910 -989 -910 -61 0 -145 436 -127 656
28 339 40 366 194 405 736 186 1243 711 1419 1469 33 142 36 150 59 150 14 0
21 -103 21 -286z m-1127 -322 c0 -16 -12 -24 -26 -18 -20 8 -27 -15 -27 -92 0
-56 -8 -118 -18 -137 -10 -19 -42 -84 -73 -145 -48 -97 -237 -355 -300 -410
-13 -11 -43 -49 -67 -84 l-44 -65 -119 88 c-65 48 -161 135 -214 194 -52 58
-115 125 -140 149 -73 70 -56 81 96 60 296 -41 564 36 749 215 91 89 97 99 60
114 -22 9 -29 17 -15 18 14 0 23 8 20 18 -7 24 70 123 96 123 12 0 22 -13 22
-28z m1370 -786 c-81 -161 -308 -514 -345 -537 -52 -32 -37 18 29 99 40 49 73
98 73 109 0 11 8 23 17 26 15 6 243 388 243 407 0 39 48 114 54 87 5 -18 -27
-104 -71 -191z m-6976 102 c46 -17 -1 -84 -84 -119 -61 -26 -66 -34 -57 -99 5
-39 1 -76 -9 -82 -10 -6 -32 -45 -49 -87 -43 -108 -232 -235 -212 -143 4 17
-6 22 -26 15 -42 -16 -62 39 -29 78 16 20 18 38 6 50 -13 13 -29 3 -46 -30
-30 -55 -73 -78 -108 -56 -27 17 -37 19 -103 23 -28 1 -50 14 -50 30 0 37 289
232 344 232 11 0 44 17 73 37 29 21 76 45 103 53 28 9 75 37 107 63 58 48 87
56 140 35z m6592 -683 c0 -23 -121 -150 -132 -139 -5 5 14 34 42 65 28 30 51
63 51 72 0 9 9 17 20 17 11 0 20 -7 19 -15z m-312 -346 c-102 -110 -309 -309
-331 -316 -11 -4 12 27 52 69 39 42 72 84 72 93 0 10 9 12 20 5 11 -7 20 -5
20 5 0 24 203 229 215 217 6 -6 -16 -38 -48 -73z m-6909 -449 c-49 -92 -78
-114 -78 -60 0 17 9 30 20 30 11 0 20 14 20 30 0 17 8 30 18 30 9 0 23 20 29
44 6 24 18 38 25 30 8 -7 -8 -54 -34 -104z m6509 55 c-35 -30 -91 -77 -125
-105 -34 -27 -87 -70 -117 -95 -30 -25 -64 -45 -75 -45 -22 1 56 70 290 258
76 61 99 49 27 -13z m-6622 -235 c-5 -28 -19 -56 -30 -63 -12 -7 -14 5 -6 30
9 27 5 43 -9 43 -12 0 -17 9 -10 20 26 42 65 20 55 -30z m525 -176 c105 -503
801 -872 1349 -714 90 26 126 -4 70 -59 -65 -65 -561 -165 -1299 -261 -651
-85 -779 -103 -793 -112 -32 -19 -17 23 52 153 37 71 177 348 309 615 268 541
262 530 275 517 5 -5 22 -67 37 -139z m5242 14 c7 -40 44 -134 81 -211 37 -76
67 -143 67 -149 0 -7 17 -36 37 -65 50 -72 156 -335 174 -431 l15 -78 -128 13
c-70 7 -508 13 -972 14 -883 1 -904 3 -907 85 0 13 -18 60 -39 104 -21 44 -39
86 -39 93 -3 45 371 193 403 161 9 -9 23 -64 29 -121 27 -226 111 -211 613
108 298 190 338 222 392 315 131 225 249 294 274 162z m549 -349 c14 -27 33
-62 42 -79 47 -83 213 -421 245 -500 73 -182 146 -401 134 -407 -30 -15 -940
14 -931 29 6 10 169 18 362 18 527 0 548 34 324 515 -42 91 -77 174 -77 184 0
10 -7 21 -15 24 -24 11 -141 258 -174 367 -47 155 -35 175 17 29 26 -72 58
-153 73 -180z m-3439 81 c18 0 44 14 58 31 23 27 29 27 59 -1 19 -16 40 -24
48 -17 7 8 13 4 13 -8 0 -24 36 -23 75 2 14 9 25 6 25 -7 0 -12 9 -17 20 -10
11 7 20 2 20 -11 0 -14 17 -19 40 -13 22 6 40 3 40 -6 0 -9 19 -11 43 -5 26 7
38 3 31 -9 -7 -11 12 -21 45 -22 32 -1 76 -11 98 -23 22 -11 59 -21 82 -21 22
0 40 -7 39 -15 -7 -41 6 -61 42 -71 22 -6 40 -2 40 8 0 10 10 18 21 18 12 0 3
-26 -20 -58 -43 -61 -44 -160 -3 -235 11 -21 49 -104 85 -187 75 -174 162
-310 208 -327 29 -12 471 -32 749 -34 67 -1 94 -7 70 -15 -22 -8 -228 -14
-458 -14 l-419 0 -105 200 c-59 110 -107 211 -107 224 -5 151 -284 497 -349
432 -23 -24 -12 -66 18 -66 17 0 30 -9 30 -20 0 -30 -52 -24 -79 9 -13 16 -44
32 -67 36 -43 8 -43 9 6 29 46 19 40 23 -70 44 -66 13 -135 32 -153 42 -33 18
-57 8 -57 -25 0 -9 10 -11 22 -4 16 10 16 3 1 -26 -21 -39 -13 -65 22 -65 9 0
12 9 5 20 -7 11 -1 20 14 21 14 1 66 6 115 12 81 11 87 9 63 -21 -15 -17 -46
-32 -68 -32 -57 0 -22 -30 71 -59 41 -13 75 -32 75 -43 0 -10 14 -18 31 -18
23 0 26 -8 12 -34 -13 -23 -10 -42 8 -60 39 -39 60 -32 64 24 3 29 -6 50 -20
50 -18 1 -18 5 2 18 14 9 26 22 25 29 -1 7 5 12 13 10 81 -13 145 -128 145
-259 0 -107 -35 -145 -87 -94 -43 44 -438 47 -504 4 -46 -31 -56 -31 -115 -2
-35 17 -103 41 -150 53 -122 33 -171 130 -103 207 25 29 55 47 67 40 12 -7 15
-5 7 4 -8 9 -5 28 7 42 12 15 15 37 6 51 -11 17 -19 13 -30 -14 -12 -28 -15
-19 -12 31 2 39 13 77 24 85 11 8 4 15 -17 15 -20 0 -41 -18 -47 -40 -6 -22
-18 -40 -28 -40 -9 0 -59 -88 -110 -195 -179 -378 -217 -446 -277 -502 -72
-68 -239 -116 -451 -132 l-150 -11 100 30 c55 16 123 29 151 30 184 1 357 114
444 290 27 55 71 141 98 190 86 160 142 308 146 382 4 95 68 177 121 156 62
-24 70 -21 70 23 0 39 3 39 44 10 25 -17 60 -31 78 -31z m-831 -255 c17 -23
19 -46 6 -70 -10 -19 -11 -35 -3 -36 9 0 -1 -10 -21 -22 -26 -15 -43 -15 -59
1 -12 12 -43 22 -68 22 -25 0 -46 9 -46 20 0 11 17 20 39 20 21 0 43 8 49 17
6 10 -12 13 -40 7 -28 -5 -56 -21 -61 -35 -6 -15 -24 -21 -40 -15 -17 6 -50
14 -74 16 -70 8 -73 9 -73 32 0 12 12 18 28 12 15 -6 37 -1 49 11 17 17 31 13
53 -16 21 -28 34 -32 45 -15 9 13 54 30 100 38 46 7 79 21 73 30 -20 33 17 18
43 -17z m534 -402 l34 -57 -55 4 c-81 6 -84 7 -84 47 0 81 59 85 105 6z m310
-109 c14 0 25 -8 25 -17 0 -28 113 -19 138 11 50 60 480 38 535 -28 26 -30 62
-54 81 -53 23 2 35 -11 35 -37 0 -22 16 -55 35 -72 20 -18 36 -45 37 -60 0
-16 36 -55 79 -88 43 -33 77 -73 75 -90 -2 -16 2 -40 10 -53 8 -13 1 -28 -15
-34 -20 -8 -30 1 -30 26 0 52 -30 67 -60 31 -33 -39 -60 -38 -60 2 0 21 11 28
32 20 18 -7 28 -3 24 9 -4 12 -14 19 -23 16 -9 -4 -28 16 -43 43 -15 28 -32
48 -38 45 -54 -23 -116 -2 -106 36 8 32 5 36 -15 20 -20 -17 -23 -10 -16 31
10 48 7 51 -32 29 -45 -23 -58 -61 -22 -61 12 0 16 -9 9 -20 -7 -12 -31 -7
-61 13 -47 31 -49 30 -49 -18 0 -27 -18 -65 -40 -85 -22 -20 -40 -47 -40 -61
0 -13 -14 -36 -31 -50 -17 -14 -27 -35 -23 -47 5 -13 -18 -23 -58 -23 -36 -1
-61 5 -56 15 6 9 2 16 -9 16 -11 0 -24 -11 -30 -25 -6 -15 -10 -12 -11 9 -1
19 13 43 32 53 38 21 5 83 -44 83 -14 0 -53 32 -86 72 -34 39 -71 66 -81 60
-11 -7 -26 -4 -33 8 -7 11 -3 20 9 20 39 0 21 30 -45 75 -70 47 -104 58 -85
26 6 -10 -7 -24 -29 -31 -41 -13 -47 -71 -15 -123 16 -24 -12 -53 -73 -75 -22
-7 -45 -3 -53 9 -10 17 -18 17 -28 1 -7 -12 -4 -22 8 -22 12 0 21 -40 21 -90
0 -81 -5 -90 -48 -90 -76 0 -112 -58 -57 -95 54 -36 14 -92 -58 -81 -51 7 -76
56 -29 56 26 0 31 26 29 149 -2 82 -10 145 -18 140 -18 -11 -39 39 -39 93 0
24 -14 38 -39 38 -57 0 -68 33 -16 47 66 18 75 16 75 -17 0 -16 16 -29 35 -28
19 0 25 5 12 11 -12 5 -18 26 -13 48 9 31 0 39 -38 39 -149 0 -65 116 92 128
50 3 112 21 137 39 32 24 67 30 125 21 44 -7 91 -13 105 -14z m2555 -274 c53
-12 -11 -14 -190 -7 -148 6 -274 15 -278 19 -17 16 390 5 468 -12z m-3490
-157 c0 -9 -19 -25 -43 -36 -39 -17 -40 -21 -10 -52 42 -42 42 -74 -2 -107
-74 -56 -126 -23 -124 79 0 56 51 126 65 89 7 -20 18 -18 46 9 39 38 68 45 68
18z m3340 9 c0 -5 5 -23 12 -40 9 -24 -1 -32 -40 -32 -57 0 -58 2 -40 48 11
28 68 47 68 24z m-4060 -34 c0 -36 -26 -77 -42 -67 -30 19 -20 82 12 82 17 0
30 -6 30 -15z m3354 0 c13 -13 18 -35 13 -49 -6 -15 15 -39 49 -57 60 -31 96
-108 65 -139 -10 -10 -32 -9 -52 3 -22 11 -59 13 -95 2 -56 -16 -57 -15 -26
19 46 52 40 101 -21 158 -43 39 -48 52 -25 67 38 24 66 22 92 -4z m646 -103
c1 -17 7 -15 20 5 17 27 19 27 19 0 0 -55 -32 -85 -76 -71 -43 14 -49 49 -13
76 30 22 50 18 50 -10z m-4692 -28 c16 -41 -18 -83 -74 -91 -25 -4 -41 -19
-38 -35 5 -22 -3 -21 -40 3 -77 51 -66 123 17 109 50 -8 67 -3 67 18 0 40 53
37 68 -4z m686 -99 c19 -50 -42 -82 -93 -49 -24 15 -24 23 -2 49 33 41 79 41
95 0z m2067 -19 c17 -20 19 -37 5 -51 -29 -29 -86 0 -86 44 0 46 45 50 81 7z
m708 -3 c7 -18 0 -45 -15 -60 -38 -39 -94 -11 -94 46 0 58 88 69 109 14z"/>
<path d="M5989 6615 c-1 -36 -8 -90 -17 -120 -21 -72 40 -78 67 -7 49 128 48
192 -2 192 -39 0 -47 -10 -48 -65z"/>
<path d="M7346 6655 c30 -23 28 -41 -28 -232 -56 -193 -64 -297 -18 -251 24
24 140 412 140 467 0 33 -13 41 -64 41 -55 0 -59 -3 -30 -25z"/>
<path d="M3514 6373 c-42 -36 -116 -77 -165 -91 -111 -33 -114 -58 -6 -66 110
-8 143 -56 81 -121 -88 -95 -35 -103 78 -13 99 78 112 103 128 244 16 137 -3
144 -116 47z"/>
<path d="M4000 5537 c0 -15 -31 -18 -98 -9 -103 14 -202 -3 -427 -71 -146 -44
-165 -67 -83 -98 29 -11 90 -47 137 -80 l85 -61 121 72 c112 67 174 82 300 73
48 -3 65 -63 18 -63 -154 0 -218 -286 -92 -418 l58 -60 305 9 c375 12 349 -12
-74 -69 -165 -23 -444 -64 -620 -92 -176 -28 -491 -74 -700 -102 -422 -58
-437 -61 -422 -85 27 -43 624 -23 846 28 970 225 1098 251 1016 210 -50 -25
-513 -194 -775 -282 -108 -36 -189 -73 -180 -82 45 -45 266 22 764 233 484
205 572 250 488 250 -30 0 -30 4 3 40 50 56 59 53 218 -65 484 -359 652 -368
652 -32 0 174 -33 179 -44 7 -6 -99 -18 -141 -50 -173 l-43 -43 -108 61 c-102
58 -566 399 -675 496 -366 327 -620 493 -620 406z m342 -330 c126 -78 131 -86
93 -147 -20 -32 -19 -48 2 -82 34 -54 43 -51 -183 -64 -227 -13 -275 12 -273
145 1 195 172 265 361 148z"/>
<path d="M2840 4100 c-16 -11 -100 -20 -185 -20 -152 0 -206 -27 -105 -52 76
-19 68 -118 -20 -248 -38 -57 -70 -108 -70 -112 0 -12 -65 -90 -117 -140 -26
-26 -94 -56 -155 -68 -134 -28 -137 -58 -13 -136 91 -57 537 -244 583 -244 12
0 22 -7 22 -15 0 -8 52 -17 115 -18 109 -4 309 -65 306 -94 -3 -34 1 -36 29
-13 16 13 43 19 61 13 17 -7 47 -2 66 10 25 16 69 16 148 3 62 -11 125 -12
139 -3 20 13 20 16 -3 17 -61 0 50 55 189 92 595 160 1337 -61 1461 -435 42
-127 78 -128 60 -2 -51 370 -236 495 -845 573 -418 54 -478 78 -473 190 2 35
-7 62 -20 62 -14 0 -12 8 5 18 32 21 11 66 -27 58 -14 -4 -43 15 -64 40 -20
25 -59 47 -87 49 -27 2 -54 9 -60 16 -100 128 -404 299 -694 390 -110 34 -174
64 -160 73 16 10 10 15 -16 15 -22 0 -53 -8 -70 -19z m127 -145 c35 -36 79
-87 96 -115 27 -40 38 -45 59 -25 58 56 193 30 286 -55 47 -44 105 -80 128
-80 68 0 104 -22 135 -82 18 -34 71 -79 130 -109 130 -65 158 -123 106 -212
-94 -161 -207 -154 -207 12 0 140 -16 139 -155 -4 -121 -124 -159 -110 -107
39 84 240 -6 300 -178 120 -239 -252 -295 -238 -230 56 54 245 25 263 -121 75
-176 -226 -333 -335 -302 -210 5 25 26 153 44 285 39 277 50 304 136 341 91
40 110 36 180 -36z m0 -459 c-81 -313 81 -362 336 -103 105 107 128 110 85 12
-44 -100 -66 -216 -47 -247 24 -39 164 11 236 82 75 76 90 75 73 -1 -8 -36 -4
-72 10 -89 47 -57 -1 -70 -262 -70 -257 0 -330 15 -364 73 -17 29 -100 34
-164 9 -42 -17 -163 8 -205 42 -35 29 1 85 75 116 37 15 99 77 153 153 109
153 108 153 74 23z"/>
<path d="M2723 3755 c-50 -330 -51 -340 -6 -316 56 29 72 60 45 87 -39 39 -24
93 60 206 92 126 90 168 -9 168 l-67 0 -23 -145z"/>
<path d="M3130 3736 c-12 -35 -90 -362 -90 -381 0 -27 74 -16 100 15 17 21 18
30 2 30 -31 0 -28 83 5 131 31 43 38 204 10 221 -9 6 -22 -1 -27 -16z"/>
<path d="M3467 3610 c-6 -17 0 -44 13 -61 17 -20 21 -61 13 -122 l-13 -93 45
38 c25 21 48 39 52 41 13 7 -65 227 -81 227 -10 0 -22 -14 -29 -30z"/>
<path d="M3752 3428 c-18 -46 -15 -208 4 -208 9 0 12 30 8 68 -4 37 2 86 14
109 13 23 14 45 4 52 -10 6 -23 -3 -30 -21z"/>
<path d="M2795 3314 c-70 -58 -69 -74 5 -74 53 0 60 7 60 60 0 71 4 70 -65 14z"/>
<path d="M3153 3245 l-77 -53 44 -36 c57 -46 86 -46 71 1 -7 22 5 58 30 90 52
66 31 66 -68 -2z"/>
<path d="M5749 3779 c-167 -64 -219 -133 -178 -236 44 -110 89 -101 89 18 0
48 74 99 144 99 52 0 172 -166 222 -305 25 -68 60 -38 47 40 -60 375 -130 459
-324 384z"/>
<path d="M3911 2049 c-39 -29 -31 -37 36 -30 22 3 32 -4 24 -17 -7 -12 1 -22
18 -22 29 0 29 5 -1 50 -18 28 -34 50 -35 49 -2 0 -20 -13 -42 -30z"/>
<path d="M1919 8939 c78 -66 101 -73 101 -30 0 17 -27 44 -59 60 -95 50 -117
34 -42 -30z"/>
<path d="M2160 8970 c-14 -16 -42 -30 -64 -30 -62 0 -38 -84 29 -102 63 -17
65 -14 83 87 14 78 -5 97 -48 45z"/>
<path d="M3461 8963 c34 -27 41 -47 29 -75 -9 -21 -14 -59 -11 -86 4 -45 0
-46 -72 -32 -42 9 -98 15 -124 13 -26 -2 -57 4 -70 12 -13 8 -62 16 -110 17
-68 2 -97 15 -130 55 -25 30 -77 60 -123 70 -44 10 -96 25 -115 33 -27 11 -35
4 -35 -28 0 -50 2 -50 -72 -14 -32 16 -109 33 -170 39 l-113 11 -14 -163 c-12
-137 -9 -167 17 -186 18 -13 32 -35 32 -49 0 -19 -7 -19 -27 -3 -15 13 -32 17
-38 11 -29 -29 -137 62 -126 105 11 45 -19 67 -91 67 -21 0 -38 11 -38 25 0
13 -25 -2 -55 -35 -34 -37 -48 -66 -35 -75 12 -9 10 -15 -6 -15 -18 0 -23 -15
-15 -45 10 -37 7 -35 -19 9 -32 57 -77 58 -99 2 -23 -60 150 -173 195 -128 16
16 10 22 -22 22 -51 0 -57 24 -14 60 24 20 32 19 40 -4 8 -19 38 -27 95 -24
74 4 80 1 48 -22 -25 -19 -29 -30 -12 -41 15 -9 20 -43 13 -91 -5 -42 -4 -76
3 -75 40 5 61 -6 53 -28 -14 -38 12 -68 90 -101 41 -18 55 -31 35 -32 -20 -1
-52 8 -72 21 -54 34 -155 5 -122 -34 18 -21 31 -24 50 -8 31 25 59 -8 37 -44
-9 -15 -5 -18 10 -8 14 8 40 1 58 -15 19 -17 59 -37 89 -45 34 -8 55 -27 55
-49 0 -20 13 -41 29 -47 39 -15 50 51 13 79 -42 32 -13 94 37 78 46 -14 181 8
181 30 0 8 -54 21 -120 28 -141 16 -266 56 -256 82 9 29 96 28 196 -2 120 -37
119 -37 107 37 -10 69 61 146 91 98 8 -12 24 -14 41 -4 23 15 22 23 -4 49 -32
32 -92 25 -118 -14 -21 -32 -59 7 -46 48 13 41 -21 54 -38 13 -6 -16 -10 -13
-11 8 -1 18 -16 38 -33 45 -17 6 -26 21 -19 31 6 11 -11 26 -39 33 -55 13 -70
48 -22 48 20 0 25 12 17 35 -12 31 -9 32 20 8 24 -20 34 -21 34 -4 0 13 8 18
18 12 11 -6 32 2 49 19 17 16 40 30 52 30 31 0 26 15 -19 60 -62 62 -55 110
10 68 28 -18 50 -39 50 -47 0 -8 25 -26 55 -39 49 -23 51 -27 18 -45 -34 -20
-34 -22 -1 -59 19 -22 40 -30 47 -20 16 26 121 44 121 21 0 -10 13 -13 29 -7
16 7 40 -7 55 -30 14 -23 37 -42 51 -42 14 0 25 -10 25 -21 0 -12 -11 -15 -23
-7 -16 10 -20 4 -11 -19 18 -45 -34 -65 -96 -36 -39 17 -46 16 -38 -6 14 -35
111 -53 144 -26 18 15 32 15 49 -2 58 -58 104 -26 140 97 34 115 94 178 67 70
-15 -60 20 -68 38 -9 11 33 19 36 41 18 16 -13 24 -32 18 -41 -7 -10 4 -24 24
-32 20 -7 38 -3 42 10 5 13 18 24 30 24 12 0 39 15 59 34 36 32 38 31 49 -9 6
-24 28 -49 49 -56 21 -6 38 -19 38 -29 0 -9 5 -31 12 -48 9 -23 0 -32 -29 -32
-58 0 -72 -35 -18 -46 l45 -9 -45 -2 c-61 -4 -65 -102 -5 -117 99 -26 -8 -116
-121 -100 -67 9 -80 5 -70 -19 6 -17 11 -34 11 -39 0 -5 23 -18 50 -28 58 -22
65 -54 15 -65 -19 -4 55 -14 165 -22 380 -27 590 -25 590 7 0 13 -127 20 -340
20 l-339 0 22 49 c27 58 71 66 432 78 279 9 270 14 253 -136 -12 -97 -19 -110
-51 -100 -20 6 -47 5 -59 -2 -31 -19 -358 -27 -358 -8 0 19 -206 36 -220 18
-26 -33 -120 -39 -120 -8 0 17 -9 26 -19 20 -11 -7 -15 -25 -9 -40 6 -15 1
-33 -11 -40 -12 -8 -20 -3 -16 11 3 14 -13 29 -35 33 -22 4 -51 11 -65 16 -14
4 -28 6 -32 3 -4 -2 -21 8 -38 22 -30 25 -195 26 -195 1 0 -7 -23 -18 -51 -25
-59 -15 -47 -51 17 -53 43 -2 43 -2 4 -21 -29 -13 -10 -16 66 -9 59 5 124 1
145 -10 22 -10 59 -30 84 -43 25 -13 77 -26 115 -29 77 -4 228 -36 288 -59 29
-11 35 -8 22 12 -16 25 18 22 135 -12 23 -7 35 0 35 21 0 48 36 37 44 -14 6
-47 66 -53 106 -11 14 15 6 18 -27 10 -26 -6 -42 -6 -35 1 21 21 -32 65 -80
65 -27 0 -48 9 -48 20 0 11 -38 20 -83 20 -207 0 -27 29 208 34 144 3 293 15
330 28 36 12 81 16 98 9 18 -6 44 -1 60 11 21 18 27 16 27 -10 0 -33 -17 -39
-97 -32 -32 2 -43 -4 -33 -20 8 -12 26 -18 40 -13 14 5 35 0 47 -12 15 -15 29
-15 49 2 15 12 33 17 40 10 7 -7 25 -4 39 7 28 23 134 43 281 54 94 8 169 -28
144 -69 -15 -24 96 -14 116 11 9 11 11 1 5 -21 -10 -38 -2 -42 89 -46 55 -3
99 2 98 11 -8 50 4 67 35 50 22 -13 83 -1 195 39 89 31 182 57 207 57 27 0 45
12 45 30 0 29 -22 38 -75 31 -14 -1 -23 9 -20 23 6 32 -231 29 -241 -3 -12
-35 -64 -23 -64 13 0 26 -5 29 -24 10 -13 -13 -40 -24 -60 -24 -46 0 -46 -32
-1 -58 29 -17 24 -21 -29 -21 -44 -1 -62 7 -55 24 12 33 -79 74 -133 60 -31
-8 -35 -15 -15 -27 21 -13 22 -21 2 -41 -20 -20 -25 -20 -25 1 0 17 -15 23
-42 16 -51 -14 -102 3 -87 28 17 28 -34 21 -98 -12 -75 -39 -113 -38 -113 3 0
31 -3 31 -36 0 -46 -41 -164 -67 -164 -35 0 12 -15 22 -32 22 -24 0 -30 13
-23 50 5 28 1 50 -9 50 -39 0 -4 91 44 113 70 32 627 52 656 23 16 -16 32 -15
57 6 25 20 30 21 19 2 -9 -14 -4 -40 11 -59 19 -23 20 -28 2 -18 -14 9 -25 7
-25 -3 0 -10 25 -19 55 -20 30 -1 87 -7 125 -14 40 -8 96 -2 130 12 33 13 71
23 85 20 14 -2 25 5 25 15 0 11 17 15 38 9 21 -5 59 4 85 20 26 16 103 41 172
56 120 25 176 78 83 78 -31 0 -39 9 -30 32 12 32 -24 31 -114 -3 -16 -6 -43 3
-60 20 -40 40 -47 39 -60 -10 -12 -47 -70 -47 -108 1 -36 44 -32 81 7 66 23
-9 29 -5 19 11 -8 12 -5 23 7 23 11 0 21 -9 21 -20 0 -11 17 -3 39 19 32 32
50 35 109 19 73 -20 152 2 152 43 0 38 -61 44 -98 11 -31 -29 -39 -29 -48 -5
-6 16 -48 35 -93 43 -44 7 -81 21 -81 30 0 9 -20 11 -45 5 -25 -6 -39 -4 -31
5 8 8 -3 38 -25 65 -21 28 -39 62 -39 77 0 14 -8 30 -17 36 -25 15 -13 -86 22
-183 17 -47 23 -90 13 -96 -10 -6 -3 -33 15 -61 43 -65 -5 -123 -109 -132 -76
-6 -95 -28 -65 -75 18 -28 181 -5 250 35 11 6 38 14 60 17 23 4 56 9 75 12 18
3 36 -4 40 -14 3 -11 -34 -27 -84 -35 -49 -8 -151 -43 -227 -78 -153 -70 -171
-65 -176 56 -3 81 -4 82 -49 53 -32 -21 -67 -26 -112 -16 -105 22 -162 89 -76
89 95 0 122 156 37 216 -49 35 -47 63 3 50 33 -9 40 -1 38 47 -3 81 -26 157
-49 157 -68 1 -84 52 -34 102 33 34 33 35 0 23 -26 -10 -35 -4 -35 26 0 21
-13 39 -30 39 -51 0 -42 -221 10 -234 43 -11 54 -75 18 -97 -13 -8 -18 -42
-12 -79 l11 -65 -154 -14 c-84 -8 -274 -18 -423 -22 -148 -4 -381 -12 -517
-18 -288 -13 -284 -14 -262 84 10 45 9 83 -2 94 -10 10 -19 60 -19 110 0 50
-10 125 -21 166 l-21 75 -141 0 c-141 0 -141 0 -96 -37z m-961 -92 c0 -25 -18
-61 -39 -81 -59 -52 -99 49 -50 124 37 57 89 32 89 -43z m1140 59 c0 -16 11
-28 25 -25 15 3 28 -22 31 -62 5 -44 -1 -63 -15 -54 -11 7 -21 31 -21 53 0 22
-9 35 -19 29 -10 -7 -28 6 -40 27 -28 52 -27 62 9 62 17 0 30 -13 30 -30z
m2100 -390 c0 -11 14 -20 31 -20 17 0 26 -9 19 -21 -15 -23 -70 -18 -103 11
-12 11 -19 27 -14 35 14 22 67 18 67 -5z m-3389 -58 c-6 -10 23 -24 64 -31
146 -26 161 -34 105 -57 -50 -21 -50 -21 16 -32 36 -7 63 -21 60 -32 -7 -23
-15 -22 -144 33 -89 37 -100 38 -116 8 -10 -17 -26 -27 -36 -21 -26 16 -10
111 22 132 36 22 43 22 29 0z m2684 -26 c-9 -28 -128 -58 -168 -42 -48 18 -3
50 55 39 31 -7 62 -3 68 8 18 28 55 23 45 -5z m-279 -20 c-78 -53 -175 -93
-185 -77 -19 30 87 98 151 97 42 -2 52 -8 34 -20z m-467 -14 c12 -20 -307 -42
-339 -24 -11 7 48 17 130 23 83 7 161 13 174 15 13 2 29 -4 35 -14z m133 -27
c2 -25 1 -61 -1 -80 -2 -20 10 -35 28 -35 17 0 31 -2 31 -5 0 -3 -14 -49 -30
-103 -27 -89 -27 -102 2 -134 40 -44 21 -78 -43 -78 -54 0 -71 90 -26 135 16
16 17 31 3 49 -31 40 -47 247 -20 274 34 34 54 26 56 -23z m-514 8 c6 -9 -13
-28 -43 -42 -38 -17 -56 -18 -61 -3 -4 12 -25 22 -47 22 -22 0 -34 9 -27 20
15 24 163 27 178 3z m324 -140 c-11 -17 -210 -12 -228 7 -6 5 45 10 114 10 68
0 120 -8 114 -17z"/>
<path d="M3874 8960 c8 -31 1 -40 -32 -40 -23 0 -42 -7 -42 -17 0 -36 27 -40
80 -13 30 16 61 23 67 16 22 -21 14 -126 -8 -126 -34 0 0 -82 62 -154 56 -65
79 -66 79 -5 0 19 14 40 30 46 17 7 30 24 30 38 0 89 200 71 229 -21 7 -24 27
-36 56 -32 25 2 52 5 60 6 8 1 15 16 15 32 0 17 12 30 28 30 15 0 40 20 57 45
l29 44 98 -79 c54 -44 101 -86 105 -95 12 -27 97 -16 125 17 23 28 18 31 -43
25 -59 -6 -70 0 -75 38 -4 25 -26 55 -50 68 -87 45 -152 125 -141 172 10 38 3
45 -41 45 -29 0 -52 -10 -52 -21 0 -12 -8 -16 -19 -10 -34 22 -45 -31 -13 -67
41 -45 41 -82 -1 -82 -18 0 -43 -14 -55 -31 -14 -19 -37 -26 -58 -18 -42 16
-45 61 -4 76 48 18 35 51 -25 65 -30 8 -66 22 -80 33 -19 15 -25 5 -25 -39 0
-78 -16 -91 -67 -55 -23 16 -63 29 -88 29 -31 0 -58 20 -81 60 -42 74 -168 91
-150 20z"/>
<path d="M4715 8962 c-12 -44 127 -127 213 -127 32 0 55 -14 63 -37 6 -21 20
-38 30 -38 24 0 -16 105 -47 124 -13 8 -24 22 -24 32 0 30 -66 84 -104 83 -34
0 -34 -1 -1 -21 39 -22 47 -58 13 -58 -12 0 -47 18 -78 40 -54 38 -56 38 -65
2z"/>
<path d="M5628 8985 c-25 -16 -14 -145 12 -145 8 0 31 -33 50 -73 26 -54 39
-65 52 -45 25 39 22 58 -8 58 -14 0 -27 25 -30 55 -2 30 -19 66 -37 79 -17 13
-27 38 -20 55 13 35 12 36 -19 16z"/>
<path d="M5690 8968 c-38 -30 -38 -31 20 -24 33 3 58 15 57 26 -6 31 -34 31
-77 -2z"/>
<path d="M1094 8967 c-7 -7 -4 -28 6 -48 32 -59 -25 -89 -98 -53 -72 36 -87
26 -57 -38 45 -100 192 -43 209 81 9 68 -21 97 -60 58z"/>
<path d="M5358 8915 c-2 -25 -1 -56 1 -70 4 -34 -41 -31 -95 6 -54 39 -57 15
-12 -104 34 -88 91 -102 82 -20 -3 36 6 42 56 40 60 -4 60 -3 53 95 -7 107
-80 152 -85 53z"/>
<path d="M7125 8927 c-56 -23 -22 -63 60 -72 137 -14 186 24 74 58 -96 29 -97
29 -134 14z"/>
<path d="M7380 8882 c0 -55 56 -97 72 -54 13 33 -22 92 -54 92 -10 0 -18 -17
-18 -38z"/>
<path d="M333 8835 c43 -68 8 -127 -38 -65 -8 11 -15 5 -15 -15 0 -19 14 -35
30 -35 17 0 30 -9 30 -19 0 -60 51 13 55 79 5 69 0 80 -36 80 -28 0 -36 -8
-26 -25z"/>
<path d="M7575 8818 c-44 -25 -46 -90 -3 -106 47 -18 68 3 68 69 0 63 -10 69
-65 37z"/>
<path d="M491 8756 c-25 -110 -20 -264 8 -247 11 7 14 27 7 44 -8 22 -3 29 16
23 15 -5 28 -19 28 -31 0 -12 7 -28 15 -37 8 -8 15 -4 15 8 0 13 12 18 27 12
15 -5 38 4 52 21 29 35 112 42 131 11 7 -11 23 -20 36 -19 13 0 8 12 -11 27
-19 14 -35 42 -35 60 0 19 -9 29 -20 22 -11 -7 -20 1 -20 16 0 16 -18 34 -40
40 -22 6 -35 3 -29 -7 17 -28 -13 -119 -40 -119 -47 0 -92 73 -86 140 6 76
-38 106 -54 36z"/>
<path d="M927 8690 c-18 -38 -16 -50 7 -59 60 -23 91 43 41 85 -19 16 -31 9
-48 -26z"/>
<path d="M220 8661 c0 -39 34 -74 53 -55 16 16 -13 94 -34 94 -11 0 -19 -17
-19 -39z"/>
<path d="M7530 8620 c-26 -29 -31 -47 -16 -62 30 -30 110 15 102 57 -9 48 -45
51 -86 5z"/>
<path d="M35 8626 c-56 -14 -40 -39 26 -39 33 0 57 9 53 20 -8 25 -33 31 -79
19z"/>
<path d="M1180 8622 c0 -27 89 -149 110 -151 11 0 23 28 26 64 7 66 -40 96
-63 40 -6 -16 -10 -13 -11 8 -2 32 -62 71 -62 39z"/>
<path d="M2580 8521 c0 -9 17 -13 38 -7 21 5 44 0 51 -12 18 -30 116 -28 107
1 -9 27 -196 45 -196 18z"/>
<path d="M5369 8518 c-8 -12 -2 -30 13 -40 20 -12 11 -20 -33 -29 -55 -11 -61
-19 -53 -71 9 -64 44 -101 44 -47 0 23 12 31 39 24 22 -6 43 1 49 17 6 16 38
28 74 28 49 0 60 7 50 32 -7 17 -12 35 -12 40 0 4 -14 8 -31 8 -16 0 -35 14
-42 30 -13 35 -78 40 -98 8z"/>
<path d="M98 8494 c-16 -48 -10 -75 17 -70 43 8 54 48 16 63 -17 6 -32 10 -33
7z"/>
<path d="M3500 8486 c-16 -6 -43 -23 -60 -36 -16 -14 -59 -32 -94 -39 -161
-34 -128 -112 50 -121 67 -3 130 -12 142 -19 12 -7 22 1 22 18 0 17 9 31 20
31 28 0 25 38 -6 69 -16 16 -50 22 -83 16 -42 -8 -54 -4 -47 17 5 15 29 31 53
34 23 4 43 15 43 25 0 11 -2 18 -5 17 -3 0 -18 -6 -35 -12z"/>
<path d="M862 8462 c-34 -22 -12 -62 35 -62 20 0 36 17 38 40 3 42 -27 51 -73
22z"/>
<path d="M2064 8435 c-13 -25 -36 -153 -52 -285 -16 -132 -35 -259 -42 -282
-10 -33 8 -63 83 -136 l97 -94 7 66 c3 36 -9 159 -29 274 -32 186 -32 209 -4
230 23 17 26 35 13 71 -10 27 -14 61 -8 76 32 82 -28 153 -65 80z"/>
<path d="M436 8446 c-36 -70 40 -105 96 -44 30 33 30 38 3 38 -18 0 -45 5 -61
11 -17 7 -34 4 -38 -5z"/>
<path d="M1921 8396 c3 -114 36 -161 38 -52 0 51 -8 99 -19 106 -12 7 -19 -14
-19 -54z"/>
<path d="M6060 8440 c0 -11 8 -20 19 -20 10 0 30 -12 45 -27 30 -30 116 -10
116 27 0 13 -15 11 -40 -4 -31 -20 -44 -20 -65 2 -19 22 -19 25 0 14 14 -8 25
-5 25 7 0 11 -22 21 -50 21 -27 0 -50 -9 -50 -20z"/>
<path d="M6710 8441 c-17 -29 -32 -161 -17 -161 27 0 112 108 90 116 -13 4
-23 20 -23 36 0 32 -32 38 -50 9z"/>
<path d="M8809 8438 c-7 -12 -3 -32 10 -45 25 -25 68 20 49 51 -14 23 -43 20
-59 -6z"/>
<path d="M200 8395 c0 -45 23 -44 63 3 31 35 30 37 -15 35 -31 -2 -48 -15 -48
-38z"/>
<path d="M1000 8369 c0 -16 9 -29 20 -29 11 0 20 -29 20 -64 0 -47 6 -58 22
-42 29 29 5 139 -33 154 -17 6 -29 -1 -29 -19z"/>
<path d="M2854 8368 c13 -35 112 -54 189 -37 45 10 58 7 47 -10 -8 -14 -3 -22
13 -20 62 9 97 -3 97 -31 0 -16 10 -30 22 -30 19 0 9 104 -15 144 -19 33 -244
12 -232 -22 11 -29 9 -29 -27 0 -45 39 -108 42 -94 6z"/>
<path d="M6820 8340 c-18 -34 -14 -44 29 -63 63 -29 74 -19 55 44 -18 62 -56
70 -84 19z"/>
<path d="M8900 8350 c0 -16 14 -30 30 -30 17 0 30 -9 30 -20 0 -11 9 -20 20
-20 11 0 20 23 20 50 0 40 -10 50 -50 50 -31 0 -50 -11 -50 -30z"/>
<path d="M580 8332 c0 -93 68 -108 170 -39 37 26 35 27 -21 16 -43 -9 -69 -3
-88 19 -32 40 -61 41 -61 4z"/>
<path d="M6530 8331 c-44 -15 -64 -28 -45 -29 19 -1 33 -13 30 -27 -3 -13 15
-27 40 -31 30 -4 45 3 45 23 0 17 14 44 31 62 39 38 12 39 -101 2z"/>
<path d="M288 8308 c7 -17 12 -40 12 -50 0 -10 13 -18 28 -18 15 0 33 -14 40
-31 11 -29 15 -29 42 -2 38 38 38 53 0 53 -16 0 -48 18 -70 40 -48 48 -69 51
-52 8z"/>
<path d="M176 8256 c13 -13 24 -40 24 -60 0 -20 9 -36 20 -36 33 0 23 95 -12
108 -48 18 -58 14 -32 -12z"/>
<path d="M2681 8240 c38 -74 71 -100 128 -100 32 0 51 -11 51 -30 0 -21 22
-30 75 -32 41 0 89 -4 105 -7 168 -31 298 -30 286 2 -11 28 -3 31 46 22 54
-11 59 -8 57 41 -2 48 -10 53 -62 48 -34 -4 -70 6 -83 21 -33 40 -146 20 -159
-28 -5 -20 -22 -37 -37 -37 -16 0 -28 -9 -28 -20 0 -11 -14 -20 -31 -20 -22 0
-28 12 -19 39 14 46 -52 90 -112 75 -21 -6 -43 -2 -49 8 -6 10 -41 18 -76 18
-36 0 -77 11 -91 25 -22 21 -22 16 -1 -25z"/>
<path d="M6427 8210 c0 -33 13 -36 61 -18 40 15 22 48 -26 48 -19 0 -35 -13
-35 -30z"/>
<path d="M6900 8222 c0 -11 -11 -17 -25 -12 -55 21 -72 -18 -53 -120 10 -55
13 -125 7 -155 -18 -79 14 -68 77 29 57 88 68 145 33 167 -11 7 -15 29 -9 49
6 20 2 42 -9 49 -12 8 -21 4 -21 -7z"/>
<path d="M6060 8180 c0 -10 9 -23 20 -30 35 -22 -1 -52 -47 -40 -34 10 -37 8
-13 -9 23 -16 14 -18 -35 -8 -42 8 -65 4 -65 -10 0 -35 9 -53 23 -49 7 3 18
-8 24 -25 7 -16 1 -29 -13 -30 -13 0 3 -15 35 -33 41 -22 61 -25 67 -9 11 35
140 89 184 77 22 -6 45 -2 51 8 6 10 29 18 50 18 22 0 39 14 39 31 0 23 -8 26
-37 10 -21 -11 -43 -14 -50 -7 -7 6 -26 0 -42 -13 -17 -14 -45 -20 -63 -13
-18 7 -43 5 -56 -5 -45 -37 -152 -48 -152 -17 0 18 29 35 75 44 92 17 150 46
136 69 -16 26 -131 62 -131 41z"/>
<path d="M360 8140 c0 -10 -22 -25 -50 -32 -27 -7 -50 -20 -50 -30 0 -24 35
-23 50 1 19 31 110 -21 110 -62 0 -20 9 -37 20 -37 25 0 25 13 0 60 -14 26
-13 42 1 51 14 8 8 23 -15 40 -43 33 -66 36 -66 9z"/>
<path d="M551 8062 c-15 -48 -6 -73 25 -66 16 4 45 -9 66 -28 36 -32 38 -32
38 1 0 19 -17 39 -39 45 -22 6 -34 21 -28 38 6 15 19 23 28 18 9 -6 22 -2 28
8 6 11 -15 19 -48 18 -37 -1 -64 -15 -70 -34z"/>
<path d="M4890 8079 c-55 -8 -152 -16 -216 -17 -81 -1 -112 -9 -102 -25 13
-21 45 -20 481 13 46 3 100 16 120 27 45 26 -122 27 -283 2z"/>
<path d="M1070 8026 c4 -20 8 -48 8 -62 1 -15 10 -22 19 -16 25 16 17 97 -10
106 -14 5 -21 -7 -17 -28z"/>
<path d="M2622 8013 c-25 -31 3 -64 58 -71 85 -11 285 -18 255 -9 -73 21 -34
50 50 38 67 -10 77 -8 49 10 -20 12 -103 22 -186 21 -91 0 -145 7 -138 19 19
30 -62 22 -88 -8z"/>
<path d="M1000 8007 c0 -10 -33 -15 -73 -10 -50 5 -68 1 -59 -14 18 -29 125
-30 143 -2 7 12 8 27 1 34 -7 6 -12 3 -12 -8z"/>
<path d="M6698 7900 c-12 -90 -8 -117 13 -95 6 6 9 50 5 98 l-6 87 -12 -90z"/>
<path d="M6887 7885 c-95 -118 -170 -245 -157 -266 7 -10 -2 -13 -19 -7 -36
14 -40 -9 -9 -52 12 -17 25 -21 30 -10 54 127 154 190 113 72 -7 -21 0 -19 22
8 17 22 32 49 32 60 0 11 -9 7 -21 -10 -18 -25 -20 -24 -10 7 7 20 12 41 12
46 0 5 8 4 19 -2 27 -17 39 12 50 126 12 123 13 123 -62 28z"/>
<path d="M4309 7825 c57 -6 71 -13 50 -26 -24 -15 -23 -18 6 -19 19 0 35 14
35 30 0 22 -21 29 -85 27 l-85 -4 79 -8z"/>
<path d="M145 7770 c3 -36 15 -50 44 -48 23 0 30 6 16 11 -14 6 -25 28 -25 49
0 21 -9 38 -20 38 -11 0 -18 -22 -15 -50z"/>
<path d="M7905 7739 c-25 -10 -44 -34 -43 -53 2 -34 3 -34 12 -1 11 43 25 44
82 4 30 -21 65 -28 104 -19 72 16 80 50 11 50 -27 0 -54 9 -61 20 -15 24 -44
24 -105 -1z"/>
<path d="M8216 7689 c-7 -61 -3 -70 28 -62 22 6 36 -2 36 -19 0 -37 29 -36 60
2 20 25 19 30 -8 30 -18 0 -41 22 -51 48 -30 77 -56 77 -65 1z"/>
<path d="M8803 7705 c-32 -34 -40 -55 -24 -64 13 -8 20 -24 17 -36 -3 -11 3
-24 14 -28 11 -4 20 11 20 33 0 47 101 62 118 17 19 -50 52 -28 52 34 0 51 -6
60 -37 50 -22 -7 -48 1 -63 19 -32 38 -40 36 -97 -25z"/>
<path d="M1960 7683 c0 -61 2 -63 33 -33 30 30 30 35 0 66 -31 30 -33 28 -33
-33z"/>
<path d="M455 7685 c-20 -39 0 -76 43 -82 38 -5 45 1 35 27 -7 18 -13 42 -13
52 0 22 -54 24 -65 3z"/>
<path d="M8510 7668 c-17 -18 -28 -37 -23 -42 14 -14 93 33 93 55 0 29 -33 23
-70 -13z"/>
<path d="M5380 7665 c0 -11 18 -25 41 -31 22 -6 38 -21 35 -35 -4 -14 20 -25
59 -26 36 -2 65 4 65 13 0 9 9 11 20 4 25 -15 26 10 2 48 -21 33 -222 57 -222
27z"/>
<path d="M4353 7589 c8 -21 -2 -35 -30 -43 -43 -11 -58 -54 -26 -74 9 -6 34 3
55 20 21 17 25 25 8 19 -16 -7 -10 2 14 20 45 33 42 89 -6 89 -16 0 -22 -12
-15 -31z"/>
<path d="M8618 7502 c-1 -29 -1 -74 2 -100 3 -36 -4 -45 -28 -35 -18 6 -32 3
-32 -8 0 -10 -18 -19 -40 -19 -48 0 -53 -36 -7 -54 20 -7 43 1 59 23 27 37 68
27 68 -17 0 -14 13 -25 29 -25 16 0 25 7 19 16 -6 10 -1 17 11 17 11 0 19 7
18 15 -2 8 8 40 23 70 28 59 -9 113 -77 114 -21 1 -22 8 -6 28 17 20 15 26 -7
26 -18 0 -31 -20 -32 -51z"/>
<path d="M8873 7367 c-7 -8 -13 -50 -13 -94 0 -44 -7 -73 -15 -65 -15 16 -18
26 -22 85 -4 44 -22 25 -33 -33 -6 -33 7 -60 46 -93 48 -41 47 -57 -1 -49 -32
5 -13 -58 24 -77 81 -44 142 0 76 55 -16 13 -24 68 -22 152 4 123 -6 152 -40
119z"/>
<path d="M200 7239 c0 -11 16 -26 35 -33 19 -7 42 -23 50 -35 8 -12 15 -1 15
25 0 26 -9 41 -20 34 -11 -7 -20 -3 -20 9 0 11 -13 21 -30 21 -16 0 -30 -9
-30 -21z"/>
<path d="M338 7165 c-2 -19 -1 -46 1 -60 1 -14 -18 -25 -43 -25 l-45 0 49 -35
c28 -19 63 -36 79 -38 17 -3 41 -19 54 -37 15 -21 28 -25 36 -11 7 11 4 21 -8
21 -11 0 -21 19 -21 41 0 23 9 36 20 29 11 -7 20 -3 20 9 0 20 -40 30 -95 22
-14 -1 -25 7 -25 18 0 12 11 19 24 16 13 -3 26 15 27 40 3 32 -8 45 -34 45
-21 0 -38 -15 -39 -35z"/>
<path d="M80 7024 c0 -64 144 -186 214 -181 87 7 62 47 -46 78 -65 18 -98 41
-119 82 -35 66 -49 72 -49 21z"/>
<path d="M8840 6746 c0 -69 36 -166 63 -166 21 0 -2 114 -36 179 l-27 51 0
-64z"/>
<path d="M11 6721 c-16 -25 20 -44 101 -55 54 -7 66 -3 57 20 -18 46 -136 72
-158 35z"/>
<path d="M467 6670 c-32 -37 -36 -50 -15 -50 15 0 43 17 60 37 26 30 46 35
100 23 68 -16 95 5 36 28 -66 25 -139 10 -181 -38z"/>
<path d="M220 6620 c0 -22 5 -24 85 -29 30 -1 55 5 55 14 0 10 10 11 23 3 14
-9 18 -5 9 9 -18 28 -172 31 -172 3z"/>
<path d="M680 6582 c0 -32 -11 -62 -24 -67 -16 -5 -13 -12 7 -20 38 -14 88 67
70 114 -20 52 -53 35 -53 -27z"/>
<path d="M40 6480 c0 -11 18 -21 40 -22 22 -2 55 -4 73 -5 19 -2 37 6 40 17 4
11 -29 22 -73 25 -45 4 -80 -3 -80 -15z"/>
<path d="M342 6125 c-1 -36 7 -65 19 -65 11 0 18 -15 15 -34 -10 -56 442 -87
525 -35 13 7 119 12 236 10 117 -2 312 -5 433 -7 l219 -3 5 58 c2 32 14 64 27
71 12 8 -5 13 -39 12 -35 -1 -62 -13 -62 -27 0 -14 -10 -25 -21 -25 -12 0 -16
9 -9 20 16 26 -33 26 -102 -1 -30 -11 -104 -21 -165 -22 -61 -1 -126 -11 -146
-24 -27 -16 -42 -16 -61 3 -29 29 -348 33 -366 4 -7 -11 -26 -20 -42 -20 -17
0 -25 9 -18 20 7 11 -2 20 -20 20 -18 0 -27 -9 -20 -20 7 -11 3 -20 -9 -20
-11 0 -21 8 -21 18 0 10 -25 14 -55 10 -118 -20 -163 -21 -153 -5 6 9 -4 17
-22 17 -18 0 -27 -9 -19 -22 10 -15 1 -15 -29 1 -27 14 -42 42 -42 77 -1 38
-6 46 -18 27 -14 -23 -19 -23 -28 0 -6 15 -12 -2 -12 -38z"/>
<path d="M82 6032 c-18 -21 -16 -30 6 -38 18 -7 25 -27 18 -53 -11 -44 -6 -48
42 -29 18 7 27 20 21 30 -6 10 3 12 20 6 63 -25 27 52 -42 89 -33 17 -48 16
-65 -5z"/>
<path d="M1829 5998 c-7 -11 -10 -23 -6 -26 20 -16 214 -44 205 -29 -6 9 4 17
21 17 17 0 31 -7 31 -17 0 -9 13 -16 30 -16 42 0 -4 53 -47 54 -25 1 -24 6 7
19 38 16 38 17 -5 19 -25 0 -45 -8 -45 -18 0 -11 -11 -16 -25 -12 -75 23 -155
27 -166 9z"/>
<path d="M1053 5771 c-11 -29 97 -68 122 -43 6 7 -3 12 -22 12 -18 0 -33 14
-33 30 0 38 -52 39 -67 1z"/>
<path d="M100 5663 c0 -26 19 -42 60 -50 33 -7 60 -21 60 -32 0 -11 -13 -15
-30 -8 -16 6 -30 1 -30 -11 0 -28 53 -29 70 -2 7 12 21 15 31 9 11 -6 19 -2
19 9 0 29 -83 103 -102 91 -8 -5 -21 -1 -28 11 -20 33 -50 23 -50 -17z"/>
<path d="M415 5621 c-86 -27 -116 -66 -78 -101 27 -25 29 -24 17 6 -11 29 0
34 67 34 52 0 77 -8 74 -25 -4 -18 34 -25 135 -25 77 -1 167 -11 200 -24 64
-25 192 -43 316 -45 59 -1 79 -11 91 -45 14 -37 32 -44 125 -45 78 -1 107 -8
103 -27 -4 -18 10 -15 43 10 61 46 45 73 -37 60 -36 -6 -77 -2 -93 7 -20 13
-11 19 32 20 148 4 312 39 185 39 -29 0 -58 9 -65 20 -7 11 -21 20 -32 20 -11
0 -15 -9 -7 -21 13 -22 -55 -16 -116 10 -19 8 -48 10 -63 4 -16 -6 -34 2 -40
18 -7 18 -39 29 -88 29 -43 0 -105 14 -139 30 -103 52 -521 85 -630 51z"/>
<path d="M1812 5448 c-15 -39 1 -68 39 -68 37 0 37 35 1 71 -24 24 -30 24 -40
-3z"/>
<path d="M180 5274 c0 -38 42 -74 86 -74 21 0 42 -18 48 -40 6 -22 20 -40 31
-40 11 0 15 18 9 40 -6 22 -2 35 8 29 10 -6 18 -27 18 -47 0 -56 71 -108 131
-97 33 6 56 0 63 -17 8 -21 15 -22 36 -2 14 13 49 41 78 62 60 43 69 92 16 92
-20 0 -81 21 -135 47 -150 72 -189 81 -189 44 0 -35 -51 -42 -70 -11 -7 12
-21 16 -30 10 -9 -6 -23 -2 -30 10 -18 29 -70 25 -70 -6z m386 -79 c101 -38
130 -67 97 -100 -16 -16 -30 -18 -39 -4 -8 11 -40 19 -71 19 -36 -1 -69 14
-93 44 -19 25 -48 46 -63 46 -21 1 -20 5 3 21 32 21 44 19 166 -26z"/>
<path d="M914 5039 c-10 -37 -5 -40 53 -28 79 17 89 26 52 50 -49 31 -94 21
-105 -22z"/>
<path d="M1133 5007 c-25 -26 -13 -64 25 -76 92 -29 120 -29 108 2 -8 20 -16
23 -25 8 -9 -15 -28 -10 -57 16 -24 20 -37 43 -30 50 7 7 8 13 3 13 -6 0 -16
-6 -24 -13z"/>
<path d="M291 4961 c-6 -9 14 -23 44 -30 30 -8 61 -25 69 -38 10 -15 15 -12
16 10 0 36 -112 86 -129 58z"/>
<path d="M660 4961 c0 -10 9 -24 20 -31 12 -7 15 -21 9 -31 -6 -11 20 -19 59
-19 46 0 77 -12 90 -35 10 -19 26 -28 35 -19 9 9 4 24 -11 33 -20 12 -16 23
17 46 40 28 40 31 7 44 -79 32 -126 32 -126 1 0 -16 -13 -30 -30 -30 -16 0
-30 14 -30 30 0 17 -9 30 -20 30 -11 0 -20 -8 -20 -19z"/>
<path d="M474 4739 c-9 -36 -21 -41 -71 -30 -32 7 -64 6 -70 -4 -5 -9 5 -18
23 -19 19 -2 59 -10 89 -17 50 -12 55 -9 55 40 0 50 5 54 70 45 38 -5 66 -3
61 4 -23 37 -146 22 -157 -19z"/>
<path d="M75 4608 c-19 -19 7 -68 36 -68 14 0 44 -23 66 -51 34 -43 47 -48 82
-30 57 31 51 53 -14 52 -54 -1 -125 50 -125 89 0 22 -27 27 -45 8z"/>
<path d="M540 4599 c0 -11 14 -25 30 -32 17 -6 28 -26 25 -44 -6 -39 78 -58
111 -25 16 16 12 22 -13 22 -19 0 -56 23 -81 50 -50 53 -72 63 -72 29z"/>
<path d="M0 4455 c1 -37 36 -86 51 -71 17 18 -9 96 -32 96 -11 0 -19 -11 -19
-25z"/>
<path d="M8915 4438 c-19 -11 -44 -15 -55 -8 -12 7 -20 -17 -20 -59 0 -39 -2
-78 -4 -86 -2 -8 13 -18 33 -22 28 -5 34 2 26 34 -6 25 1 45 18 52 16 6 24 19
18 29 -6 10 -1 22 12 26 13 5 19 18 15 31 -6 16 -19 16 -43 3z"/>
<path d="M530 4421 c-6 -11 6 -35 28 -54 22 -19 35 -42 30 -51 -6 -9 4 -16 21
-16 18 0 31 17 31 41 0 23 -8 36 -19 30 -10 -6 -24 7 -31 29 -14 43 -40 52
-60 21z"/>
<path d="M673 4327 c-25 -25 -13 -47 25 -47 21 0 43 14 49 30 12 31 -47 44
-74 17z"/>
<path d="M8813 4183 c-29 -32 -30 -41 -6 -61 23 -19 31 -13 42 30 17 68 6 77
-36 31z"/>
<path d="M8950 3421 c-80 -32 -184 -61 -243 -68 -78 -9 -165 -90 -124 -115 26
-17 0 -28 -49 -20 -29 5 -40 -62 -12 -80 21 -13 17 -17 -16 -18 -50 0 -80
-100 -57 -191 15 -61 62 -55 59 7 -2 63 45 69 104 14 l52 -48 -51 -13 c-83
-21 -103 -59 -54 -108 22 -22 41 -51 41 -63 0 -12 23 -49 50 -82 83 -98 71
-133 -28 -84 -38 19 -84 27 -115 19 -32 -8 -46 -5 -37 8 7 12 3 21 -9 21 -11
0 -21 -11 -22 -25 0 -15 -8 -11 -20 8 -10 19 -34 31 -52 29 -112 -17 -190 364
-95 470 17 19 23 48 15 70 -7 21 -6 31 3 23 21 -19 70 21 70 58 0 22 -9 24
-40 7 -41 -22 -89 10 -137 93 -13 21 -22 26 -22 11 -1 -15 -10 -21 -21 -14
-11 7 -20 -2 -20 -19 0 -18 12 -37 27 -42 40 -16 31 -69 -12 -69 -22 0 -35
-11 -30 -25 5 -14 26 -25 47 -25 50 0 45 -92 -9 -161 -33 -42 -36 -62 -20
-121 11 -39 16 -81 12 -94 -9 -27 32 -74 65 -74 13 0 18 -16 11 -38 -9 -28 -1
-43 30 -52 23 -8 52 -40 63 -72 13 -37 34 -58 59 -58 22 0 34 -9 27 -20 -7
-11 2 -20 19 -20 18 0 32 19 33 45 2 34 5 36 12 10 10 -41 38 -46 53 -10 6 16
10 12 11 -9 1 -18 -14 -37 -33 -42 -22 -6 -16 -10 18 -12 44 -2 51 5 43 38 -6
22 -1 40 12 40 12 0 22 -8 22 -18 0 -27 77 -41 88 -15 5 13 15 3 23 -22 8 -26
30 -45 51 -45 21 0 38 -9 38 -20 0 -11 10 -20 21 -20 32 0 86 -60 70 -76 -8
-8 -26 3 -41 23 -15 21 -38 34 -51 29 -17 -5 -14 -18 9 -41 19 -19 32 -46 31
-60 -13 -95 2 -145 32 -106 16 21 30 30 31 20 5 -57 15 -103 29 -138 15 -36
12 -36 -31 5 -74 69 -125 10 -113 -131 4 -48 -4 -68 -31 -76 -38 -12 -50 -49
-16 -49 35 0 22 -72 -20 -110 -21 -19 -35 -42 -30 -50 5 -9 -4 -27 -20 -40
-17 -14 -30 -38 -30 -53 0 -16 -15 -26 -35 -23 -38 7 -46 -30 -22 -99 28 -79
-2 -230 -40 -200 -17 14 -25 15 -17 3 8 -15 -4 -19 -37 -13 -42 8 -49 2 -49
-44 0 -55 -39 -63 -56 -12 -6 17 0 21 16 11 17 -10 21 -8 12 6 -18 30 -72 8
-72 -29 0 -18 -10 -24 -25 -14 -17 10 -16 4 2 -19 18 -22 20 -34 5 -34 -12 0
-22 -9 -22 -21 0 -21 15 -28 105 -48 55 -12 79 -71 28 -71 -15 0 -43 -18 -63
-40 -20 -22 -55 -40 -78 -40 -23 0 -85 -13 -137 -29 -57 -18 -99 -21 -106 -10
-7 12 -29 7 -55 -11 -23 -16 -81 -30 -127 -30 -47 0 -90 -9 -97 -20 -7 -11
-47 -20 -89 -20 -45 0 -87 -13 -102 -31 -14 -18 -42 -28 -62 -22 -19 5 -46 -4
-59 -19 -12 -15 -32 -22 -43 -15 -12 7 -16 5 -9 -6 6 -10 -6 -30 -27 -43 -22
-13 -39 -16 -39 -7 0 29 -74 41 -98 17 -37 -37 -27 -91 16 -80 21 5 44 -1 51
-13 8 -12 3 -20 -13 -16 -14 3 -26 -8 -26 -25 0 -16 18 -32 40 -34 22 -3 30
-1 17 5 -33 16 15 111 52 104 21 -4 28 -37 27 -130 0 -69 8 -125 18 -125 10 0
17 20 15 45 -6 77 4 107 19 55 19 -65 5 -120 -30 -120 -16 0 -28 -9 -28 -20 0
-11 8 -20 19 -20 10 0 24 -19 31 -41 8 -23 25 -37 39 -32 15 6 25 -4 24 -24
-2 -20 9 -30 27 -26 16 3 23 0 15 -8 -29 -30 32 -69 107 -69 60 0 74 7 65 30
-7 18 13 50 51 81 34 29 62 65 62 81 0 37 -20 35 -50 -5 -39 -54 -80 -19 -124
106 -88 249 -86 256 114 260 508 9 717 59 719 170 1 19 37 62 81 97 55 44 80
79 80 114 0 30 24 72 60 106 l60 56 -13 180 -13 180 61 32 c97 50 152 156 136
262 -11 72 -5 99 29 146 40 53 41 66 19 192 -17 100 -18 141 -1 158 34 34 26
132 -17 192 -21 30 -44 78 -52 107 -8 32 -29 55 -54 59 -118 18 -104 145 17
142 97 -3 128 31 128 140 0 84 -3 88 -50 79 -27 -5 -50 -1 -50 11 0 11 -13 25
-29 31 -19 7 -25 1 -18 -18 6 -16 19 -29 29 -29 10 0 18 -13 18 -29 0 -21 -17
-26 -67 -18 -58 10 -69 5 -81 -36 -14 -45 -15 -45 -31 -7 -9 22 -12 47 -7 55
4 8 -6 15 -24 15 -22 0 -32 15 -29 45 6 73 0 98 -20 86 -10 -6 -24 -2 -31 9
-7 11 -23 15 -34 7 -14 -8 -16 -4 -7 11 11 18 21 18 43 1 25 -21 36 -13 31 23
0 7 21 8 48 3 33 -7 49 -1 49 18 1 22 4 22 18 0 9 -14 20 -27 24 -28 15 -4
147 135 142 150 -2 8 14 15 36 15 33 0 40 13 40 80 0 44 -2 79 -5 79 -3 -1
-23 -9 -45 -18z"/>
<path d="M8340 3389 c0 -7 9 -29 21 -50 24 -46 79 -52 79 -9 0 17 -13 30 -30
30 -16 0 -30 9 -30 20 0 11 -9 20 -20 20 -11 0 -20 -5 -20 -11z"/>
<path d="M537 2598 c-20 -13 -21 -17 -2 -18 14 0 25 -13 25 -30 0 -37 72 -40
86 -4 12 33 -74 74 -109 52z"/>
<path d="M1719 1065 c-7 -65 -23 -116 -40 -122 -39 -13 -22 -123 19 -123 33 0
39 18 45 130 5 98 -16 198 -24 115z"/>
<path d="M6560 784 c0 -23 17 -44 41 -50 33 -9 40 -3 35 32 -8 57 -76 72 -76
18z"/>
<path d="M1708 731 c-21 -53 5 -89 55 -76 25 7 35 16 21 20 -13 5 -24 21 -24
35 0 42 -39 57 -52 21z"/>
<path d="M6570 700 c7 -11 3 -20 -8 -20 -24 0 -121 -94 -109 -106 4 -5 -5 -19
-21 -32 -26 -22 -25 -30 4 -63 39 -46 67 -51 51 -9 -7 19 14 44 62 72 47 28
69 54 62 72 -6 16 -11 47 -11 68 0 21 -10 38 -21 38 -12 0 -16 -9 -9 -20z"/>
<path d="M900 683 c0 -10 13 -29 30 -43 16 -13 24 -34 17 -45 -7 -12 -4 -15 8
-8 12 7 33 -13 47 -45 21 -46 34 -55 60 -41 18 10 40 11 49 3 8 -8 9 -3 1 11
-8 14 -22 21 -31 15 -9 -5 -22 4 -29 21 -6 18 -21 26 -32 19 -11 -7 -20 1 -20
18 0 16 9 35 20 42 43 27 17 62 -50 67 -38 2 -70 -4 -70 -14z"/>
<path d="M5630 681 c-96 -23 -150 -59 -137 -91 10 -26 29 -31 97 -30 6 0 41
-13 80 -29 38 -16 73 -22 78 -15 10 17 -4 141 -19 166 -13 20 -14 20 -99 -1z"/>
<path d="M3253 664 c-29 -45 -34 -169 -10 -233 21 -59 21 -76 1 -89 -49 -30
53 -189 108 -168 16 6 41 0 56 -13 21 -17 32 -17 42 -1 8 13 29 17 47 9 81
-33 144 -24 183 26 43 54 37 85 -17 85 -19 0 -46 11 -60 25 -20 20 -28 19 -42
-3 -12 -20 -45 -25 -120 -18 -116 12 -186 59 -145 100 13 13 24 48 24 78 0 58
38 77 154 78 35 0 69 8 75 18 20 33 -50 82 -119 82 -37 0 -90 9 -118 19 -28
11 -55 13 -59 5z"/>
<path d="M3710 640 c-30 -33 -32 -49 -13 -91 13 -28 23 -89 23 -135 1 -113 23
-148 67 -104 24 24 31 54 23 107 -6 40 -12 82 -14 93 -1 11 4 54 12 95 16 88
-34 106 -98 35z"/>
<path d="M4335 648 c-47 -25 -52 -36 -34 -70 34 -64 78 -68 134 -13 90 91 21
149 -100 83z"/>
<path d="M5960 629 c-32 -84 -25 -209 11 -209 17 0 28 11 25 25 -8 33 75 115
115 115 50 0 109 39 109 72 0 18 9 24 23 16 14 -9 18 -5 9 9 -32 51 -271 28
-292 -28z"/>
<path d="M2054 645 c-60 -101 -25 -205 67 -205 60 0 153 101 129 140 -7 11 -3
20 9 20 11 0 21 14 21 31 0 25 -8 26 -43 8 -31 -17 -55 -17 -90 -1 -57 26 -81
28 -93 7z"/>
<path d="M4620 611 c-10 -27 -5 -53 16 -77 24 -27 26 -40 9 -51 -43 -27 3
-443 49 -443 15 0 23 9 16 20 -7 11 -2 20 10 20 12 0 18 7 13 15 -24 38 44 81
138 88 87 6 101 2 119 -38 11 -25 27 -45 36 -45 9 0 11 9 4 20 -7 11 6 46 29
78 46 65 54 141 16 144 -44 5 -85 -5 -95 -23 -15 -23 -159 -52 -217 -43 -111
17 -116 264 -5 264 20 0 48 13 62 30 13 16 32 25 42 19 10 -6 34 -14 53 -18
19 -4 59 -13 88 -21 61 -15 88 14 60 64 -32 57 -421 54 -443 -3z"/>
<path d="M1480 599 c-16 -10 -64 -14 -105 -7 -60 9 -75 5 -75 -20 0 -18 13
-32 30 -32 16 0 44 -22 62 -50 18 -27 44 -50 58 -50 42 0 52 -57 12 -69 -44
-14 -46 -101 -2 -102 70 -2 162 141 118 185 -12 12 -23 51 -25 87 -3 71 -26
90 -73 58z"/>
<path d="M1670 532 c0 -28 13 -45 35 -47 19 -1 35 10 35 26 0 15 -16 36 -35
46 -28 16 -35 11 -35 -25z"/>
<path d="M1186 538 c-16 -16 -8 -42 26 -94 38 -54 43 -75 23 -87 -20 -13 -20
-16 0 -17 14 0 31 0 39 -1 8 0 17 23 21 50 3 29 -4 51 -16 51 -13 0 -19 11
-14 25 14 38 -53 99 -79 73z"/>
<path d="M620 455 c0 -54 37 -76 124 -70 46 2 24 35 -24 35 -21 0 -52 20 -69
44 l-31 45 0 -54z"/>
<path d="M840 478 c0 -51 70 -138 109 -136 36 2 36 4 5 12 -33 9 -85 96 -77
131 2 8 -6 15 -17 15 -11 0 -20 -10 -20 -22z"/>
<path d="M4364 378 c-2 -69 18 -85 64 -52 40 30 25 86 -26 99 -28 8 -36 -3
-38 -47z"/>
<path d="M2207 349 c-59 -46 -92 -49 -190 -18 -21 7 -51 3 -65 -9 -19 -16 -35
-12 -62 18 -43 48 -135 56 -117 10 6 -16 19 -25 29 -19 10 6 18 -1 18 -17 0
-19 16 -25 49 -19 37 7 64 -7 110 -57 47 -52 66 -61 85 -42 29 29 184 33 166
4 -7 -11 -3 -20 9 -20 11 0 21 -9 21 -20 0 -11 -14 -20 -31 -20 -18 0 -45 -13
-60 -28 -35 -35 61 -64 133 -41 24 7 38 5 32 -5 -16 -25 109 -30 146 -6 41 27
-11 64 -75 53 -25 -4 -45 -1 -45 7 0 9 -17 20 -39 25 -34 9 -37 23 -27 120 13
131 -5 149 -87 84z"/>
<path d="M1514 246 c-21 -33 74 -95 146 -95 39 -1 81 -8 95 -17 13 -9 45 -5
70 8 l45 25 -55 18 c-30 10 -55 28 -55 39 0 13 -12 11 -30 -4 -35 -29 -169
-14 -191 21 -8 14 -19 15 -25 5z"/>
<path d="M6066 95 c-1 -14 -8 -41 -16 -60 -8 -20 -6 -35 6 -35 11 0 29 27 41
60 16 46 15 60 -5 60 -14 0 -26 -11 -26 -25z"/>
<path d="M3090 31 c-59 -27 -58 -28 57 -29 81 -2 114 5 109 21 -12 35 -98 39
-166 8z"/>
<path d="M4415 45 c-112 -16 -50 -45 96 -45 89 0 147 8 140 19 -7 10 -27 17
-46 16 -19 -1 -57 2 -85 8 -27 5 -75 6 -105 2z"/>
<path d="M5020 31 c0 -25 27 -31 135 -31 87 1 125 7 107 18 -16 10 -60 15
-100 12 -39 -4 -87 2 -106 12 -27 15 -36 12 -36 -11z"/>
</g>
</svg>
